{"glyphs":{"0":{"ha":901,"x_min":66,"x_max":833,"o":"m 450 -11 q 254 42 340 -11 q 117 196 167 95 q 66 439 66 296 l 66 553 q 117 800 66 698 q 254 957 167 903 q 450 1010 340 1011 q 648 956 562 1010 q 784 800 734 902 q 833 553 833 698 l 833 439 q 784 196 833 296 q 648 42 734 95 q 450 -11 562 -11 m 450 203 q 525 225 495 203 q 571 290 555 246 q 586 400 586 334 l 586 600 q 571 711 586 668 q 525 775 555 755 q 450 796 495 796 q 378 775 409 796 q 330 711 347 755 q 313 600 313 668 l 313 400 q 330 290 313 334 q 378 225 347 246 q 450 203 409 203 z "},"1":{"ha":623,"x_min":77,"x_max":514,"o":"m 264 0 l 264 777 l 311 705 l 77 605 l 77 836 l 442 1000 l 514 1000 l 514 0 l 264 0 z "},"2":{"ha":817,"x_min":45,"x_max":750,"o":"m 64 0 l 64 50 l 331 397 q 409 497 369 446 q 478 599 450 549 q 506 694 506 649 q 493 746 506 724 q 458 781 481 768 q 404 793 435 793 q 346 778 371 793 q 308 735 321 763 q 294 670 294 707 l 45 670 q 93 847 46 770 q 220 967 139 924 q 408 1010 302 1010 q 585 973 507 1010 q 706 868 662 935 q 750 711 750 800 q 719 570 750 635 q 640 444 688 506 q 536 313 591 382 l 461 220 l 461 214 l 589 217 l 750 217 l 750 0 l 64 0 z "},"3":{"ha":817,"x_min":34,"x_max":755,"o":"m 395 -11 q 211 26 292 -11 q 83 131 130 64 q 34 286 35 197 l 278 286 q 298 233 278 254 q 346 202 317 212 q 403 193 375 192 q 461 208 436 193 q 500 246 486 222 q 514 302 514 271 q 499 359 514 334 q 452 399 484 384 q 366 414 419 414 l 304 414 l 304 597 l 372 597 q 437 611 410 597 q 477 650 463 625 q 491 708 490 675 q 480 761 492 739 q 448 795 469 783 q 397 807 427 807 q 346 797 368 807 q 310 767 323 786 q 297 722 297 747 l 66 722 q 109 871 65 806 q 228 973 152 936 q 403 1010 304 1010 q 577 972 505 1010 q 689 869 650 933 q 728 731 728 806 q 687 595 728 653 q 573 504 646 536 q 406 472 500 472 l 406 541 q 589 511 510 543 q 711 420 667 479 q 755 278 755 360 q 709 131 755 196 q 581 27 662 65 q 395 -11 499 -11 z "},"4":{"ha":878,"x_min":22,"x_max":827,"o":"m 486 0 l 486 536 l 491 713 l 486 713 l 389 564 l 273 395 l 273 392 l 827 392 l 827 191 l 22 191 l 22 331 l 495 1000 l 722 1000 l 722 0 l 486 0 z "},"5":{"ha":811,"x_min":61,"x_max":766,"o":"m 408 -11 q 256 15 326 -11 q 135 84 186 40 q 61 186 85 129 l 289 281 q 318 241 299 258 q 361 213 336 223 q 414 203 386 203 q 477 220 449 203 q 522 264 505 236 q 538 328 538 292 q 520 393 538 366 q 471 435 501 420 q 408 450 441 450 q 341 434 371 450 q 300 403 311 418 l 103 430 l 103 1000 l 681 1000 l 681 783 l 328 783 l 328 514 l 283 589 q 355 626 309 612 q 450 639 401 639 q 608 599 536 639 q 723 487 680 559 q 766 319 766 415 q 719 144 766 218 q 591 30 672 71 q 408 -11 510 -11 z "},"6":{"ha":811,"x_min":41,"x_max":770,"o":"m 415 -11 q 221 36 306 -11 q 89 159 137 82 q 41 326 41 235 q 57 435 41 381 q 95 533 74 490 q 132 600 117 576 l 393 1000 l 662 1000 l 399 600 l 376 614 q 402 629 383 623 q 457 636 422 636 q 611 596 539 636 q 726 484 682 556 q 770 316 770 412 q 724 145 770 219 q 597 31 677 72 q 415 -11 517 -11 m 407 197 q 475 213 446 197 q 523 258 505 229 q 540 323 540 286 q 523 387 540 359 q 475 431 505 415 q 407 448 446 448 q 337 431 368 448 q 289 387 307 415 q 271 323 271 359 q 289 258 271 286 q 337 213 307 229 q 407 197 368 197 z "},"7":{"ha":753,"x_min":22,"x_max":742,"o":"m 90 0 l 425 776 l 425 783 l 22 783 l 22 1000 l 742 1000 l 742 962 l 345 0 l 90 0 z "},"8":{"ha":873,"x_min":61,"x_max":812,"o":"m 437 -11 q 245 28 330 -11 q 111 134 161 67 q 61 283 61 201 q 111 433 61 367 q 245 539 161 500 q 437 578 330 578 q 628 539 543 578 q 763 433 713 500 q 812 283 812 367 q 763 134 812 201 q 628 28 713 67 q 437 -11 543 -11 m 437 184 q 507 199 475 184 q 556 240 538 214 q 574 297 574 265 q 556 356 574 330 q 507 398 538 382 q 438 414 477 414 q 368 398 399 414 q 318 356 336 382 q 300 297 300 330 q 318 240 300 265 q 367 199 336 214 q 437 184 398 184 m 438 433 q 271 472 345 433 q 152 579 196 512 q 109 731 109 647 q 152 873 109 810 q 270 974 195 937 q 437 1010 345 1010 q 604 974 530 1010 q 722 873 678 937 q 765 731 765 810 q 722 579 765 647 q 604 472 678 512 q 438 433 530 433 m 437 597 q 497 612 471 597 q 540 653 524 627 q 556 711 556 679 q 540 767 556 742 q 497 806 524 791 q 435 821 469 821 q 375 806 402 821 q 333 767 349 791 q 317 711 317 742 q 333 653 317 679 q 376 612 349 627 q 437 597 404 597 z "},"9":{"ha":811,"x_min":41,"x_max":770,"o":"m 396 1010 q 590 964 505 1010 q 722 841 674 918 q 770 674 770 764 q 754 564 770 618 q 716 467 737 510 q 680 400 694 423 l 418 0 l 149 0 l 412 400 l 435 385 q 409 370 429 377 q 354 363 390 363 q 200 404 272 363 q 85 515 129 444 q 41 684 41 587 q 87 854 41 781 q 214 969 134 928 q 396 1010 294 1010 m 404 803 q 336 787 366 803 q 289 742 306 770 q 271 677 271 713 q 289 613 271 641 q 336 568 306 585 q 404 552 366 552 q 474 568 444 552 q 522 613 505 585 q 540 677 540 641 q 522 742 540 713 q 474 787 505 770 q 404 803 444 803 z "},"A":{"ha":1017,"x_min":-11,"x_max":1028,"o":"m -11 0 l 403 1000 l 614 1000 l 1028 0 l 762 0 l 670 244 l 651 342 l 511 713 l 506 713 l 366 342 l 347 244 l 255 0 l -11 0 m 233 183 l 233 387 l 784 387 l 784 183 l 233 183 z "},"Á":{"ha":1017,"x_min":-11,"x_max":1028,"o":"m -11 0 l 403 1000 l 614 1000 l 1028 0 l 762 0 l 670 244 l 651 342 l 511 713 l 506 713 l 366 342 l 347 244 l 255 0 l -11 0 m 233 183 l 233 387 l 784 387 l 784 183 l 233 183 m 509 1047 l 411 1145 l 658 1355 l 769 1208 l 509 1047 z "},"Ă":{"ha":1017,"x_min":-11,"x_max":1028,"o":"m -11 0 l 403 1000 l 614 1000 l 1028 0 l 762 0 l 670 244 l 651 342 l 511 713 l 506 713 l 366 342 l 347 244 l 255 0 l -11 0 m 233 183 l 233 387 l 784 387 l 784 183 l 233 183 m 509 1063 q 375 1090 436 1065 q 276 1165 313 1116 q 239 1291 239 1215 l 380 1291 q 421 1214 381 1238 q 509 1190 461 1190 q 598 1213 559 1190 q 636 1291 638 1236 l 780 1291 q 743 1165 781 1215 q 643 1090 705 1116 q 509 1063 581 1065 z "},"Ắ":{"ha":1017,"x_min":-11,"x_max":1028,"o":"m -11 0 l 403 1000 l 614 1000 l 1028 0 l 762 0 l 670 244 l 651 342 l 511 713 l 506 713 l 366 342 l 347 244 l 255 0 l -11 0 m 233 183 l 233 387 l 784 387 l 784 183 l 233 183 m 486 1249 l 403 1358 l 644 1552 l 747 1408 l 486 1249 m 502 1061 q 361 1090 423 1061 q 264 1170 300 1119 q 229 1286 229 1221 l 373 1286 q 410 1212 373 1241 q 502 1183 446 1183 q 592 1212 557 1183 q 628 1286 628 1241 l 772 1286 q 737 1170 772 1221 q 641 1090 702 1119 q 502 1061 580 1061 z "},"Ặ":{"ha":1017,"x_min":-11,"x_max":1028,"o":"m -11 0 l 403 1000 l 614 1000 l 1028 0 l 762 0 l 670 244 l 651 342 l 511 713 l 506 713 l 366 342 l 347 244 l 255 0 l -11 0 m 233 183 l 233 387 l 784 387 l 784 183 l 233 183 m 511 -357 q 410 -315 452 -357 q 369 -214 369 -273 q 410 -113 369 -153 q 511 -72 452 -72 q 613 -113 572 -72 q 654 -214 654 -153 q 613 -315 654 -273 q 511 -357 572 -357 m 509 1063 q 375 1090 436 1065 q 276 1165 313 1116 q 239 1291 239 1215 l 380 1291 q 421 1214 381 1238 q 509 1190 461 1190 q 598 1213 559 1190 q 636 1291 638 1236 l 780 1291 q 743 1165 781 1215 q 643 1090 705 1116 q 509 1063 581 1065 z "},"Ằ":{"ha":1017,"x_min":-11,"x_max":1028,"o":"m -11 0 l 403 1000 l 614 1000 l 1028 0 l 762 0 l 670 244 l 651 342 l 511 713 l 506 713 l 366 342 l 347 244 l 255 0 l -11 0 m 233 183 l 233 387 l 784 387 l 784 183 l 233 183 m 525 1249 l 263 1408 l 366 1552 l 608 1358 l 525 1249 m 509 1061 q 370 1090 431 1061 q 274 1170 309 1119 q 239 1286 239 1221 l 382 1286 q 418 1212 382 1241 q 509 1183 454 1183 q 601 1212 565 1183 q 637 1286 637 1241 l 781 1286 q 746 1170 781 1221 q 649 1090 711 1119 q 509 1061 588 1061 z "},"Ẳ":{"ha":1017,"x_min":-11,"x_max":1028,"o":"m -11 0 l 403 1000 l 614 1000 l 1028 0 l 762 0 l 670 244 l 651 342 l 511 713 l 506 713 l 366 342 l 347 244 l 255 0 l -11 0 m 233 183 l 233 387 l 784 387 l 784 183 l 233 183 m 509 1061 q 370 1090 431 1061 q 274 1170 309 1119 q 239 1286 239 1221 l 382 1286 q 418 1212 382 1241 q 509 1183 454 1183 q 601 1212 565 1183 q 637 1286 637 1241 l 781 1286 q 746 1170 781 1221 q 649 1090 711 1119 q 509 1061 588 1061 m 509 1226 l 425 1308 q 458 1337 442 1319 q 475 1373 475 1354 q 455 1399 475 1391 q 403 1408 435 1408 q 371 1406 388 1408 q 336 1396 354 1403 l 336 1533 q 381 1545 351 1541 q 439 1549 412 1549 q 569 1512 521 1549 q 617 1405 617 1476 q 583 1293 617 1340 q 509 1226 549 1246 z "},"Ẵ":{"ha":1017,"x_min":-11,"x_max":1028,"o":"m -11 0 l 403 1000 l 614 1000 l 1028 0 l 762 0 l 670 244 l 651 342 l 511 713 l 506 713 l 366 342 l 347 244 l 255 0 l -11 0 m 233 183 l 233 387 l 784 387 l 784 183 l 233 183 m 239 1331 q 283 1488 239 1426 q 408 1549 327 1549 q 474 1537 448 1549 q 519 1510 500 1526 q 554 1483 538 1495 q 589 1472 570 1472 q 626 1493 614 1472 q 636 1549 638 1514 l 780 1549 q 760 1439 781 1489 q 701 1360 740 1390 q 608 1331 662 1331 q 543 1342 568 1331 q 498 1369 517 1354 q 463 1396 479 1385 q 427 1408 447 1408 q 392 1388 403 1408 q 380 1331 381 1369 l 239 1331 m 509 1061 q 370 1090 431 1061 q 274 1170 309 1119 q 239 1286 239 1221 l 382 1286 q 418 1212 382 1241 q 509 1183 454 1183 q 601 1212 565 1183 q 637 1286 637 1241 l 781 1286 q 746 1170 781 1221 q 649 1090 711 1119 q 509 1061 588 1061 z "},"Ǎ":{"ha":1017,"x_min":-11,"x_max":1028,"o":"m -11 0 l 403 1000 l 614 1000 l 1028 0 l 762 0 l 670 244 l 651 342 l 511 713 l 506 713 l 366 342 l 347 244 l 255 0 l -11 0 m 233 183 l 233 387 l 784 387 l 784 183 l 233 183 m 339 1328 l 506 1203 l 509 1203 l 681 1328 l 783 1219 l 530 1047 l 486 1047 l 233 1219 l 339 1328 z "},"Â":{"ha":1017,"x_min":-11,"x_max":1028,"o":"m -11 0 l 403 1000 l 614 1000 l 1028 0 l 762 0 l 670 244 l 651 342 l 511 713 l 506 713 l 366 342 l 347 244 l 255 0 l -11 0 m 233 183 l 233 387 l 784 387 l 784 183 l 233 183 m 339 1050 l 233 1158 l 486 1331 l 530 1331 l 783 1158 l 681 1050 l 509 1175 l 506 1175 l 339 1050 z "},"Ấ":{"ha":1017,"x_min":-11,"x_max":1028,"o":"m -11 0 l 403 1000 l 614 1000 l 1028 0 l 762 0 l 670 244 l 651 342 l 511 713 l 506 713 l 366 342 l 347 244 l 255 0 l -11 0 m 233 183 l 233 387 l 784 387 l 784 183 l 233 183 m 738 1244 l 635 1316 l 865 1549 l 977 1400 l 738 1244 m 338 1039 l 232 1146 l 484 1316 l 529 1316 l 781 1146 l 680 1039 l 507 1164 l 505 1164 l 338 1039 z "},"Ậ":{"ha":1017,"x_min":-11,"x_max":1028,"o":"m -11 0 l 403 1000 l 614 1000 l 1028 0 l 762 0 l 670 244 l 651 342 l 511 713 l 506 713 l 366 342 l 347 244 l 255 0 l -11 0 m 233 183 l 233 387 l 784 387 l 784 183 l 233 183 m 511 -357 q 410 -315 452 -357 q 369 -214 369 -273 q 410 -113 369 -153 q 511 -72 452 -72 q 613 -113 572 -72 q 654 -214 654 -153 q 613 -315 654 -273 q 511 -357 572 -357 m 339 1050 l 233 1158 l 486 1331 l 530 1331 l 783 1158 l 681 1050 l 509 1175 l 506 1175 l 339 1050 z "},"Ầ":{"ha":1017,"x_min":-11,"x_max":1028,"o":"m -11 0 l 403 1000 l 614 1000 l 1028 0 l 762 0 l 670 244 l 651 342 l 511 713 l 506 713 l 366 342 l 347 244 l 255 0 l -11 0 m 233 183 l 233 387 l 784 387 l 784 183 l 233 183 m 279 1244 l 41 1400 l 152 1549 l 382 1316 l 279 1244 m 680 1039 l 513 1164 l 510 1164 l 338 1039 l 236 1146 l 488 1316 l 533 1316 l 785 1146 l 680 1039 z "},"Ẩ":{"ha":1017,"x_min":-11,"x_max":1028,"o":"m -11 0 l 403 1000 l 614 1000 l 1028 0 l 762 0 l 670 244 l 651 342 l 511 713 l 506 713 l 366 342 l 347 244 l 255 0 l -11 0 m 233 183 l 233 387 l 784 387 l 784 183 l 233 183 m 727 1246 l 644 1308 q 679 1338 666 1323 q 692 1369 692 1352 q 675 1398 692 1388 q 623 1408 659 1408 q 590 1406 606 1408 q 552 1397 574 1403 l 552 1535 q 600 1546 568 1543 q 658 1549 631 1549 q 785 1514 737 1549 q 833 1402 833 1480 q 815 1335 833 1365 q 774 1282 798 1304 q 727 1246 749 1259 m 339 1039 l 233 1146 l 486 1316 l 530 1316 l 783 1146 l 681 1039 l 509 1164 l 506 1164 l 339 1039 z "},"Ẫ":{"ha":1017,"x_min":-11,"x_max":1028,"o":"m -11 0 l 403 1000 l 614 1000 l 1028 0 l 762 0 l 670 244 l 651 342 l 511 713 l 506 713 l 366 342 l 347 244 l 255 0 l -11 0 m 233 183 l 233 387 l 784 387 l 784 183 l 233 183 m 239 1331 q 282 1488 237 1426 q 408 1549 327 1549 q 474 1537 448 1549 q 518 1510 500 1526 q 553 1483 536 1495 q 589 1472 569 1472 q 624 1493 612 1472 q 636 1549 636 1514 l 780 1549 q 765 1439 781 1489 q 714 1360 749 1390 q 625 1331 680 1331 q 560 1342 586 1331 q 516 1369 534 1354 q 482 1396 498 1385 q 448 1408 467 1408 q 401 1388 420 1408 q 380 1331 381 1369 l 239 1331 m 339 1039 l 233 1146 l 486 1316 l 530 1316 l 783 1146 l 681 1039 l 509 1164 l 506 1164 l 339 1039 z "},"Ȁ":{"ha":1017,"x_min":-11,"x_max":1028,"o":"m -11 0 l 403 1000 l 614 1000 l 1028 0 l 762 0 l 670 244 l 651 342 l 511 713 l 506 713 l 366 342 l 347 244 l 255 0 l -11 0 m 233 183 l 233 387 l 784 387 l 784 183 l 233 183 m 317 1055 l 133 1275 l 289 1362 l 437 1114 l 317 1055 m 597 1055 l 416 1275 l 572 1362 l 716 1114 l 597 1055 z "},"Ä":{"ha":1017,"x_min":-11,"x_max":1028,"o":"m -11 0 l 403 1000 l 614 1000 l 1028 0 l 762 0 l 670 244 l 651 342 l 511 713 l 506 713 l 366 342 l 347 244 l 255 0 l -11 0 m 233 183 l 233 387 l 784 387 l 784 183 l 233 183 m 684 1044 q 591 1081 629 1044 q 553 1172 553 1118 q 591 1264 553 1226 q 684 1302 629 1302 q 772 1264 736 1302 q 808 1173 808 1226 q 772 1081 808 1118 q 684 1044 736 1044 m 339 1044 q 249 1081 286 1044 q 212 1172 212 1118 q 249 1264 212 1226 q 339 1302 286 1302 q 430 1264 393 1302 q 467 1173 467 1226 q 430 1081 467 1118 q 339 1044 393 1044 z "},"Ȧ":{"ha":1017,"x_min":-11,"x_max":1028,"o":"m -11 0 l 403 1000 l 614 1000 l 1028 0 l 762 0 l 670 244 l 651 342 l 511 713 l 506 713 l 366 342 l 347 244 l 255 0 l -11 0 m 233 183 l 233 387 l 784 387 l 784 183 l 233 183 m 511 1057 q 410 1098 452 1057 q 369 1199 369 1140 q 410 1301 369 1260 q 511 1341 452 1341 q 613 1301 572 1341 q 654 1199 654 1260 q 613 1098 654 1140 q 511 1057 572 1057 z "},"Ạ":{"ha":1017,"x_min":-11,"x_max":1028,"o":"m -11 0 l 403 1000 l 614 1000 l 1028 0 l 762 0 l 670 244 l 651 342 l 511 713 l 506 713 l 366 342 l 347 244 l 255 0 l -11 0 m 233 183 l 233 387 l 784 387 l 784 183 l 233 183 m 511 -357 q 410 -315 452 -357 q 369 -214 369 -273 q 410 -113 369 -153 q 511 -72 452 -72 q 613 -113 572 -72 q 654 -214 654 -153 q 613 -315 654 -273 q 511 -357 572 -357 z "},"À":{"ha":1017,"x_min":-11,"x_max":1028,"o":"m -11 0 l 403 1000 l 614 1000 l 1028 0 l 762 0 l 670 244 l 651 342 l 511 713 l 506 713 l 366 342 l 347 244 l 255 0 l -11 0 m 233 183 l 233 387 l 784 387 l 784 183 l 233 183 m 509 1047 l 248 1208 l 359 1355 l 606 1145 l 509 1047 z "},"Ả":{"ha":1017,"x_min":-11,"x_max":1028,"o":"m -11 0 l 403 1000 l 614 1000 l 1028 0 l 762 0 l 670 244 l 651 342 l 511 713 l 506 713 l 366 342 l 347 244 l 255 0 l -11 0 m 233 183 l 233 387 l 784 387 l 784 183 l 233 183 m 534 1044 l 450 1126 q 484 1155 468 1137 q 500 1191 500 1173 q 480 1218 500 1209 q 429 1226 460 1226 q 397 1224 414 1226 q 362 1214 380 1221 l 362 1351 q 407 1363 376 1359 q 465 1367 438 1367 q 595 1331 547 1367 q 643 1223 643 1294 q 609 1111 643 1158 q 534 1044 574 1064 z "},"Ȃ":{"ha":1017,"x_min":-11,"x_max":1028,"o":"m -11 0 l 403 1000 l 614 1000 l 1028 0 l 762 0 l 670 244 l 651 342 l 511 713 l 506 713 l 366 342 l 347 244 l 255 0 l -11 0 m 233 183 l 233 387 l 784 387 l 784 183 l 233 183 m 509 1293 q 643 1265 581 1291 q 743 1191 705 1240 q 780 1065 781 1141 l 636 1065 q 598 1144 638 1121 q 509 1166 559 1166 q 421 1143 461 1166 q 380 1065 381 1119 l 239 1065 q 276 1191 239 1141 q 375 1265 313 1240 q 509 1293 436 1291 z "},"Ā":{"ha":1017,"x_min":-11,"x_max":1028,"o":"m -11 0 l 403 1000 l 614 1000 l 1028 0 l 762 0 l 670 244 l 651 342 l 511 713 l 506 713 l 366 342 l 347 244 l 255 0 l -11 0 m 233 183 l 233 387 l 784 387 l 784 183 l 233 183 m 231 1095 l 231 1251 l 785 1251 l 785 1095 l 231 1095 z "},"Ą":{"ha":1017,"x_min":-11,"x_max":1028,"o":"m -11 0 l 403 1000 l 614 1000 l 1028 0 l 762 0 l 670 244 l 651 342 l 511 713 l 506 713 l 366 342 l 347 244 l 255 0 l -11 0 m 233 183 l 233 387 l 784 387 l 784 183 l 233 183 m 913 -297 q 794 -258 840 -297 q 749 -153 749 -219 q 790 -51 749 -95 q 905 37 831 -6 l 1027 0 q 961 -41 991 -21 q 912 -82 930 -62 q 894 -125 894 -103 q 909 -154 894 -144 q 955 -164 924 -164 q 995 -160 973 -164 q 1027 -151 1017 -157 l 1027 -281 q 971 -293 1006 -289 q 913 -297 937 -297 z "},"Å":{"ha":1017,"x_min":-11,"x_max":1028,"o":"m -11 0 l 403 1000 l 614 1000 l 1028 0 l 762 0 l 670 244 l 651 342 l 511 713 l 506 713 l 366 342 l 347 244 l 255 0 l -11 0 m 233 183 l 233 387 l 784 387 l 784 183 l 233 183 m 509 1044 q 407 1070 452 1044 q 336 1139 362 1095 q 309 1236 309 1182 q 336 1336 309 1292 q 407 1406 362 1380 q 509 1431 452 1431 q 612 1406 566 1431 q 683 1336 657 1380 q 709 1236 709 1292 q 683 1139 709 1182 q 612 1070 657 1095 q 509 1044 566 1044 m 509 1169 q 557 1188 538 1169 q 576 1236 576 1207 q 557 1284 576 1265 q 509 1303 538 1303 q 461 1284 480 1303 q 442 1236 442 1265 q 461 1188 442 1207 q 509 1169 480 1169 z "},"Ǻ":{"ha":1017,"x_min":-11,"x_max":1028,"o":"m -11 0 l 403 1000 l 614 1000 l 1028 0 l 762 0 l 670 244 l 651 342 l 511 713 l 506 713 l 366 342 l 347 244 l 255 0 l -11 0 m 233 183 l 233 387 l 784 387 l 784 183 l 233 183 m 506 1042 q 379 1089 431 1042 q 328 1207 328 1137 q 379 1325 328 1278 q 506 1373 431 1373 q 633 1325 583 1373 q 684 1207 684 1278 q 633 1089 684 1137 q 506 1042 583 1042 m 506 1145 q 550 1163 532 1145 q 567 1208 567 1182 q 550 1252 567 1234 q 506 1270 534 1270 q 463 1252 481 1270 q 445 1207 445 1235 q 463 1163 445 1182 q 506 1145 481 1145 m 532 1408 l 434 1506 l 681 1716 l 792 1569 l 532 1408 z "},"Ã":{"ha":1017,"x_min":-11,"x_max":1028,"o":"m -11 0 l 403 1000 l 614 1000 l 1028 0 l 762 0 l 670 244 l 651 342 l 511 713 l 506 713 l 366 342 l 347 244 l 255 0 l -11 0 m 233 183 l 233 387 l 784 387 l 784 183 l 233 183 m 239 1063 q 283 1220 239 1158 q 408 1280 327 1282 q 475 1271 449 1282 q 520 1244 502 1259 q 554 1217 538 1229 q 589 1206 570 1206 q 627 1227 614 1206 q 639 1280 639 1248 l 780 1280 q 737 1128 781 1189 q 608 1063 692 1067 q 543 1077 568 1065 q 498 1104 517 1089 q 463 1131 479 1120 q 427 1142 447 1142 q 392 1122 403 1142 q 381 1063 381 1101 l 239 1063 z "},"Æ":{"ha":1233,"x_min":-11,"x_max":1177,"o":"m -11 0 l 450 1000 l 594 1000 l 605 784 l 578 784 l 389 326 l 250 0 l -11 0 m 267 183 l 267 387 l 745 387 l 745 183 l 267 183 m 631 0 l 614 305 l 583 1000 l 1177 1000 l 1177 777 l 811 777 l 845 222 l 1177 222 l 1177 0 l 631 0 m 817 397 l 803 612 l 1119 612 l 1119 397 l 817 397 z "},"Ǽ":{"ha":1233,"x_min":-11,"x_max":1177,"o":"m -11 0 l 450 1000 l 594 1000 l 605 784 l 578 784 l 389 326 l 250 0 l -11 0 m 267 183 l 267 387 l 745 387 l 745 183 l 267 183 m 631 0 l 614 305 l 583 1000 l 1177 1000 l 1177 777 l 811 777 l 845 222 l 1177 222 l 1177 0 l 631 0 m 817 397 l 803 612 l 1119 612 l 1119 397 l 817 397 m 758 1047 l 661 1145 l 907 1355 l 1019 1208 l 758 1047 z "},"B":{"ha":895,"x_min":84,"x_max":865,"o":"m 315 0 l 315 217 l 515 217 q 589 245 559 217 q 618 320 618 273 q 587 389 618 364 q 507 414 555 414 l 315 414 l 315 597 l 454 597 q 504 609 484 597 q 535 644 524 622 q 545 692 545 665 q 516 761 545 740 q 438 783 486 783 l 315 783 l 315 1000 l 438 1000 q 627 966 549 1000 q 745 875 705 932 q 785 745 785 817 q 760 632 785 685 q 694 541 735 580 q 604 486 652 503 l 610 547 q 734 509 675 537 q 829 429 792 481 q 865 294 865 376 q 822 141 865 207 q 703 37 779 75 q 532 0 628 0 l 315 0 m 84 0 l 84 1000 l 334 1000 l 334 0 l 84 0 z "},"C":{"ha":901,"x_min":22,"x_max":872,"o":"m 576 -11 q 361 28 462 -11 q 184 136 260 66 q 65 298 108 205 q 22 502 22 392 q 64 704 22 611 q 181 866 106 797 q 355 972 256 935 q 567 1010 454 1010 q 721 991 642 1010 q 869 930 800 972 l 774 708 q 687 762 741 741 q 570 783 633 783 q 456 763 510 783 q 361 705 403 743 q 295 616 319 668 q 271 502 271 565 q 295 387 271 439 q 361 297 319 335 q 459 238 404 259 q 578 217 515 217 q 648 224 611 217 q 720 246 686 231 q 777 286 754 261 l 872 64 q 727 7 804 24 q 576 -11 649 -11 z "},"Ć":{"ha":901,"x_min":22,"x_max":872,"o":"m 576 -11 q 361 28 462 -11 q 184 136 260 66 q 65 298 108 205 q 22 502 22 392 q 64 704 22 611 q 181 866 106 797 q 355 972 256 935 q 567 1010 454 1010 q 721 991 642 1010 q 869 930 800 972 l 774 708 q 687 762 741 741 q 570 783 633 783 q 456 763 510 783 q 361 705 403 743 q 295 616 319 668 q 271 502 271 565 q 295 387 271 439 q 361 297 319 335 q 459 238 404 259 q 578 217 515 217 q 648 224 611 217 q 720 246 686 231 q 777 286 754 261 l 872 64 q 727 7 804 24 q 576 -11 649 -11 m 547 1047 l 449 1145 l 696 1355 l 807 1208 l 547 1047 z "},"Č":{"ha":901,"x_min":22,"x_max":872,"o":"m 576 -11 q 361 28 462 -11 q 184 136 260 66 q 65 298 108 205 q 22 502 22 392 q 64 704 22 611 q 181 866 106 797 q 355 972 256 935 q 567 1010 454 1010 q 721 991 642 1010 q 869 930 800 972 l 774 708 q 687 762 741 741 q 570 783 633 783 q 456 763 510 783 q 361 705 403 743 q 295 616 319 668 q 271 502 271 565 q 295 387 271 439 q 361 297 319 335 q 459 238 404 259 q 578 217 515 217 q 648 224 611 217 q 720 246 686 231 q 777 286 754 261 l 872 64 q 727 7 804 24 q 576 -11 649 -11 m 377 1328 l 544 1203 l 547 1203 l 719 1328 l 821 1219 l 568 1047 l 524 1047 l 271 1219 l 377 1328 z "},"Ç":{"ha":901,"x_min":22,"x_max":872,"o":"m 576 -11 q 361 28 462 -11 q 184 136 260 66 q 65 298 108 205 q 22 502 22 392 q 64 704 22 611 q 181 866 106 797 q 355 972 256 935 q 567 1010 454 1010 q 721 991 642 1010 q 869 930 800 972 l 774 708 q 687 762 741 741 q 570 783 633 783 q 456 763 510 783 q 361 705 403 743 q 295 616 319 668 q 271 502 271 565 q 295 387 271 439 q 361 297 319 335 q 459 238 404 259 q 578 217 515 217 q 648 224 611 217 q 720 246 686 231 q 777 286 754 261 l 872 64 q 727 7 804 24 q 576 -11 649 -11 m 437 -355 l 437 -241 q 544 -228 512 -243 q 575 -189 575 -212 q 549 -157 575 -170 q 473 -138 524 -143 l 519 0 l 620 0 l 578 -111 l 570 -61 q 675 -106 635 -72 q 715 -199 715 -141 q 649 -313 715 -269 q 437 -355 583 -357 z "},"Ḉ":{"ha":901,"x_min":22,"x_max":872,"o":"m 576 -11 q 361 28 462 -11 q 184 136 260 66 q 65 298 108 205 q 22 502 22 392 q 64 704 22 611 q 181 866 106 797 q 355 972 256 935 q 567 1010 454 1010 q 721 991 642 1010 q 869 930 800 972 l 774 708 q 687 762 741 741 q 570 783 633 783 q 456 763 510 783 q 361 705 403 743 q 295 616 319 668 q 271 502 271 565 q 295 387 271 439 q 361 297 319 335 q 459 238 404 259 q 578 217 515 217 q 648 224 611 217 q 720 246 686 231 q 777 286 754 261 l 872 64 q 727 7 804 24 q 576 -11 649 -11 m 437 -355 l 437 -241 q 544 -228 512 -243 q 575 -189 575 -212 q 549 -157 575 -170 q 473 -138 524 -143 l 519 0 l 620 0 l 578 -111 l 570 -61 q 675 -106 635 -72 q 715 -199 715 -141 q 649 -313 715 -269 q 437 -355 583 -357 m 547 1047 l 449 1145 l 696 1355 l 807 1208 l 547 1047 z "},"Ĉ":{"ha":901,"x_min":22,"x_max":872,"o":"m 576 -11 q 361 28 462 -11 q 184 136 260 66 q 65 298 108 205 q 22 502 22 392 q 64 704 22 611 q 181 866 106 797 q 355 972 256 935 q 567 1010 454 1010 q 721 991 642 1010 q 869 930 800 972 l 774 708 q 687 762 741 741 q 570 783 633 783 q 456 763 510 783 q 361 705 403 743 q 295 616 319 668 q 271 502 271 565 q 295 387 271 439 q 361 297 319 335 q 459 238 404 259 q 578 217 515 217 q 648 224 611 217 q 720 246 686 231 q 777 286 754 261 l 872 64 q 727 7 804 24 q 576 -11 649 -11 m 377 1050 l 271 1158 l 524 1331 l 568 1331 l 821 1158 l 719 1050 l 547 1175 l 544 1175 l 377 1050 z "},"Ċ":{"ha":901,"x_min":22,"x_max":872,"o":"m 576 -11 q 361 28 462 -11 q 184 136 260 66 q 65 298 108 205 q 22 502 22 392 q 64 704 22 611 q 181 866 106 797 q 355 972 256 935 q 567 1010 454 1010 q 721 991 642 1010 q 869 930 800 972 l 774 708 q 687 762 741 741 q 570 783 633 783 q 456 763 510 783 q 361 705 403 743 q 295 616 319 668 q 271 502 271 565 q 295 387 271 439 q 361 297 319 335 q 459 238 404 259 q 578 217 515 217 q 648 224 611 217 q 720 246 686 231 q 777 286 754 261 l 872 64 q 727 7 804 24 q 576 -11 649 -11 m 549 1057 q 448 1098 490 1057 q 407 1199 407 1140 q 448 1301 407 1260 q 549 1341 490 1341 q 651 1301 610 1341 q 692 1199 692 1260 q 651 1098 692 1140 q 549 1057 610 1057 z "},"D":{"ha":970,"x_min":84,"x_max":948,"o":"m 84 0 l 84 1000 l 431 1000 q 620 970 528 1000 q 786 881 711 941 q 904 727 860 821 q 948 506 948 634 q 904 282 948 377 q 788 124 861 186 q 628 31 716 61 q 452 0 541 0 l 84 0 m 334 222 l 460 222 q 532 236 492 222 q 611 283 572 250 q 674 370 649 315 q 699 506 699 425 q 674 639 699 587 q 611 722 649 692 q 532 765 572 752 q 460 777 492 777 l 334 777 l 334 222 z "},"Ǆ":{"ha":1775,"x_min":84,"x_max":1743,"o":"m 84 0 l 84 1000 l 431 1000 q 620 970 528 1000 q 786 881 711 941 q 904 727 860 821 q 948 506 948 634 q 904 282 948 377 q 788 124 861 186 q 628 31 716 61 q 452 0 541 0 l 84 0 m 334 222 l 460 222 q 532 236 492 222 q 611 283 572 250 q 674 370 649 315 q 699 506 699 425 q 674 639 699 587 q 611 722 649 692 q 532 765 572 752 q 460 777 492 777 l 334 777 l 334 222 m 971 0 l 971 34 l 1367 777 l 1367 780 l 990 780 l 990 1000 l 1732 1000 l 1732 964 l 1337 222 l 1337 220 l 1743 220 l 1743 0 l 971 0 m 1187 1328 l 1354 1203 l 1356 1203 l 1529 1328 l 1630 1219 l 1378 1047 l 1333 1047 l 1081 1219 l 1187 1328 z "},"Ď":{"ha":970,"x_min":84,"x_max":948,"o":"m 84 0 l 84 1000 l 431 1000 q 620 970 528 1000 q 786 881 711 941 q 904 727 860 821 q 948 506 948 634 q 904 282 948 377 q 788 124 861 186 q 628 31 716 61 q 452 0 541 0 l 84 0 m 334 222 l 460 222 q 532 236 492 222 q 611 283 572 250 q 674 370 649 315 q 699 506 699 425 q 674 639 699 587 q 611 722 649 692 q 532 765 572 752 q 460 777 492 777 l 334 777 l 334 222 m 296 1328 l 463 1203 l 465 1203 l 637 1328 l 739 1219 l 487 1047 l 442 1047 l 190 1219 l 296 1328 z "},"Đ":{"ha":1001,"x_min":22,"x_max":979,"o":"m 115 0 l 115 1000 l 463 1000 q 651 970 559 1000 q 817 881 743 941 q 935 727 891 821 q 979 506 979 634 q 936 282 979 377 q 820 124 892 186 q 660 31 747 61 q 483 0 572 0 l 115 0 m 365 222 l 491 222 q 563 236 523 222 q 642 283 604 250 q 705 370 680 315 q 730 506 730 425 q 705 639 730 587 q 642 722 680 692 q 563 765 604 752 q 491 777 523 777 l 365 777 l 365 222 m 22 442 l 22 556 l 477 556 l 477 442 l 22 442 z "},"Ḍ":{"ha":970,"x_min":84,"x_max":948,"o":"m 84 0 l 84 1000 l 431 1000 q 620 970 528 1000 q 786 881 711 941 q 904 727 860 821 q 948 506 948 634 q 904 282 948 377 q 788 124 861 186 q 628 31 716 61 q 452 0 541 0 l 84 0 m 334 222 l 460 222 q 532 236 492 222 q 611 283 572 250 q 674 370 649 315 q 699 506 699 425 q 674 639 699 587 q 611 722 649 692 q 532 765 572 752 q 460 777 492 777 l 334 777 l 334 222 m 463 -357 q 361 -315 403 -357 q 320 -214 320 -273 q 361 -113 320 -153 q 463 -72 403 -72 q 564 -113 523 -72 q 605 -214 605 -153 q 564 -315 605 -273 q 463 -357 523 -357 z "},"Ḏ":{"ha":970,"x_min":84,"x_max":948,"o":"m 84 0 l 84 1000 l 431 1000 q 620 970 528 1000 q 786 881 711 941 q 904 727 860 821 q 948 506 948 634 q 904 282 948 377 q 788 124 861 186 q 628 31 716 61 q 452 0 541 0 l 84 0 m 334 222 l 460 222 q 532 236 492 222 q 611 283 572 250 q 674 370 649 315 q 699 506 699 425 q 674 639 699 587 q 611 722 649 692 q 532 765 572 752 q 460 777 492 777 l 334 777 l 334 222 m 171 -289 l 171 -145 l 754 -145 l 754 -289 l 171 -289 z "},"ǅ":{"ha":1626,"x_min":84,"x_max":1603,"o":"m 84 0 l 84 1000 l 431 1000 q 620 970 528 1000 q 786 881 711 941 q 904 727 860 821 q 948 506 948 634 q 904 282 948 377 q 788 124 861 186 q 628 31 716 61 q 452 0 541 0 l 84 0 m 334 222 l 460 222 q 532 236 492 222 q 611 283 572 250 q 674 370 649 315 q 699 506 699 425 q 674 639 699 587 q 611 722 649 692 q 532 765 572 752 q 460 777 492 777 l 334 777 l 334 222 m 964 0 l 964 47 l 1259 521 l 1259 526 l 990 526 l 990 732 l 1603 732 l 1603 682 l 1309 212 l 1309 206 l 1603 206 l 1603 0 l 964 0 m 1111 1105 l 1295 949 l 1301 949 l 1485 1105 l 1575 994 l 1321 783 l 1275 783 l 1021 994 l 1111 1105 z "},"Ð":{"ha":1001,"x_min":22,"x_max":979,"o":"m 115 0 l 115 1000 l 463 1000 q 651 970 559 1000 q 817 881 743 941 q 935 727 891 821 q 979 506 979 634 q 936 282 979 377 q 820 124 892 186 q 660 31 747 61 q 483 0 572 0 l 115 0 m 365 222 l 491 222 q 563 236 523 222 q 642 283 604 250 q 705 370 680 315 q 730 506 730 425 q 705 639 730 587 q 642 722 680 692 q 563 765 604 752 q 491 777 523 777 l 365 777 l 365 222 m 22 442 l 22 556 l 477 556 l 477 442 l 22 442 z "},"E":{"ha":735,"x_min":84,"x_max":680,"o":"m 84 0 l 84 1000 l 680 1000 l 680 777 l 334 777 l 334 612 l 618 612 l 618 397 l 334 397 l 334 222 l 680 222 l 680 0 l 84 0 z "},"É":{"ha":735,"x_min":84,"x_max":680,"o":"m 84 0 l 84 1000 l 680 1000 l 680 777 l 334 777 l 334 612 l 618 612 l 618 397 l 334 397 l 334 222 l 680 222 l 680 0 l 84 0 m 391 1047 l 293 1145 l 540 1355 l 651 1208 l 391 1047 z "},"Ĕ":{"ha":735,"x_min":84,"x_max":680,"o":"m 84 0 l 84 1000 l 680 1000 l 680 777 l 334 777 l 334 612 l 618 612 l 618 397 l 334 397 l 334 222 l 680 222 l 680 0 l 84 0 m 391 1063 q 257 1090 318 1065 q 158 1165 195 1116 q 121 1291 121 1215 l 262 1291 q 303 1214 263 1238 q 391 1190 343 1190 q 480 1213 441 1190 q 518 1291 520 1236 l 662 1291 q 625 1165 663 1215 q 525 1090 587 1116 q 391 1063 463 1065 z "},"Ě":{"ha":735,"x_min":84,"x_max":680,"o":"m 84 0 l 84 1000 l 680 1000 l 680 777 l 334 777 l 334 612 l 618 612 l 618 397 l 334 397 l 334 222 l 680 222 l 680 0 l 84 0 m 221 1328 l 388 1203 l 391 1203 l 563 1328 l 665 1219 l 412 1047 l 368 1047 l 115 1219 l 221 1328 z "},"Ḝ":{"ha":735,"x_min":84,"x_max":680,"o":"m 84 0 l 84 1000 l 680 1000 l 680 777 l 334 777 l 334 612 l 618 612 l 618 397 l 334 397 l 334 222 l 680 222 l 680 0 l 84 0 m 258 -355 l 258 -241 q 365 -228 333 -243 q 396 -189 396 -212 q 370 -157 396 -170 q 294 -138 345 -143 l 340 0 l 441 0 l 399 -111 l 391 -61 q 496 -106 456 -72 q 536 -199 536 -141 q 470 -313 536 -269 q 258 -355 404 -357 m 391 1063 q 257 1090 318 1065 q 158 1165 195 1116 q 121 1291 121 1215 l 262 1291 q 303 1214 263 1238 q 391 1190 343 1190 q 480 1213 441 1190 q 518 1291 520 1236 l 662 1291 q 625 1165 663 1215 q 525 1090 587 1116 q 391 1063 463 1065 z "},"Ê":{"ha":735,"x_min":84,"x_max":680,"o":"m 84 0 l 84 1000 l 680 1000 l 680 777 l 334 777 l 334 612 l 618 612 l 618 397 l 334 397 l 334 222 l 680 222 l 680 0 l 84 0 m 221 1050 l 115 1158 l 368 1331 l 412 1331 l 665 1158 l 563 1050 l 391 1175 l 388 1175 l 221 1050 z "},"Ế":{"ha":735,"x_min":84,"x_max":859,"o":"m 84 0 l 84 1000 l 680 1000 l 680 777 l 334 777 l 334 612 l 618 612 l 618 397 l 334 397 l 334 222 l 680 222 l 680 0 l 84 0 m 620 1244 l 517 1316 l 747 1549 l 859 1400 l 620 1244 m 220 1039 l 114 1146 l 366 1316 l 411 1316 l 663 1146 l 562 1039 l 389 1164 l 387 1164 l 220 1039 z "},"Ệ":{"ha":735,"x_min":84,"x_max":680,"o":"m 84 0 l 84 1000 l 680 1000 l 680 777 l 334 777 l 334 612 l 618 612 l 618 397 l 334 397 l 334 222 l 680 222 l 680 0 l 84 0 m 396 -357 q 295 -315 336 -357 q 254 -214 254 -273 q 295 -113 254 -153 q 396 -72 336 -72 q 497 -113 456 -72 q 538 -214 538 -153 q 497 -315 538 -273 q 396 -357 456 -357 m 224 1050 l 118 1158 l 370 1331 l 415 1331 l 667 1158 l 566 1050 l 393 1175 l 391 1175 l 224 1050 z "},"Ề":{"ha":735,"x_min":-77,"x_max":680,"o":"m 84 0 l 84 1000 l 680 1000 l 680 777 l 334 777 l 334 612 l 618 612 l 618 397 l 334 397 l 334 222 l 680 222 l 680 0 l 84 0 m 161 1244 l -77 1400 l 34 1549 l 264 1316 l 161 1244 m 562 1039 l 395 1164 l 392 1164 l 220 1039 l 118 1146 l 370 1316 l 415 1316 l 667 1146 l 562 1039 z "},"Ể":{"ha":735,"x_min":84,"x_max":715,"o":"m 84 0 l 84 1000 l 680 1000 l 680 777 l 334 777 l 334 612 l 618 612 l 618 397 l 334 397 l 334 222 l 680 222 l 680 0 l 84 0 m 609 1246 l 526 1308 q 561 1338 548 1323 q 574 1369 574 1352 q 557 1398 574 1388 q 505 1408 541 1408 q 472 1406 488 1408 q 434 1397 456 1403 l 434 1535 q 481 1546 450 1543 q 540 1549 513 1549 q 667 1514 619 1549 q 715 1402 715 1480 q 697 1335 715 1365 q 656 1282 680 1304 q 609 1246 631 1259 m 221 1039 l 115 1146 l 368 1316 l 412 1316 l 665 1146 l 563 1039 l 391 1164 l 388 1164 l 221 1039 z "},"Ễ":{"ha":735,"x_min":84,"x_max":680,"o":"m 84 0 l 84 1000 l 680 1000 l 680 777 l 334 777 l 334 612 l 618 612 l 618 397 l 334 397 l 334 222 l 680 222 l 680 0 l 84 0 m 121 1331 q 164 1488 119 1426 q 290 1549 209 1549 q 356 1537 330 1549 q 400 1510 382 1526 q 435 1483 418 1495 q 471 1472 451 1472 q 506 1493 494 1472 q 518 1549 518 1514 l 662 1549 q 647 1439 663 1489 q 596 1360 631 1390 q 507 1331 562 1331 q 442 1342 468 1331 q 398 1369 416 1354 q 364 1396 380 1385 q 330 1408 349 1408 q 283 1388 302 1408 q 262 1331 263 1369 l 121 1331 m 221 1039 l 115 1146 l 368 1316 l 412 1316 l 665 1146 l 563 1039 l 391 1164 l 388 1164 l 221 1039 z "},"Ȅ":{"ha":735,"x_min":15,"x_max":680,"o":"m 84 0 l 84 1000 l 680 1000 l 680 777 l 334 777 l 334 612 l 618 612 l 618 397 l 334 397 l 334 222 l 680 222 l 680 0 l 84 0 m 199 1055 l 15 1275 l 171 1362 l 319 1114 l 199 1055 m 479 1055 l 298 1275 l 454 1362 l 598 1114 l 479 1055 z "},"Ë":{"ha":735,"x_min":84,"x_max":690,"o":"m 84 0 l 84 1000 l 680 1000 l 680 777 l 334 777 l 334 612 l 618 612 l 618 397 l 334 397 l 334 222 l 680 222 l 680 0 l 84 0 m 566 1044 q 473 1081 511 1044 q 435 1172 435 1118 q 473 1264 435 1226 q 566 1302 511 1302 q 654 1264 618 1302 q 690 1173 690 1226 q 654 1081 690 1118 q 566 1044 618 1044 m 221 1044 q 131 1081 168 1044 q 94 1172 94 1118 q 131 1264 94 1226 q 221 1302 168 1302 q 312 1264 275 1302 q 349 1173 349 1226 q 312 1081 349 1118 q 221 1044 275 1044 z "},"Ė":{"ha":735,"x_min":84,"x_max":680,"o":"m 84 0 l 84 1000 l 680 1000 l 680 777 l 334 777 l 334 612 l 618 612 l 618 397 l 334 397 l 334 222 l 680 222 l 680 0 l 84 0 m 393 1057 q 292 1098 334 1057 q 251 1199 251 1140 q 292 1301 251 1260 q 393 1341 334 1341 q 495 1301 454 1341 q 536 1199 536 1260 q 495 1098 536 1140 q 393 1057 454 1057 z "},"Ẹ":{"ha":735,"x_min":84,"x_max":680,"o":"m 84 0 l 84 1000 l 680 1000 l 680 777 l 334 777 l 334 612 l 618 612 l 618 397 l 334 397 l 334 222 l 680 222 l 680 0 l 84 0 m 393 -357 q 292 -315 334 -357 q 251 -214 251 -273 q 292 -113 251 -153 q 393 -72 334 -72 q 495 -113 454 -72 q 536 -214 536 -153 q 495 -315 536 -273 q 393 -357 454 -357 z "},"È":{"ha":735,"x_min":84,"x_max":680,"o":"m 84 0 l 84 1000 l 680 1000 l 680 777 l 334 777 l 334 612 l 618 612 l 618 397 l 334 397 l 334 222 l 680 222 l 680 0 l 84 0 m 391 1047 l 130 1208 l 241 1355 l 488 1145 l 391 1047 z "},"Ẻ":{"ha":735,"x_min":84,"x_max":680,"o":"m 84 0 l 84 1000 l 680 1000 l 680 777 l 334 777 l 334 612 l 618 612 l 618 397 l 334 397 l 334 222 l 680 222 l 680 0 l 84 0 m 416 1044 l 332 1126 q 366 1155 350 1137 q 382 1191 382 1173 q 362 1218 382 1209 q 311 1226 342 1226 q 279 1224 296 1226 q 244 1214 262 1221 l 244 1351 q 289 1363 258 1359 q 347 1367 320 1367 q 477 1331 429 1367 q 525 1223 525 1294 q 491 1111 525 1158 q 416 1044 456 1064 z "},"Ȇ":{"ha":735,"x_min":84,"x_max":680,"o":"m 84 0 l 84 1000 l 680 1000 l 680 777 l 334 777 l 334 612 l 618 612 l 618 397 l 334 397 l 334 222 l 680 222 l 680 0 l 84 0 m 391 1293 q 525 1265 463 1291 q 625 1191 587 1240 q 662 1065 663 1141 l 518 1065 q 480 1144 520 1121 q 391 1166 441 1166 q 303 1143 343 1166 q 262 1065 263 1119 l 121 1065 q 158 1191 121 1141 q 257 1265 195 1240 q 391 1293 318 1291 z "},"Ē":{"ha":735,"x_min":84,"x_max":680,"o":"m 84 0 l 84 1000 l 680 1000 l 680 777 l 334 777 l 334 612 l 618 612 l 618 397 l 334 397 l 334 222 l 680 222 l 680 0 l 84 0 m 113 1095 l 113 1251 l 667 1251 l 667 1095 l 113 1095 z "},"Ḗ":{"ha":735,"x_min":84,"x_max":680,"o":"m 84 0 l 84 1000 l 680 1000 l 680 777 l 334 777 l 334 612 l 618 612 l 618 397 l 334 397 l 334 222 l 680 222 l 680 0 l 84 0 m 113 1095 l 113 1251 l 667 1251 l 667 1095 l 113 1095 m 391 1298 l 293 1396 l 540 1606 l 651 1459 l 391 1298 z "},"Ḕ":{"ha":735,"x_min":84,"x_max":680,"o":"m 84 0 l 84 1000 l 680 1000 l 680 777 l 334 777 l 334 612 l 618 612 l 618 397 l 334 397 l 334 222 l 680 222 l 680 0 l 84 0 m 113 1095 l 113 1251 l 667 1251 l 667 1095 l 113 1095 m 391 1298 l 130 1459 l 241 1606 l 488 1396 l 391 1298 z "},"Ę":{"ha":735,"x_min":84,"x_max":680,"o":"m 84 0 l 84 1000 l 680 1000 l 680 777 l 334 777 l 334 612 l 618 612 l 618 397 l 334 397 l 334 222 l 680 222 l 680 0 l 84 0 m 564 -297 q 446 -258 491 -297 q 400 -153 400 -219 q 441 -51 400 -95 q 556 37 483 -6 l 678 0 q 612 -41 642 -21 q 564 -82 582 -62 q 545 -125 545 -103 q 560 -154 545 -144 q 606 -164 575 -164 q 646 -160 625 -164 q 678 -151 668 -157 l 678 -281 q 623 -293 658 -289 q 564 -297 588 -297 z "},"Ẽ":{"ha":735,"x_min":84,"x_max":680,"o":"m 84 0 l 84 1000 l 680 1000 l 680 777 l 334 777 l 334 612 l 618 612 l 618 397 l 334 397 l 334 222 l 680 222 l 680 0 l 84 0 m 121 1063 q 165 1220 121 1158 q 290 1280 209 1282 q 357 1271 331 1282 q 402 1244 384 1259 q 436 1217 420 1229 q 471 1206 452 1206 q 509 1227 496 1206 q 521 1280 521 1248 l 662 1280 q 619 1128 663 1189 q 490 1063 574 1067 q 425 1077 450 1065 q 380 1104 399 1089 q 345 1131 361 1120 q 309 1142 329 1142 q 274 1122 285 1142 q 263 1063 263 1101 l 121 1063 z "},"Ə":{"ha":1055,"x_min":45,"x_max":1034,"o":"m 506 -11 q 263 45 367 -11 q 102 200 159 100 q 45 433 45 300 l 45 587 l 798 587 l 798 381 l 281 381 q 310 293 281 331 q 390 233 340 254 q 500 212 439 212 q 615 233 564 212 q 702 294 666 255 q 758 386 739 334 q 777 500 777 439 q 756 618 777 566 q 696 708 734 671 q 604 764 657 745 q 488 784 551 784 q 369 762 422 784 q 281 708 315 740 l 186 930 q 336 991 257 972 q 491 1010 415 1010 q 699 974 601 1010 q 872 869 797 937 q 990 706 947 801 q 1034 495 1034 612 q 995 294 1034 387 q 885 134 956 202 q 718 27 814 65 q 506 -11 621 -11 z "},"F":{"ha":707,"x_min":84,"x_max":680,"o":"m 84 0 l 84 1000 l 680 1000 l 680 777 l 334 777 l 334 578 l 618 578 l 618 355 l 334 355 l 334 0 l 84 0 z "},"G":{"ha":1050,"x_min":22,"x_max":1010,"o":"m 551 -11 q 338 27 435 -11 q 171 134 241 66 q 61 295 100 203 q 22 494 22 387 q 61 696 22 602 q 174 861 101 790 q 346 971 246 931 q 564 1010 445 1010 q 721 991 642 1010 q 869 930 800 972 l 774 708 q 688 761 742 740 q 564 783 633 783 q 417 749 484 783 q 311 652 351 715 q 271 500 271 589 q 292 385 271 437 q 352 293 313 332 q 441 233 390 254 q 555 212 493 212 q 667 233 616 212 q 747 293 718 254 q 777 381 777 331 l 522 381 l 522 586 l 1010 586 l 1010 406 q 954 192 1010 286 q 793 43 897 98 q 551 -11 690 -11 z "},"Ğ":{"ha":1050,"x_min":22,"x_max":1010,"o":"m 551 -11 q 338 27 435 -11 q 171 134 241 66 q 61 295 100 203 q 22 494 22 387 q 61 696 22 602 q 174 861 101 790 q 346 971 246 931 q 564 1010 445 1010 q 721 991 642 1010 q 869 930 800 972 l 774 708 q 688 761 742 740 q 564 783 633 783 q 417 749 484 783 q 311 652 351 715 q 271 500 271 589 q 292 385 271 437 q 352 293 313 332 q 441 233 390 254 q 555 212 493 212 q 667 233 616 212 q 747 293 718 254 q 777 381 777 331 l 522 381 l 522 586 l 1010 586 l 1010 406 q 954 192 1010 286 q 793 43 897 98 q 551 -11 690 -11 m 536 1063 q 402 1090 463 1065 q 303 1165 340 1116 q 266 1291 266 1215 l 407 1291 q 448 1214 408 1238 q 536 1190 488 1190 q 626 1213 586 1190 q 663 1291 665 1236 l 807 1291 q 770 1165 808 1215 q 670 1090 732 1116 q 536 1063 608 1065 z "},"Ǧ":{"ha":1050,"x_min":22,"x_max":1010,"o":"m 551 -11 q 338 27 435 -11 q 171 134 241 66 q 61 295 100 203 q 22 494 22 387 q 61 696 22 602 q 174 861 101 790 q 346 971 246 931 q 564 1010 445 1010 q 721 991 642 1010 q 869 930 800 972 l 774 708 q 688 761 742 740 q 564 783 633 783 q 417 749 484 783 q 311 652 351 715 q 271 500 271 589 q 292 385 271 437 q 352 293 313 332 q 441 233 390 254 q 555 212 493 212 q 667 233 616 212 q 747 293 718 254 q 777 381 777 331 l 522 381 l 522 586 l 1010 586 l 1010 406 q 954 192 1010 286 q 793 43 897 98 q 551 -11 690 -11 m 366 1328 l 533 1203 l 536 1203 l 708 1328 l 810 1219 l 557 1047 l 513 1047 l 260 1219 l 366 1328 z "},"Ĝ":{"ha":1050,"x_min":22,"x_max":1010,"o":"m 551 -11 q 338 27 435 -11 q 171 134 241 66 q 61 295 100 203 q 22 494 22 387 q 61 696 22 602 q 174 861 101 790 q 346 971 246 931 q 564 1010 445 1010 q 721 991 642 1010 q 869 930 800 972 l 774 708 q 688 761 742 740 q 564 783 633 783 q 417 749 484 783 q 311 652 351 715 q 271 500 271 589 q 292 385 271 437 q 352 293 313 332 q 441 233 390 254 q 555 212 493 212 q 667 233 616 212 q 747 293 718 254 q 777 381 777 331 l 522 381 l 522 586 l 1010 586 l 1010 406 q 954 192 1010 286 q 793 43 897 98 q 551 -11 690 -11 m 366 1050 l 260 1158 l 513 1331 l 557 1331 l 810 1158 l 708 1050 l 536 1175 l 533 1175 l 366 1050 z "},"Ģ":{"ha":1050,"x_min":22,"x_max":1010,"o":"m 551 -11 q 338 27 435 -11 q 171 134 241 66 q 61 295 100 203 q 22 494 22 387 q 61 696 22 602 q 174 861 101 790 q 346 971 246 931 q 564 1010 445 1010 q 721 991 642 1010 q 869 930 800 972 l 774 708 q 688 761 742 740 q 564 783 633 783 q 417 749 484 783 q 311 652 351 715 q 271 500 271 589 q 292 385 271 437 q 352 293 313 332 q 441 233 390 254 q 555 212 493 212 q 667 233 616 212 q 747 293 718 254 q 777 381 777 331 l 522 381 l 522 586 l 1010 586 l 1010 406 q 954 192 1010 286 q 793 43 897 98 q 551 -11 690 -11 m 463 -437 l 418 -378 l 486 -328 q 511 -306 495 -321 q 539 -271 527 -290 q 552 -236 552 -252 l 579 -236 q 566 -269 579 -254 q 524 -283 553 -283 q 457 -256 489 -283 q 423 -183 425 -229 q 455 -112 425 -139 q 524 -87 485 -85 q 598 -113 568 -85 q 629 -198 629 -141 q 613 -279 629 -243 q 574 -339 596 -314 q 534 -378 551 -364 l 463 -437 z "},"Ġ":{"ha":1050,"x_min":22,"x_max":1010,"o":"m 551 -11 q 338 27 435 -11 q 171 134 241 66 q 61 295 100 203 q 22 494 22 387 q 61 696 22 602 q 174 861 101 790 q 346 971 246 931 q 564 1010 445 1010 q 721 991 642 1010 q 869 930 800 972 l 774 708 q 688 761 742 740 q 564 783 633 783 q 417 749 484 783 q 311 652 351 715 q 271 500 271 589 q 292 385 271 437 q 352 293 313 332 q 441 233 390 254 q 555 212 493 212 q 667 233 616 212 q 747 293 718 254 q 777 381 777 331 l 522 381 l 522 586 l 1010 586 l 1010 406 q 954 192 1010 286 q 793 43 897 98 q 551 -11 690 -11 m 538 1057 q 437 1098 479 1057 q 396 1199 396 1140 q 437 1301 396 1260 q 538 1341 479 1341 q 640 1301 599 1341 q 681 1199 681 1260 q 640 1098 681 1140 q 538 1057 599 1057 z "},"Ḡ":{"ha":1050,"x_min":22,"x_max":1010,"o":"m 551 -11 q 338 27 435 -11 q 171 134 241 66 q 61 295 100 203 q 22 494 22 387 q 61 696 22 602 q 174 861 101 790 q 346 971 246 931 q 564 1010 445 1010 q 721 991 642 1010 q 869 930 800 972 l 774 708 q 688 761 742 740 q 564 783 633 783 q 417 749 484 783 q 311 652 351 715 q 271 500 271 589 q 292 385 271 437 q 352 293 313 332 q 441 233 390 254 q 555 212 493 212 q 667 233 616 212 q 747 293 718 254 q 777 381 777 331 l 522 381 l 522 586 l 1010 586 l 1010 406 q 954 192 1010 286 q 793 43 897 98 q 551 -11 690 -11 m 258 1095 l 258 1251 l 812 1251 l 812 1095 l 258 1095 z "},"H":{"ha":1035,"x_min":84,"x_max":951,"o":"m 84 0 l 84 1000 l 334 1000 l 334 614 l 701 614 l 701 1000 l 951 1000 l 951 0 l 701 0 l 701 392 l 334 392 l 334 0 l 84 0 z "},"Ħ":{"ha":1169,"x_min":20,"x_max":1134,"o":"m 20 739 l 20 867 l 1134 867 l 1134 739 l 20 739 m 145 0 l 145 1000 l 395 1000 l 395 614 l 762 614 l 762 1000 l 1012 1000 l 1012 0 l 762 0 l 762 392 l 395 392 l 395 0 l 145 0 z "},"Ḫ":{"ha":1035,"x_min":84,"x_max":951,"o":"m 84 0 l 84 1000 l 334 1000 l 334 614 l 701 614 l 701 1000 l 951 1000 l 951 0 l 701 0 l 701 392 l 334 392 l 334 0 l 84 0 m 518 -319 q 379 -287 441 -319 q 281 -201 317 -255 q 245 -80 245 -147 l 389 -80 q 428 -159 391 -127 q 518 -191 465 -191 q 609 -159 572 -191 q 646 -80 646 -127 l 789 -80 q 754 -201 790 -147 q 656 -287 718 -255 q 518 -319 595 -319 z "},"Ĥ":{"ha":1035,"x_min":84,"x_max":951,"o":"m 84 0 l 84 1000 l 334 1000 l 334 614 l 701 614 l 701 1000 l 951 1000 l 951 0 l 701 0 l 701 392 l 334 392 l 334 0 l 84 0 m 349 1050 l 243 1158 l 495 1331 l 540 1331 l 792 1158 l 690 1050 l 518 1175 l 515 1175 l 349 1050 z "},"Ḥ":{"ha":1035,"x_min":84,"x_max":951,"o":"m 84 0 l 84 1000 l 334 1000 l 334 614 l 701 614 l 701 1000 l 951 1000 l 951 0 l 701 0 l 701 392 l 334 392 l 334 0 l 84 0 m 518 -357 q 417 -315 458 -357 q 376 -214 376 -273 q 417 -113 376 -153 q 518 -72 458 -72 q 620 -113 578 -72 q 661 -214 661 -153 q 620 -315 661 -273 q 518 -357 578 -357 z "},"I":{"ha":450,"x_min":100,"x_max":350,"o":"m 100 0 l 100 1000 l 350 1000 l 350 0 l 100 0 z "},"Í":{"ha":450,"x_min":100,"x_max":486,"o":"m 100 0 l 100 1000 l 350 1000 l 350 0 l 100 0 m 225 1047 l 127 1145 l 374 1355 l 486 1208 l 225 1047 z "},"Ĭ":{"ha":472,"x_min":-34,"x_max":508,"o":"m 111 0 l 111 1000 l 361 1000 l 361 0 l 111 0 m 236 1063 q 102 1090 163 1065 q 3 1165 41 1116 q -34 1291 -34 1215 l 107 1291 q 149 1214 109 1238 q 236 1190 189 1190 q 326 1213 286 1190 q 363 1291 366 1236 l 507 1291 q 470 1165 508 1215 q 370 1090 432 1116 q 236 1063 308 1065 z "},"Ǐ":{"ha":472,"x_min":-39,"x_max":510,"o":"m 111 0 l 111 1000 l 361 1000 l 361 0 l 111 0 m 66 1328 l 233 1203 l 236 1203 l 408 1328 l 510 1219 l 258 1047 l 213 1047 l -39 1219 l 66 1328 z "},"Î":{"ha":472,"x_min":-39,"x_max":510,"o":"m 111 0 l 111 1000 l 361 1000 l 361 0 l 111 0 m 66 1050 l -39 1158 l 213 1331 l 258 1331 l 510 1158 l 408 1050 l 236 1175 l 233 1175 l 66 1050 z "},"Ȉ":{"ha":472,"x_min":-140,"x_max":444,"o":"m 111 0 l 111 1000 l 361 1000 l 361 0 l 111 0 m 45 1055 l -140 1275 l 16 1362 l 164 1114 l 45 1055 m 324 1055 l 144 1275 l 300 1362 l 444 1114 l 324 1055 z "},"Ï":{"ha":519,"x_min":-37,"x_max":560,"o":"m 136 0 l 136 1000 l 385 1000 l 385 0 l 136 0 m 435 1044 q 343 1081 381 1044 q 305 1172 305 1118 q 343 1264 305 1226 q 435 1302 381 1302 q 524 1264 488 1302 q 560 1173 560 1226 q 524 1081 560 1118 q 435 1044 488 1044 m 91 1044 q 0 1081 37 1044 q -37 1172 -37 1118 q 0 1264 -37 1226 q 91 1302 37 1302 q 181 1264 144 1302 q 218 1173 218 1226 q 181 1081 218 1118 q 91 1044 144 1044 z "},"Ḯ":{"ha":519,"x_min":-37,"x_max":560,"o":"m 136 0 l 136 1000 l 385 1000 l 385 0 l 136 0 m 435 1044 q 343 1081 381 1044 q 305 1172 305 1118 q 343 1264 305 1226 q 435 1302 381 1302 q 524 1264 488 1302 q 560 1173 560 1226 q 524 1081 560 1118 q 435 1044 488 1044 m 91 1044 q 0 1081 37 1044 q -37 1172 -37 1118 q 0 1264 -37 1226 q 91 1302 37 1302 q 181 1264 144 1302 q 218 1173 218 1226 q 181 1081 218 1118 q 91 1044 144 1044 m 260 1303 l 163 1401 l 410 1611 l 521 1465 l 260 1303 z "},"İ":{"ha":450,"x_min":85,"x_max":370,"o":"m 100 0 l 100 1000 l 350 1000 l 350 0 l 100 0 m 228 1057 q 127 1098 168 1057 q 85 1199 85 1140 q 127 1301 85 1260 q 228 1341 168 1341 q 329 1301 288 1341 q 370 1199 370 1260 q 329 1098 370 1140 q 228 1057 288 1057 z "},"Ị":{"ha":450,"x_min":83,"x_max":368,"o":"m 100 0 l 100 1000 l 350 1000 l 350 0 l 100 0 m 225 -357 q 124 -315 165 -357 q 83 -214 83 -273 q 124 -113 83 -153 q 225 -72 165 -72 q 327 -113 286 -72 q 368 -214 368 -153 q 327 -315 368 -273 q 225 -357 286 -357 z "},"Ì":{"ha":450,"x_min":-35,"x_max":350,"o":"m 100 0 l 100 1000 l 350 1000 l 350 0 l 100 0 m 225 1047 l -35 1208 l 76 1355 l 323 1145 l 225 1047 z "},"Ỉ":{"ha":450,"x_min":79,"x_max":359,"o":"m 100 0 l 100 1000 l 350 1000 l 350 0 l 100 0 m 251 1044 l 167 1126 q 201 1155 184 1137 q 217 1191 217 1173 q 197 1218 217 1209 q 145 1226 177 1226 q 113 1224 130 1226 q 79 1214 96 1221 l 79 1351 q 124 1363 93 1359 q 182 1367 155 1367 q 311 1331 263 1367 q 359 1223 359 1294 q 325 1111 359 1158 q 251 1044 291 1064 z "},"Ȋ":{"ha":519,"x_min":-9,"x_max":532,"o":"m 136 0 l 136 1000 l 385 1000 l 385 0 l 136 0 m 260 1293 q 394 1265 332 1291 q 494 1191 456 1240 q 532 1065 532 1141 l 388 1065 q 350 1144 390 1121 q 260 1166 311 1166 q 173 1143 213 1166 q 132 1065 133 1119 l -9 1065 q 28 1191 -9 1141 q 126 1265 65 1240 q 260 1293 188 1291 z "},"Ī":{"ha":519,"x_min":10,"x_max":509,"o":"m 136 0 l 136 1000 l 385 1000 l 385 0 l 136 0 m 10 1095 l 10 1251 l 509 1251 l 509 1095 l 10 1095 z "},"Į":{"ha":450,"x_min":71,"x_max":350,"o":"m 100 0 l 100 1000 l 350 1000 l 350 0 l 100 0 m 235 -297 q 116 -258 161 -297 q 71 -153 71 -219 q 112 -51 71 -95 q 227 37 153 -6 l 349 0 q 282 -41 313 -21 q 234 -82 252 -62 q 216 -125 216 -103 q 231 -154 216 -144 q 277 -164 245 -164 q 317 -160 295 -164 q 349 -151 338 -157 l 349 -281 q 293 -293 328 -289 q 235 -297 258 -297 z "},"Ĩ":{"ha":530,"x_min":-4,"x_max":538,"o":"m 141 0 l 141 1000 l 391 1000 l 391 0 l 141 0 m -4 1063 q 40 1220 -4 1158 q 165 1280 84 1282 q 233 1271 206 1282 q 277 1244 259 1259 q 311 1217 296 1229 q 346 1206 327 1206 q 384 1227 372 1206 q 396 1280 396 1248 l 537 1280 q 494 1128 538 1189 q 365 1063 450 1067 q 300 1077 326 1065 q 255 1104 274 1089 q 220 1131 237 1120 q 184 1142 204 1142 q 149 1122 160 1142 q 138 1063 138 1101 l -4 1063 z "},"J":{"ha":754,"x_min":5,"x_max":670,"o":"m 336 -11 q 160 32 235 -11 q 46 153 86 75 q 5 336 5 231 l 239 336 q 264 245 239 279 q 331 212 290 212 q 377 224 357 212 q 408 260 397 237 q 419 313 419 283 l 419 1000 l 670 1000 l 670 316 q 629 143 670 216 q 512 29 587 69 q 336 -11 437 -11 z "},"Ĵ":{"ha":765,"x_min":5,"x_max":812,"o":"m 336 -11 q 160 32 235 -11 q 46 153 86 75 q 5 336 5 231 l 239 336 q 264 245 239 279 q 331 212 290 212 q 377 224 357 212 q 408 260 397 237 q 419 313 419 283 l 419 1000 l 670 1000 l 670 316 q 629 143 670 216 q 512 29 587 69 q 336 -11 437 -11 m 369 1050 l 263 1158 l 515 1331 l 560 1331 l 812 1158 l 711 1050 l 538 1175 l 536 1175 l 369 1050 z "},"K":{"ha":954,"x_min":84,"x_max":960,"o":"m 84 0 l 84 1000 l 334 1000 l 334 562 l 393 562 l 312 525 l 648 1000 l 948 1000 l 526 439 l 526 575 l 960 0 l 662 0 l 312 469 l 393 433 l 334 433 l 334 0 l 84 0 z "},"Ķ":{"ha":954,"x_min":84,"x_max":960,"o":"m 84 0 l 84 1000 l 334 1000 l 334 562 l 393 562 l 312 525 l 648 1000 l 948 1000 l 526 439 l 526 575 l 960 0 l 662 0 l 312 469 l 393 433 l 334 433 l 334 0 l 84 0 m 416 -437 l 372 -378 l 439 -328 q 465 -306 449 -321 q 493 -271 481 -290 q 506 -236 506 -252 l 533 -236 q 520 -269 533 -254 q 477 -283 507 -283 q 411 -256 443 -283 q 377 -183 378 -229 q 409 -112 378 -139 q 477 -87 439 -85 q 552 -113 522 -85 q 583 -198 583 -141 q 567 -279 583 -243 q 528 -339 550 -314 q 488 -378 505 -364 l 416 -437 z "},"L":{"ha":682,"x_min":84,"x_max":677,"o":"m 84 0 l 84 1000 l 334 1000 l 334 222 l 677 222 l 677 0 l 84 0 z "},"Ǉ":{"ha":1436,"x_min":84,"x_max":1352,"o":"m 84 0 l 84 1000 l 334 1000 l 334 222 l 677 222 l 677 0 l 84 0 m 1019 -11 q 843 32 917 -11 q 728 153 768 75 q 688 336 688 231 l 921 336 q 946 245 921 279 q 1013 212 972 212 q 1059 224 1040 212 q 1090 260 1079 237 q 1101 313 1101 283 l 1101 1000 l 1352 1000 l 1352 316 q 1311 143 1352 216 q 1195 29 1270 69 q 1019 -11 1120 -11 z "},"Ĺ":{"ha":682,"x_min":84,"x_max":677,"o":"m 84 0 l 84 1000 l 334 1000 l 334 222 l 677 222 l 677 0 l 84 0 m 216 1047 l 118 1145 l 365 1355 l 476 1208 l 216 1047 z "},"Ľ":{"ha":682,"x_min":84,"x_max":707,"o":"m 84 0 l 84 1000 l 334 1000 l 334 222 l 677 222 l 677 0 l 84 0 m 514 642 l 517 1000 l 707 1000 l 681 642 l 514 642 z "},"Ļ":{"ha":682,"x_min":84,"x_max":677,"o":"m 84 0 l 84 1000 l 334 1000 l 334 222 l 677 222 l 677 0 l 84 0 m 315 -437 l 270 -378 l 338 -328 q 363 -306 347 -321 q 392 -271 379 -290 q 404 -236 404 -252 l 431 -236 q 418 -269 431 -254 q 376 -283 406 -283 q 309 -256 341 -283 q 275 -183 277 -229 q 307 -112 277 -139 q 376 -87 337 -85 q 451 -113 420 -85 q 481 -198 481 -141 q 465 -279 481 -243 q 426 -339 448 -314 q 387 -378 404 -364 l 315 -437 z "},"Ŀ":{"ha":799,"x_min":84,"x_max":753,"o":"m 84 0 l 84 1000 l 334 1000 l 334 222 l 677 222 l 677 0 l 84 0 m 615 363 q 516 404 557 363 q 476 502 476 444 q 516 600 476 560 q 614 640 557 640 q 713 600 673 640 q 753 503 753 560 q 713 404 753 444 q 615 363 673 363 z "},"Ḷ":{"ha":682,"x_min":84,"x_max":677,"o":"m 84 0 l 84 1000 l 334 1000 l 334 222 l 677 222 l 677 0 l 84 0 m 388 -357 q 287 -315 328 -357 q 245 -214 245 -273 q 287 -113 245 -153 q 388 -72 328 -72 q 489 -113 448 -72 q 530 -214 530 -153 q 489 -315 530 -273 q 388 -357 448 -357 z "},"ǈ":{"ha":1077,"x_min":84,"x_max":1034,"o":"m 84 0 l 84 1000 l 334 1000 l 334 222 l 677 222 l 677 0 l 84 0 m 735 -301 q 682 -298 711 -301 q 629 -290 654 -295 l 629 -76 q 663 -85 645 -83 q 696 -88 682 -88 q 755 -69 738 -88 q 772 -23 772 -50 l 772 732 l 1013 732 l 1013 -7 q 983 -158 1013 -92 q 891 -263 953 -224 q 735 -301 829 -301 m 891 807 q 790 849 831 807 q 749 949 749 890 q 790 1051 749 1010 q 891 1092 831 1092 q 992 1051 951 1092 q 1034 949 1034 1010 q 992 849 1034 890 q 891 807 951 807 z "},"Ḻ":{"ha":682,"x_min":84,"x_max":680,"o":"m 84 0 l 84 1000 l 334 1000 l 334 222 l 677 222 l 677 0 l 84 0 m 96 -289 l 96 -145 l 680 -145 l 680 -289 l 96 -289 z "},"Ł":{"ha":718,"x_min":-45,"x_max":712,"o":"m 14 315 l -45 437 l 151 545 l 335 632 l 472 713 l 530 591 l 335 483 l 151 396 l 14 315 m 119 0 l 119 1000 l 369 1000 l 369 222 l 712 222 l 712 0 l 119 0 z "},"M":{"ha":1223,"x_min":84,"x_max":1139,"o":"m 84 0 l 84 1000 l 266 1000 l 609 556 l 614 556 l 958 1000 l 1139 1000 l 1139 0 l 890 0 l 890 273 l 895 553 l 890 553 l 633 209 l 590 209 l 334 553 l 328 553 l 334 273 l 334 0 l 84 0 z "},"Ṃ":{"ha":1223,"x_min":84,"x_max":1139,"o":"m 84 0 l 84 1000 l 266 1000 l 609 556 l 614 556 l 958 1000 l 1139 1000 l 1139 0 l 890 0 l 890 273 l 895 553 l 890 553 l 633 209 l 590 209 l 334 553 l 328 553 l 334 273 l 334 0 l 84 0 m 614 -357 q 513 -315 555 -357 q 472 -214 472 -273 q 513 -113 472 -153 q 614 -72 555 -72 q 716 -113 675 -72 q 757 -214 757 -153 q 716 -315 757 -273 q 614 -357 675 -357 z "},"N":{"ha":1058,"x_min":84,"x_max":974,"o":"m 84 0 l 84 1000 l 266 1000 l 658 528 l 724 439 l 731 439 l 724 647 l 724 1000 l 974 1000 l 974 0 l 791 0 l 401 483 l 335 575 l 330 575 l 334 353 l 334 0 l 84 0 z "},"Ǌ":{"ha":1812,"x_min":84,"x_max":1728,"o":"m 84 0 l 84 1000 l 266 1000 l 658 528 l 724 439 l 731 439 l 724 647 l 724 1000 l 974 1000 l 974 0 l 791 0 l 401 483 l 335 575 l 330 575 l 334 353 l 334 0 l 84 0 m 1394 -11 q 1218 32 1293 -11 q 1104 153 1144 75 q 1063 336 1063 231 l 1297 336 q 1322 245 1297 279 q 1389 212 1348 212 q 1435 224 1415 212 q 1466 260 1455 237 q 1477 313 1477 283 l 1477 1000 l 1728 1000 l 1728 316 q 1687 143 1728 216 q 1570 29 1645 69 q 1394 -11 1495 -11 z "},"Ń":{"ha":1058,"x_min":84,"x_max":974,"o":"m 84 0 l 84 1000 l 266 1000 l 658 528 l 724 439 l 731 439 l 724 647 l 724 1000 l 974 1000 l 974 0 l 791 0 l 401 483 l 335 575 l 330 575 l 334 353 l 334 0 l 84 0 m 529 1047 l 431 1145 l 678 1355 l 789 1208 l 529 1047 z "},"Ň":{"ha":1058,"x_min":84,"x_max":974,"o":"m 84 0 l 84 1000 l 266 1000 l 658 528 l 724 439 l 731 439 l 724 647 l 724 1000 l 974 1000 l 974 0 l 791 0 l 401 483 l 335 575 l 330 575 l 334 353 l 334 0 l 84 0 m 359 1328 l 526 1203 l 529 1203 l 701 1328 l 803 1219 l 551 1047 l 506 1047 l 254 1219 l 359 1328 z "},"Ņ":{"ha":1058,"x_min":84,"x_max":974,"o":"m 84 0 l 84 1000 l 266 1000 l 658 528 l 724 439 l 731 439 l 724 647 l 724 1000 l 974 1000 l 974 0 l 791 0 l 401 483 l 335 575 l 330 575 l 334 353 l 334 0 l 84 0 m 453 -437 l 408 -378 l 476 -328 q 502 -306 486 -321 q 530 -271 517 -290 q 543 -236 543 -252 l 570 -236 q 557 -269 570 -254 q 514 -283 544 -283 q 447 -256 479 -283 q 414 -183 415 -229 q 445 -112 415 -139 q 514 -87 475 -85 q 589 -113 558 -85 q 620 -198 620 -141 q 603 -279 620 -243 q 564 -339 587 -314 q 525 -378 542 -364 l 453 -437 z "},"Ṅ":{"ha":1058,"x_min":84,"x_max":974,"o":"m 84 0 l 84 1000 l 266 1000 l 658 528 l 724 439 l 731 439 l 724 647 l 724 1000 l 974 1000 l 974 0 l 791 0 l 401 483 l 335 575 l 330 575 l 334 353 l 334 0 l 84 0 m 532 1057 q 431 1098 472 1057 q 389 1199 389 1140 q 431 1301 389 1260 q 532 1341 472 1341 q 633 1301 592 1341 q 674 1199 674 1260 q 633 1098 674 1140 q 532 1057 592 1057 z "},"Ṇ":{"ha":1058,"x_min":84,"x_max":974,"o":"m 84 0 l 84 1000 l 266 1000 l 658 528 l 724 439 l 731 439 l 724 647 l 724 1000 l 974 1000 l 974 0 l 791 0 l 401 483 l 335 575 l 330 575 l 334 353 l 334 0 l 84 0 m 526 -357 q 425 -315 467 -357 q 384 -214 384 -273 q 425 -113 384 -153 q 526 -72 467 -72 q 628 -113 587 -72 q 669 -214 669 -153 q 628 -315 669 -273 q 526 -357 587 -357 z "},"ǋ":{"ha":1436,"x_min":84,"x_max":1393,"o":"m 84 0 l 84 1000 l 266 1000 l 658 528 l 724 439 l 731 439 l 724 647 l 724 1000 l 974 1000 l 974 0 l 791 0 l 401 483 l 335 575 l 330 575 l 334 353 l 334 0 l 84 0 m 1095 -301 q 1042 -298 1070 -301 q 989 -290 1013 -295 l 989 -76 q 1023 -85 1004 -83 q 1055 -88 1041 -88 q 1114 -69 1097 -88 q 1131 -23 1131 -50 l 1131 732 l 1373 732 l 1373 -7 q 1342 -158 1373 -92 q 1251 -263 1312 -224 q 1095 -301 1189 -301 m 1251 807 q 1149 849 1191 807 q 1108 949 1108 890 q 1149 1051 1108 1010 q 1251 1092 1191 1092 q 1352 1051 1311 1092 q 1393 949 1393 1010 q 1352 849 1393 890 q 1251 807 1311 807 z "},"Ṉ":{"ha":1058,"x_min":84,"x_max":974,"o":"m 84 0 l 84 1000 l 266 1000 l 658 528 l 724 439 l 731 439 l 724 647 l 724 1000 l 974 1000 l 974 0 l 791 0 l 401 483 l 335 575 l 330 575 l 334 353 l 334 0 l 84 0 m 235 -289 l 235 -145 l 818 -145 l 818 -289 l 235 -289 z "},"Ñ":{"ha":1058,"x_min":84,"x_max":974,"o":"m 84 0 l 84 1000 l 266 1000 l 658 528 l 724 439 l 731 439 l 724 647 l 724 1000 l 974 1000 l 974 0 l 791 0 l 401 483 l 335 575 l 330 575 l 334 353 l 334 0 l 84 0 m 259 1063 q 303 1220 259 1158 q 429 1280 347 1282 q 496 1271 469 1282 q 541 1244 522 1259 q 574 1217 559 1229 q 609 1206 590 1206 q 647 1227 635 1206 q 659 1280 659 1248 l 800 1280 q 757 1128 802 1189 q 628 1063 713 1067 q 563 1077 589 1065 q 518 1104 537 1089 q 484 1131 500 1120 q 448 1142 467 1142 q 412 1122 423 1142 q 401 1063 401 1101 l 259 1063 z "},"Ŋ":{"ha":1058,"x_min":84,"x_max":974,"o":"m 677 -302 q 603 -297 640 -302 q 552 -283 566 -292 l 552 -77 q 601 -91 576 -86 q 643 -95 627 -95 q 708 -75 684 -95 q 732 -22 732 -55 l 732 83 l 974 114 l 974 -8 q 941 -159 974 -93 q 843 -264 909 -226 q 677 -302 777 -302 m 84 0 l 84 1000 l 266 1000 l 658 528 l 724 439 l 731 439 l 724 647 l 724 1000 l 974 1000 l 974 0 l 791 0 l 401 483 l 335 575 l 330 575 l 334 353 l 334 0 l 84 0 z "},"O":{"ha":1088,"x_min":22,"x_max":1066,"o":"m 545 -11 q 342 28 437 -11 q 175 138 247 68 q 62 301 103 208 q 22 500 22 394 q 62 700 22 608 q 175 862 103 793 q 342 971 247 932 q 545 1010 437 1010 q 750 971 655 1010 q 916 862 844 932 q 1026 700 987 793 q 1066 500 1066 608 q 1026 301 1066 394 q 916 138 987 208 q 750 28 844 68 q 545 -11 655 -11 m 544 217 q 650 239 601 217 q 737 300 700 261 q 795 390 774 338 q 817 500 817 441 q 795 611 817 560 q 737 701 774 663 q 650 761 700 739 q 544 783 601 783 q 437 761 487 783 q 351 701 388 739 q 292 611 313 663 q 271 500 271 560 q 292 390 271 441 q 351 300 313 338 q 437 239 388 261 q 544 217 487 217 z "},"Ó":{"ha":1088,"x_min":22,"x_max":1066,"o":"m 545 -11 q 342 28 437 -11 q 175 138 247 68 q 62 301 103 208 q 22 500 22 394 q 62 700 22 608 q 175 862 103 793 q 342 971 247 932 q 545 1010 437 1010 q 750 971 655 1010 q 916 862 844 932 q 1026 700 987 793 q 1066 500 1066 608 q 1026 301 1066 394 q 916 138 987 208 q 750 28 844 68 q 545 -11 655 -11 m 544 217 q 650 239 601 217 q 737 300 700 261 q 795 390 774 338 q 817 500 817 441 q 795 611 817 560 q 737 701 774 663 q 650 761 700 739 q 544 783 601 783 q 437 761 487 783 q 351 701 388 739 q 292 611 313 663 q 271 500 271 560 q 292 390 271 441 q 351 300 313 338 q 437 239 388 261 q 544 217 487 217 m 544 1047 l 446 1145 l 693 1355 l 804 1208 l 544 1047 z "},"Ŏ":{"ha":1088,"x_min":22,"x_max":1066,"o":"m 545 -11 q 342 28 437 -11 q 175 138 247 68 q 62 301 103 208 q 22 500 22 394 q 62 700 22 608 q 175 862 103 793 q 342 971 247 932 q 545 1010 437 1010 q 750 971 655 1010 q 916 862 844 932 q 1026 700 987 793 q 1066 500 1066 608 q 1026 301 1066 394 q 916 138 987 208 q 750 28 844 68 q 545 -11 655 -11 m 544 217 q 650 239 601 217 q 737 300 700 261 q 795 390 774 338 q 817 500 817 441 q 795 611 817 560 q 737 701 774 663 q 650 761 700 739 q 544 783 601 783 q 437 761 487 783 q 351 701 388 739 q 292 611 313 663 q 271 500 271 560 q 292 390 271 441 q 351 300 313 338 q 437 239 388 261 q 544 217 487 217 m 544 1063 q 410 1090 471 1065 q 311 1165 349 1116 q 274 1291 274 1215 l 415 1291 q 456 1214 416 1238 q 544 1190 496 1190 q 634 1213 594 1190 q 671 1291 673 1236 l 815 1291 q 778 1165 816 1215 q 678 1090 740 1116 q 544 1063 616 1065 z "},"Ô":{"ha":1088,"x_min":22,"x_max":1066,"o":"m 545 -11 q 342 28 437 -11 q 175 138 247 68 q 62 301 103 208 q 22 500 22 394 q 62 700 22 608 q 175 862 103 793 q 342 971 247 932 q 545 1010 437 1010 q 750 971 655 1010 q 916 862 844 932 q 1026 700 987 793 q 1066 500 1066 608 q 1026 301 1066 394 q 916 138 987 208 q 750 28 844 68 q 545 -11 655 -11 m 544 217 q 650 239 601 217 q 737 300 700 261 q 795 390 774 338 q 817 500 817 441 q 795 611 817 560 q 737 701 774 663 q 650 761 700 739 q 544 783 601 783 q 437 761 487 783 q 351 701 388 739 q 292 611 313 663 q 271 500 271 560 q 292 390 271 441 q 351 300 313 338 q 437 239 388 261 q 544 217 487 217 m 374 1050 l 269 1158 l 521 1331 l 566 1331 l 818 1158 l 716 1050 l 544 1175 l 541 1175 l 374 1050 z "},"Ố":{"ha":1088,"x_min":22,"x_max":1066,"o":"m 545 -11 q 342 28 437 -11 q 175 138 247 68 q 62 301 103 208 q 22 500 22 394 q 62 700 22 608 q 175 862 103 793 q 342 971 247 932 q 545 1010 437 1010 q 750 971 655 1010 q 916 862 844 932 q 1026 700 987 793 q 1066 500 1066 608 q 1026 301 1066 394 q 916 138 987 208 q 750 28 844 68 q 545 -11 655 -11 m 544 217 q 650 239 601 217 q 737 300 700 261 q 795 390 774 338 q 817 500 817 441 q 795 611 817 560 q 737 701 774 663 q 650 761 700 739 q 544 783 601 783 q 437 761 487 783 q 351 701 388 739 q 292 611 313 663 q 271 500 271 560 q 292 390 271 441 q 351 300 313 338 q 437 239 388 261 q 544 217 487 217 m 773 1244 l 670 1316 l 901 1549 l 1012 1400 l 773 1244 m 373 1039 l 267 1146 l 519 1316 l 564 1316 l 817 1146 l 715 1039 l 543 1164 l 540 1164 l 373 1039 z "},"Ộ":{"ha":1088,"x_min":22,"x_max":1066,"o":"m 545 -11 q 342 28 437 -11 q 175 138 247 68 q 62 301 103 208 q 22 500 22 394 q 62 700 22 608 q 175 862 103 793 q 342 971 247 932 q 545 1010 437 1010 q 750 971 655 1010 q 916 862 844 932 q 1026 700 987 793 q 1066 500 1066 608 q 1026 301 1066 394 q 916 138 987 208 q 750 28 844 68 q 545 -11 655 -11 m 544 217 q 650 239 601 217 q 737 300 700 261 q 795 390 774 338 q 817 500 817 441 q 795 611 817 560 q 737 701 774 663 q 650 761 700 739 q 544 783 601 783 q 437 761 487 783 q 351 701 388 739 q 292 611 313 663 q 271 500 271 560 q 292 390 271 441 q 351 300 313 338 q 437 239 388 261 q 544 217 487 217 m 547 -357 q 446 -315 487 -357 q 404 -214 404 -273 q 446 -113 404 -153 q 547 -72 487 -72 q 648 -113 607 -72 q 689 -214 689 -153 q 648 -315 689 -273 q 547 -357 607 -357 m 374 1050 l 269 1158 l 521 1331 l 566 1331 l 818 1158 l 716 1050 l 544 1175 l 541 1175 l 374 1050 z "},"Ồ":{"ha":1088,"x_min":22,"x_max":1066,"o":"m 545 -11 q 342 28 437 -11 q 175 138 247 68 q 62 301 103 208 q 22 500 22 394 q 62 700 22 608 q 175 862 103 793 q 342 971 247 932 q 545 1010 437 1010 q 750 971 655 1010 q 916 862 844 932 q 1026 700 987 793 q 1066 500 1066 608 q 1026 301 1066 394 q 916 138 987 208 q 750 28 844 68 q 545 -11 655 -11 m 544 217 q 650 239 601 217 q 737 300 700 261 q 795 390 774 338 q 817 500 817 441 q 795 611 817 560 q 737 701 774 663 q 650 761 700 739 q 544 783 601 783 q 437 761 487 783 q 351 701 388 739 q 292 611 313 663 q 271 500 271 560 q 292 390 271 441 q 351 300 313 338 q 437 239 388 261 q 544 217 487 217 m 315 1244 l 76 1400 l 187 1549 l 418 1316 l 315 1244 m 715 1039 l 548 1164 l 545 1164 l 373 1039 l 271 1146 l 524 1316 l 568 1316 l 821 1146 l 715 1039 z "},"Ổ":{"ha":1088,"x_min":22,"x_max":1066,"o":"m 545 -11 q 342 28 437 -11 q 175 138 247 68 q 62 301 103 208 q 22 500 22 394 q 62 700 22 608 q 175 862 103 793 q 342 971 247 932 q 545 1010 437 1010 q 750 971 655 1010 q 916 862 844 932 q 1026 700 987 793 q 1066 500 1066 608 q 1026 301 1066 394 q 916 138 987 208 q 750 28 844 68 q 545 -11 655 -11 m 544 217 q 650 239 601 217 q 737 300 700 261 q 795 390 774 338 q 817 500 817 441 q 795 611 817 560 q 737 701 774 663 q 650 761 700 739 q 544 783 601 783 q 437 761 487 783 q 351 701 388 739 q 292 611 313 663 q 271 500 271 560 q 292 390 271 441 q 351 300 313 338 q 437 239 388 261 q 544 217 487 217 m 762 1246 l 680 1308 q 714 1338 701 1323 q 727 1369 727 1352 q 710 1398 727 1388 q 658 1408 694 1408 q 625 1406 641 1408 q 587 1397 609 1403 l 587 1535 q 635 1546 603 1543 q 693 1549 667 1549 q 820 1514 772 1549 q 868 1402 868 1480 q 851 1335 868 1365 q 809 1282 833 1304 q 762 1246 785 1259 m 374 1039 l 269 1146 l 521 1316 l 566 1316 l 818 1146 l 716 1039 l 544 1164 l 541 1164 l 374 1039 z "},"Ỗ":{"ha":1088,"x_min":22,"x_max":1066,"o":"m 545 -11 q 342 28 437 -11 q 175 138 247 68 q 62 301 103 208 q 22 500 22 394 q 62 700 22 608 q 175 862 103 793 q 342 971 247 932 q 545 1010 437 1010 q 750 971 655 1010 q 916 862 844 932 q 1026 700 987 793 q 1066 500 1066 608 q 1026 301 1066 394 q 916 138 987 208 q 750 28 844 68 q 545 -11 655 -11 m 544 217 q 650 239 601 217 q 737 300 700 261 q 795 390 774 338 q 817 500 817 441 q 795 611 817 560 q 737 701 774 663 q 650 761 700 739 q 544 783 601 783 q 437 761 487 783 q 351 701 388 739 q 292 611 313 663 q 271 500 271 560 q 292 390 271 441 q 351 300 313 338 q 437 239 388 261 q 544 217 487 217 m 274 1331 q 317 1488 272 1426 q 444 1549 362 1549 q 509 1537 484 1549 q 553 1510 535 1526 q 588 1483 572 1495 q 624 1472 604 1472 q 660 1493 648 1472 q 671 1549 671 1514 l 815 1549 q 800 1439 816 1489 q 749 1360 784 1390 q 661 1331 715 1331 q 595 1342 621 1331 q 551 1369 569 1354 q 517 1396 533 1385 q 483 1408 502 1408 q 436 1388 456 1408 q 415 1331 416 1369 l 274 1331 m 374 1039 l 269 1146 l 521 1316 l 566 1316 l 818 1146 l 716 1039 l 544 1164 l 541 1164 l 374 1039 z "},"Ȍ":{"ha":1088,"x_min":22,"x_max":1066,"o":"m 545 -11 q 342 28 437 -11 q 175 138 247 68 q 62 301 103 208 q 22 500 22 394 q 62 700 22 608 q 175 862 103 793 q 342 971 247 932 q 545 1010 437 1010 q 750 971 655 1010 q 916 862 844 932 q 1026 700 987 793 q 1066 500 1066 608 q 1026 301 1066 394 q 916 138 987 208 q 750 28 844 68 q 545 -11 655 -11 m 544 217 q 650 239 601 217 q 737 300 700 261 q 795 390 774 338 q 817 500 817 441 q 795 611 817 560 q 737 701 774 663 q 650 761 700 739 q 544 783 601 783 q 437 761 487 783 q 351 701 388 739 q 292 611 313 663 q 271 500 271 560 q 292 390 271 441 q 351 300 313 338 q 437 239 388 261 q 544 217 487 217 m 353 1055 l 168 1275 l 324 1362 l 472 1114 l 353 1055 m 632 1055 l 452 1275 l 608 1362 l 751 1114 l 632 1055 z "},"Ö":{"ha":1088,"x_min":22,"x_max":1066,"o":"m 545 -11 q 342 28 437 -11 q 175 138 247 68 q 62 301 103 208 q 22 500 22 394 q 62 700 22 608 q 175 862 103 793 q 342 971 247 932 q 545 1010 437 1010 q 750 971 655 1010 q 916 862 844 932 q 1026 700 987 793 q 1066 500 1066 608 q 1026 301 1066 394 q 916 138 987 208 q 750 28 844 68 q 545 -11 655 -11 m 544 217 q 650 239 601 217 q 737 300 700 261 q 795 390 774 338 q 817 500 817 441 q 795 611 817 560 q 737 701 774 663 q 650 761 700 739 q 544 783 601 783 q 437 761 487 783 q 351 701 388 739 q 292 611 313 663 q 271 500 271 560 q 292 390 271 441 q 351 300 313 338 q 437 239 388 261 q 544 217 487 217 m 719 1044 q 627 1081 665 1044 q 589 1172 589 1118 q 627 1264 589 1226 q 719 1302 665 1302 q 807 1264 771 1302 q 844 1173 844 1226 q 807 1081 844 1118 q 719 1044 771 1044 m 374 1044 q 284 1081 321 1044 q 247 1172 247 1118 q 284 1264 247 1226 q 374 1302 321 1302 q 465 1264 428 1302 q 502 1173 502 1226 q 465 1081 502 1118 q 374 1044 428 1044 z "},"Ȫ":{"ha":1088,"x_min":22,"x_max":1066,"o":"m 545 -11 q 342 28 437 -11 q 175 138 247 68 q 62 301 103 208 q 22 500 22 394 q 62 700 22 608 q 175 862 103 793 q 342 971 247 932 q 545 1010 437 1010 q 750 971 655 1010 q 916 862 844 932 q 1026 700 987 793 q 1066 500 1066 608 q 1026 301 1066 394 q 916 138 987 208 q 750 28 844 68 q 545 -11 655 -11 m 544 217 q 650 239 601 217 q 737 300 700 261 q 795 390 774 338 q 817 500 817 441 q 795 611 817 560 q 737 701 774 663 q 650 761 700 739 q 544 783 601 783 q 437 761 487 783 q 351 701 388 739 q 292 611 313 663 q 271 500 271 560 q 292 390 271 441 q 351 300 313 338 q 437 239 388 261 q 544 217 487 217 m 719 1044 q 627 1081 665 1044 q 589 1172 589 1118 q 627 1264 589 1226 q 719 1302 665 1302 q 807 1264 771 1302 q 844 1173 844 1226 q 807 1081 844 1118 q 719 1044 771 1044 m 374 1044 q 284 1081 321 1044 q 247 1172 247 1118 q 284 1264 247 1226 q 374 1302 321 1302 q 465 1264 428 1302 q 502 1173 502 1226 q 465 1081 502 1118 q 374 1044 428 1044 m 266 1351 l 266 1507 l 821 1507 l 821 1351 l 266 1351 z "},"Ȱ":{"ha":1088,"x_min":22,"x_max":1066,"o":"m 545 -11 q 342 28 437 -11 q 175 138 247 68 q 62 301 103 208 q 22 500 22 394 q 62 700 22 608 q 175 862 103 793 q 342 971 247 932 q 545 1010 437 1010 q 750 971 655 1010 q 916 862 844 932 q 1026 700 987 793 q 1066 500 1066 608 q 1026 301 1066 394 q 916 138 987 208 q 750 28 844 68 q 545 -11 655 -11 m 544 217 q 650 239 601 217 q 737 300 700 261 q 795 390 774 338 q 817 500 817 441 q 795 611 817 560 q 737 701 774 663 q 650 761 700 739 q 544 783 601 783 q 437 761 487 783 q 351 701 388 739 q 292 611 313 663 q 271 500 271 560 q 292 390 271 441 q 351 300 313 338 q 437 239 388 261 q 544 217 487 217 m 547 1057 q 446 1098 487 1057 q 404 1199 404 1140 q 446 1301 404 1260 q 547 1341 487 1341 q 648 1301 607 1341 q 689 1199 689 1260 q 648 1098 689 1140 q 547 1057 607 1057 m 266 1383 l 266 1539 l 821 1539 l 821 1383 l 266 1383 z "},"Ọ":{"ha":1088,"x_min":22,"x_max":1066,"o":"m 545 -11 q 342 28 437 -11 q 175 138 247 68 q 62 301 103 208 q 22 500 22 394 q 62 700 22 608 q 175 862 103 793 q 342 971 247 932 q 545 1010 437 1010 q 750 971 655 1010 q 916 862 844 932 q 1026 700 987 793 q 1066 500 1066 608 q 1026 301 1066 394 q 916 138 987 208 q 750 28 844 68 q 545 -11 655 -11 m 544 217 q 650 239 601 217 q 737 300 700 261 q 795 390 774 338 q 817 500 817 441 q 795 611 817 560 q 737 701 774 663 q 650 761 700 739 q 544 783 601 783 q 437 761 487 783 q 351 701 388 739 q 292 611 313 663 q 271 500 271 560 q 292 390 271 441 q 351 300 313 338 q 437 239 388 261 q 544 217 487 217 m 544 -357 q 443 -315 484 -357 q 401 -214 401 -273 q 443 -113 401 -153 q 544 -72 484 -72 q 645 -113 604 -72 q 686 -214 686 -153 q 645 -315 686 -273 q 544 -357 604 -357 z "},"Ò":{"ha":1088,"x_min":22,"x_max":1066,"o":"m 545 -11 q 342 28 437 -11 q 175 138 247 68 q 62 301 103 208 q 22 500 22 394 q 62 700 22 608 q 175 862 103 793 q 342 971 247 932 q 545 1010 437 1010 q 750 971 655 1010 q 916 862 844 932 q 1026 700 987 793 q 1066 500 1066 608 q 1026 301 1066 394 q 916 138 987 208 q 750 28 844 68 q 545 -11 655 -11 m 544 217 q 650 239 601 217 q 737 300 700 261 q 795 390 774 338 q 817 500 817 441 q 795 611 817 560 q 737 701 774 663 q 650 761 700 739 q 544 783 601 783 q 437 761 487 783 q 351 701 388 739 q 292 611 313 663 q 271 500 271 560 q 292 390 271 441 q 351 300 313 338 q 437 239 388 261 q 544 217 487 217 m 544 1047 l 283 1208 l 395 1355 l 642 1145 l 544 1047 z "},"Ỏ":{"ha":1088,"x_min":22,"x_max":1066,"o":"m 545 -11 q 342 28 437 -11 q 175 138 247 68 q 62 301 103 208 q 22 500 22 394 q 62 700 22 608 q 175 862 103 793 q 342 971 247 932 q 545 1010 437 1010 q 750 971 655 1010 q 916 862 844 932 q 1026 700 987 793 q 1066 500 1066 608 q 1026 301 1066 394 q 916 138 987 208 q 750 28 844 68 q 545 -11 655 -11 m 544 217 q 650 239 601 217 q 737 300 700 261 q 795 390 774 338 q 817 500 817 441 q 795 611 817 560 q 737 701 774 663 q 650 761 700 739 q 544 783 601 783 q 437 761 487 783 q 351 701 388 739 q 292 611 313 663 q 271 500 271 560 q 292 390 271 441 q 351 300 313 338 q 437 239 388 261 q 544 217 487 217 m 570 1044 l 486 1126 q 519 1155 503 1137 q 536 1191 536 1173 q 516 1218 536 1209 q 464 1226 496 1226 q 432 1224 449 1226 q 397 1214 415 1221 l 397 1351 q 443 1363 412 1359 q 500 1367 473 1367 q 630 1331 582 1367 q 678 1223 678 1294 q 644 1111 678 1158 q 570 1044 610 1064 z "},"Ơ":{"ha":1088,"x_min":22,"x_max":1066,"o":"m 545 -11 q 342 28 437 -11 q 175 138 247 68 q 62 301 103 208 q 22 500 22 394 q 62 700 22 608 q 175 862 103 793 q 342 971 247 932 q 545 1010 437 1010 q 750 971 655 1010 q 916 862 844 932 q 1026 700 987 793 q 1066 500 1066 608 q 1026 301 1066 394 q 916 138 987 208 q 750 28 844 68 q 545 -11 655 -11 m 544 217 q 650 239 601 217 q 737 300 700 261 q 795 390 774 338 q 817 500 817 441 q 795 611 817 560 q 737 701 774 663 q 650 761 700 739 q 544 783 601 783 q 437 761 487 783 q 351 701 388 739 q 292 611 313 663 q 271 500 271 560 q 292 390 271 441 q 351 300 313 338 q 437 239 388 261 q 544 217 487 217 m 755 814 l 753 967 q 854 996 826 967 q 883 1089 883 1025 q 881 1123 883 1105 q 875 1161 879 1141 l 1044 1192 q 1058 1132 1055 1165 q 1061 1081 1061 1099 q 1016 936 1061 998 q 901 841 971 873 q 755 814 831 808 z "},"Ớ":{"ha":1088,"x_min":22,"x_max":1066,"o":"m 545 -11 q 342 28 437 -11 q 175 138 247 68 q 62 301 103 208 q 22 500 22 394 q 62 700 22 608 q 175 862 103 793 q 342 971 247 932 q 545 1010 437 1010 q 750 971 655 1010 q 916 862 844 932 q 1026 700 987 793 q 1066 500 1066 608 q 1026 301 1066 394 q 916 138 987 208 q 750 28 844 68 q 545 -11 655 -11 m 544 217 q 650 239 601 217 q 737 300 700 261 q 795 390 774 338 q 817 500 817 441 q 795 611 817 560 q 737 701 774 663 q 650 761 700 739 q 544 783 601 783 q 437 761 487 783 q 351 701 388 739 q 292 611 313 663 q 271 500 271 560 q 292 390 271 441 q 351 300 313 338 q 437 239 388 261 q 544 217 487 217 m 755 814 l 753 967 q 854 996 826 967 q 883 1089 883 1025 q 881 1123 883 1105 q 875 1161 879 1141 l 1044 1192 q 1058 1132 1055 1165 q 1061 1081 1061 1099 q 1016 936 1061 998 q 901 841 971 873 q 755 814 831 808 m 544 1047 l 446 1145 l 693 1355 l 804 1208 l 544 1047 z "},"Ợ":{"ha":1088,"x_min":22,"x_max":1066,"o":"m 545 -11 q 342 28 437 -11 q 175 138 247 68 q 62 301 103 208 q 22 500 22 394 q 62 700 22 608 q 175 862 103 793 q 342 971 247 932 q 545 1010 437 1010 q 750 971 655 1010 q 916 862 844 932 q 1026 700 987 793 q 1066 500 1066 608 q 1026 301 1066 394 q 916 138 987 208 q 750 28 844 68 q 545 -11 655 -11 m 544 217 q 650 239 601 217 q 737 300 700 261 q 795 390 774 338 q 817 500 817 441 q 795 611 817 560 q 737 701 774 663 q 650 761 700 739 q 544 783 601 783 q 437 761 487 783 q 351 701 388 739 q 292 611 313 663 q 271 500 271 560 q 292 390 271 441 q 351 300 313 338 q 437 239 388 261 q 544 217 487 217 m 755 814 l 753 967 q 854 996 826 967 q 883 1089 883 1025 q 881 1123 883 1105 q 875 1161 879 1141 l 1044 1192 q 1058 1132 1055 1165 q 1061 1081 1061 1099 q 1016 936 1061 998 q 901 841 971 873 q 755 814 831 808 m 547 -357 q 446 -315 487 -357 q 404 -214 404 -273 q 446 -113 404 -153 q 547 -72 487 -72 q 648 -113 607 -72 q 689 -214 689 -153 q 648 -315 689 -273 q 547 -357 607 -357 z "},"Ờ":{"ha":1088,"x_min":22,"x_max":1066,"o":"m 545 -11 q 342 28 437 -11 q 175 138 247 68 q 62 301 103 208 q 22 500 22 394 q 62 700 22 608 q 175 862 103 793 q 342 971 247 932 q 545 1010 437 1010 q 750 971 655 1010 q 916 862 844 932 q 1026 700 987 793 q 1066 500 1066 608 q 1026 301 1066 394 q 916 138 987 208 q 750 28 844 68 q 545 -11 655 -11 m 544 217 q 650 239 601 217 q 737 300 700 261 q 795 390 774 338 q 817 500 817 441 q 795 611 817 560 q 737 701 774 663 q 650 761 700 739 q 544 783 601 783 q 437 761 487 783 q 351 701 388 739 q 292 611 313 663 q 271 500 271 560 q 292 390 271 441 q 351 300 313 338 q 437 239 388 261 q 544 217 487 217 m 755 814 l 753 967 q 854 996 826 967 q 883 1089 883 1025 q 881 1123 883 1105 q 875 1161 879 1141 l 1044 1192 q 1058 1132 1055 1165 q 1061 1081 1061 1099 q 1016 936 1061 998 q 901 841 971 873 q 755 814 831 808 m 544 1047 l 283 1208 l 395 1355 l 642 1145 l 544 1047 z "},"Ở":{"ha":1088,"x_min":22,"x_max":1066,"o":"m 545 -11 q 342 28 437 -11 q 175 138 247 68 q 62 301 103 208 q 22 500 22 394 q 62 700 22 608 q 175 862 103 793 q 342 971 247 932 q 545 1010 437 1010 q 750 971 655 1010 q 916 862 844 932 q 1026 700 987 793 q 1066 500 1066 608 q 1026 301 1066 394 q 916 138 987 208 q 750 28 844 68 q 545 -11 655 -11 m 544 217 q 650 239 601 217 q 737 300 700 261 q 795 390 774 338 q 817 500 817 441 q 795 611 817 560 q 737 701 774 663 q 650 761 700 739 q 544 783 601 783 q 437 761 487 783 q 351 701 388 739 q 292 611 313 663 q 271 500 271 560 q 292 390 271 441 q 351 300 313 338 q 437 239 388 261 q 544 217 487 217 m 755 814 l 753 967 q 854 996 826 967 q 883 1089 883 1025 q 881 1123 883 1105 q 875 1161 879 1141 l 1044 1192 q 1058 1132 1055 1165 q 1061 1081 1061 1099 q 1016 936 1061 998 q 901 841 971 873 q 755 814 831 808 m 570 1044 l 486 1126 q 519 1155 503 1137 q 536 1191 536 1173 q 516 1218 536 1209 q 464 1226 496 1226 q 432 1224 449 1226 q 397 1214 415 1221 l 397 1351 q 443 1363 412 1359 q 500 1367 473 1367 q 630 1331 582 1367 q 678 1223 678 1294 q 644 1111 678 1158 q 570 1044 610 1064 z "},"Ỡ":{"ha":1088,"x_min":22,"x_max":1066,"o":"m 545 -11 q 342 28 437 -11 q 175 138 247 68 q 62 301 103 208 q 22 500 22 394 q 62 700 22 608 q 175 862 103 793 q 342 971 247 932 q 545 1010 437 1010 q 750 971 655 1010 q 916 862 844 932 q 1026 700 987 793 q 1066 500 1066 608 q 1026 301 1066 394 q 916 138 987 208 q 750 28 844 68 q 545 -11 655 -11 m 544 217 q 650 239 601 217 q 737 300 700 261 q 795 390 774 338 q 817 500 817 441 q 795 611 817 560 q 737 701 774 663 q 650 761 700 739 q 544 783 601 783 q 437 761 487 783 q 351 701 388 739 q 292 611 313 663 q 271 500 271 560 q 292 390 271 441 q 351 300 313 338 q 437 239 388 261 q 544 217 487 217 m 755 814 l 753 967 q 854 996 826 967 q 883 1089 883 1025 q 881 1123 883 1105 q 875 1161 879 1141 l 1044 1192 q 1058 1132 1055 1165 q 1061 1081 1061 1099 q 1016 936 1061 998 q 901 841 971 873 q 755 814 831 808 m 274 1063 q 318 1220 274 1158 q 444 1280 362 1282 q 511 1271 484 1282 q 555 1244 537 1259 q 589 1217 574 1229 q 624 1206 605 1206 q 662 1227 650 1206 q 674 1280 674 1248 l 815 1280 q 772 1128 817 1189 q 643 1063 728 1067 q 578 1077 604 1065 q 533 1104 552 1089 q 498 1131 515 1120 q 463 1142 482 1142 q 427 1122 438 1142 q 416 1063 416 1101 l 274 1063 z "},"Ő":{"ha":1088,"x_min":22,"x_max":1066,"o":"m 545 -11 q 342 28 437 -11 q 175 138 247 68 q 62 301 103 208 q 22 500 22 394 q 62 700 22 608 q 175 862 103 793 q 342 971 247 932 q 545 1010 437 1010 q 750 971 655 1010 q 916 862 844 932 q 1026 700 987 793 q 1066 500 1066 608 q 1026 301 1066 394 q 916 138 987 208 q 750 28 844 68 q 545 -11 655 -11 m 544 217 q 650 239 601 217 q 737 300 700 261 q 795 390 774 338 q 817 500 817 441 q 795 611 817 560 q 737 701 774 663 q 650 761 700 739 q 544 783 601 783 q 437 761 487 783 q 351 701 388 739 q 292 611 313 663 q 271 500 271 560 q 292 390 271 441 q 351 300 313 338 q 437 239 388 261 q 544 217 487 217 m 452 1055 l 332 1114 l 483 1362 l 636 1275 l 452 1055 m 735 1055 l 616 1114 l 761 1362 l 916 1275 l 735 1055 z "},"Ȏ":{"ha":1088,"x_min":22,"x_max":1066,"o":"m 545 -11 q 342 28 437 -11 q 175 138 247 68 q 62 301 103 208 q 22 500 22 394 q 62 700 22 608 q 175 862 103 793 q 342 971 247 932 q 545 1010 437 1010 q 750 971 655 1010 q 916 862 844 932 q 1026 700 987 793 q 1066 500 1066 608 q 1026 301 1066 394 q 916 138 987 208 q 750 28 844 68 q 545 -11 655 -11 m 544 217 q 650 239 601 217 q 737 300 700 261 q 795 390 774 338 q 817 500 817 441 q 795 611 817 560 q 737 701 774 663 q 650 761 700 739 q 544 783 601 783 q 437 761 487 783 q 351 701 388 739 q 292 611 313 663 q 271 500 271 560 q 292 390 271 441 q 351 300 313 338 q 437 239 388 261 q 544 217 487 217 m 544 1293 q 678 1265 616 1291 q 778 1191 740 1240 q 815 1065 816 1141 l 671 1065 q 634 1144 673 1121 q 544 1166 594 1166 q 456 1143 496 1166 q 415 1065 416 1119 l 274 1065 q 311 1191 274 1141 q 410 1265 349 1240 q 544 1293 471 1291 z "},"Ō":{"ha":1088,"x_min":22,"x_max":1066,"o":"m 545 -11 q 342 28 437 -11 q 175 138 247 68 q 62 301 103 208 q 22 500 22 394 q 62 700 22 608 q 175 862 103 793 q 342 971 247 932 q 545 1010 437 1010 q 750 971 655 1010 q 916 862 844 932 q 1026 700 987 793 q 1066 500 1066 608 q 1026 301 1066 394 q 916 138 987 208 q 750 28 844 68 q 545 -11 655 -11 m 544 217 q 650 239 601 217 q 737 300 700 261 q 795 390 774 338 q 817 500 817 441 q 795 611 817 560 q 737 701 774 663 q 650 761 700 739 q 544 783 601 783 q 437 761 487 783 q 351 701 388 739 q 292 611 313 663 q 271 500 271 560 q 292 390 271 441 q 351 300 313 338 q 437 239 388 261 q 544 217 487 217 m 266 1095 l 266 1251 l 821 1251 l 821 1095 l 266 1095 z "},"Ṓ":{"ha":1088,"x_min":22,"x_max":1066,"o":"m 342 1095 l 342 1251 l 897 1251 l 897 1095 l 342 1095 m 620 1298 l 522 1396 l 769 1606 l 880 1459 l 620 1298 m 545 -11 q 342 28 437 -11 q 175 138 247 68 q 62 301 103 208 q 22 500 22 394 q 62 700 22 608 q 175 862 103 793 q 342 971 247 932 q 545 1010 437 1010 q 750 971 655 1010 q 916 862 844 932 q 1026 700 987 793 q 1066 500 1066 608 q 1026 301 1066 394 q 916 138 987 208 q 750 28 844 68 q 545 -11 655 -11 m 544 217 q 650 239 601 217 q 737 300 700 261 q 795 390 774 338 q 817 500 817 441 q 795 611 817 560 q 737 701 774 663 q 650 761 700 739 q 544 783 601 783 q 437 761 487 783 q 351 701 388 739 q 292 611 313 663 q 271 500 271 560 q 292 390 271 441 q 351 300 313 338 q 437 239 388 261 q 544 217 487 217 z "},"Ṑ":{"ha":1088,"x_min":22,"x_max":1066,"o":"m 545 -11 q 342 28 437 -11 q 175 138 247 68 q 62 301 103 208 q 22 500 22 394 q 62 700 22 608 q 175 862 103 793 q 342 971 247 932 q 545 1010 437 1010 q 750 971 655 1010 q 916 862 844 932 q 1026 700 987 793 q 1066 500 1066 608 q 1026 301 1066 394 q 916 138 987 208 q 750 28 844 68 q 545 -11 655 -11 m 544 217 q 650 239 601 217 q 737 300 700 261 q 795 390 774 338 q 817 500 817 441 q 795 611 817 560 q 737 701 774 663 q 650 761 700 739 q 544 783 601 783 q 437 761 487 783 q 351 701 388 739 q 292 611 313 663 q 271 500 271 560 q 292 390 271 441 q 351 300 313 338 q 437 239 388 261 q 544 217 487 217 m 266 1095 l 266 1251 l 821 1251 l 821 1095 l 266 1095 m 544 1298 l 283 1459 l 395 1606 l 642 1396 l 544 1298 z "},"Ǫ":{"ha":1088,"x_min":22,"x_max":1066,"o":"m 545 -11 q 342 28 437 -11 q 175 138 247 68 q 62 301 103 208 q 22 500 22 394 q 62 700 22 608 q 175 862 103 793 q 342 971 247 932 q 545 1010 437 1010 q 750 971 655 1010 q 916 862 844 932 q 1026 700 987 793 q 1066 500 1066 608 q 1026 301 1066 394 q 916 138 987 208 q 750 28 844 68 q 545 -11 655 -11 m 544 217 q 650 239 601 217 q 737 300 700 261 q 795 390 774 338 q 817 500 817 441 q 795 611 817 560 q 737 701 774 663 q 650 761 700 739 q 544 783 601 783 q 437 761 487 783 q 351 701 388 739 q 292 611 313 663 q 271 500 271 560 q 292 390 271 441 q 351 300 313 338 q 437 239 388 261 q 544 217 487 217 m 534 -297 q 416 -258 461 -297 q 370 -153 370 -219 q 412 -51 370 -95 q 526 37 453 -6 l 648 0 q 582 -41 612 -21 q 534 -82 552 -62 q 515 -125 515 -103 q 530 -154 515 -144 q 576 -164 545 -164 q 616 -160 595 -164 q 648 -151 638 -157 l 648 -281 q 593 -293 628 -289 q 534 -297 558 -297 z "},"Ø":{"ha":1088,"x_min":-9,"x_max":1096,"o":"m 545 -11 q 342 28 437 -11 q 175 138 247 68 q 62 301 103 208 q 22 500 22 394 q 62 700 22 608 q 175 862 103 793 q 342 971 247 932 q 545 1010 437 1010 q 750 971 655 1010 q 916 862 844 932 q 1026 700 987 793 q 1066 500 1066 608 q 1026 301 1066 394 q 916 138 987 208 q 750 28 844 68 q 545 -11 655 -11 m 544 217 q 650 239 601 217 q 737 300 700 261 q 795 390 774 338 q 817 500 817 441 q 795 611 817 560 q 737 701 774 663 q 650 761 700 739 q 544 783 601 783 q 437 761 487 783 q 351 701 388 739 q 292 611 313 663 q 271 500 271 560 q 292 390 271 441 q 351 300 313 338 q 437 239 388 261 q 544 217 487 217 m -9 0 l 875 1000 l 1096 1000 l 213 0 l -9 0 z "},"Ǿ":{"ha":1088,"x_min":-9,"x_max":1096,"o":"m 545 -11 q 342 28 437 -11 q 175 138 247 68 q 62 301 103 208 q 22 500 22 394 q 62 700 22 608 q 175 862 103 793 q 342 971 247 932 q 545 1010 437 1010 q 750 971 655 1010 q 916 862 844 932 q 1026 700 987 793 q 1066 500 1066 608 q 1026 301 1066 394 q 916 138 987 208 q 750 28 844 68 q 545 -11 655 -11 m 544 217 q 650 239 601 217 q 737 300 700 261 q 795 390 774 338 q 817 500 817 441 q 795 611 817 560 q 737 701 774 663 q 650 761 700 739 q 544 783 601 783 q 437 761 487 783 q 351 701 388 739 q 292 611 313 663 q 271 500 271 560 q 292 390 271 441 q 351 300 313 338 q 437 239 388 261 q 544 217 487 217 m -9 0 l 875 1000 l 1096 1000 l 213 0 l -9 0 m 544 1047 l 446 1145 l 693 1355 l 804 1208 l 544 1047 z "},"Õ":{"ha":1088,"x_min":22,"x_max":1066,"o":"m 545 -11 q 342 28 437 -11 q 175 138 247 68 q 62 301 103 208 q 22 500 22 394 q 62 700 22 608 q 175 862 103 793 q 342 971 247 932 q 545 1010 437 1010 q 750 971 655 1010 q 916 862 844 932 q 1026 700 987 793 q 1066 500 1066 608 q 1026 301 1066 394 q 916 138 987 208 q 750 28 844 68 q 545 -11 655 -11 m 544 217 q 650 239 601 217 q 737 300 700 261 q 795 390 774 338 q 817 500 817 441 q 795 611 817 560 q 737 701 774 663 q 650 761 700 739 q 544 783 601 783 q 437 761 487 783 q 351 701 388 739 q 292 611 313 663 q 271 500 271 560 q 292 390 271 441 q 351 300 313 338 q 437 239 388 261 q 544 217 487 217 m 274 1063 q 318 1220 274 1158 q 444 1280 362 1282 q 511 1271 484 1282 q 555 1244 537 1259 q 589 1217 574 1229 q 624 1206 605 1206 q 662 1227 650 1206 q 674 1280 674 1248 l 815 1280 q 772 1128 817 1189 q 643 1063 728 1067 q 578 1077 604 1065 q 533 1104 552 1089 q 498 1131 515 1120 q 463 1142 482 1142 q 427 1122 438 1142 q 416 1063 416 1101 l 274 1063 z "},"Ṍ":{"ha":1088,"x_min":22,"x_max":1066,"o":"m 545 -11 q 342 28 437 -11 q 175 138 247 68 q 62 301 103 208 q 22 500 22 394 q 62 700 22 608 q 175 862 103 793 q 342 971 247 932 q 545 1010 437 1010 q 750 971 655 1010 q 916 862 844 932 q 1026 700 987 793 q 1066 500 1066 608 q 1026 301 1066 394 q 916 138 987 208 q 750 28 844 68 q 545 -11 655 -11 m 544 217 q 650 239 601 217 q 737 300 700 261 q 795 390 774 338 q 817 500 817 441 q 795 611 817 560 q 737 701 774 663 q 650 761 700 739 q 544 783 601 783 q 437 761 487 783 q 351 701 388 739 q 292 611 313 663 q 271 500 271 560 q 292 390 271 441 q 351 300 313 338 q 437 239 388 261 q 544 217 487 217 m 274 1063 q 318 1220 274 1158 q 444 1280 362 1282 q 511 1271 484 1282 q 555 1244 537 1259 q 589 1217 574 1229 q 624 1206 605 1206 q 662 1227 650 1206 q 674 1280 674 1248 l 815 1280 q 772 1128 817 1189 q 643 1063 728 1067 q 578 1077 604 1065 q 533 1104 552 1089 q 498 1131 515 1120 q 463 1142 482 1142 q 427 1122 438 1142 q 416 1063 416 1101 l 274 1063 m 544 1325 l 446 1423 l 693 1633 l 804 1487 l 544 1325 z "},"Ṏ":{"ha":1088,"x_min":22,"x_max":1066,"o":"m 545 -11 q 342 28 437 -11 q 175 138 247 68 q 62 301 103 208 q 22 500 22 394 q 62 700 22 608 q 175 862 103 793 q 342 971 247 932 q 545 1010 437 1010 q 750 971 655 1010 q 916 862 844 932 q 1026 700 987 793 q 1066 500 1066 608 q 1026 301 1066 394 q 916 138 987 208 q 750 28 844 68 q 545 -11 655 -11 m 544 217 q 650 239 601 217 q 737 300 700 261 q 795 390 774 338 q 817 500 817 441 q 795 611 817 560 q 737 701 774 663 q 650 761 700 739 q 544 783 601 783 q 437 761 487 783 q 351 701 388 739 q 292 611 313 663 q 271 500 271 560 q 292 390 271 441 q 351 300 313 338 q 437 239 388 261 q 544 217 487 217 m 274 1063 q 318 1220 274 1158 q 444 1280 362 1282 q 511 1271 484 1282 q 555 1244 537 1259 q 589 1217 574 1229 q 624 1206 605 1206 q 662 1227 650 1206 q 674 1280 674 1248 l 815 1280 q 772 1128 817 1189 q 643 1063 728 1067 q 578 1077 604 1065 q 533 1104 552 1089 q 498 1131 515 1120 q 463 1142 482 1142 q 427 1122 438 1142 q 416 1063 416 1101 l 274 1063 m 719 1322 q 627 1359 665 1322 q 589 1450 589 1396 q 627 1542 589 1504 q 719 1580 665 1580 q 807 1542 771 1580 q 844 1451 844 1504 q 807 1359 844 1396 q 719 1322 771 1322 m 374 1322 q 284 1359 321 1322 q 247 1450 247 1396 q 284 1542 247 1504 q 374 1580 321 1580 q 465 1542 428 1580 q 502 1451 502 1504 q 465 1359 502 1396 q 374 1322 428 1322 z "},"Ȭ":{"ha":1088,"x_min":22,"x_max":1066,"o":"m 545 -11 q 342 28 437 -11 q 175 138 247 68 q 62 301 103 208 q 22 500 22 394 q 62 700 22 608 q 175 862 103 793 q 342 971 247 932 q 545 1010 437 1010 q 750 971 655 1010 q 916 862 844 932 q 1026 700 987 793 q 1066 500 1066 608 q 1026 301 1066 394 q 916 138 987 208 q 750 28 844 68 q 545 -11 655 -11 m 544 217 q 650 239 601 217 q 737 300 700 261 q 795 390 774 338 q 817 500 817 441 q 795 611 817 560 q 737 701 774 663 q 650 761 700 739 q 544 783 601 783 q 437 761 487 783 q 351 701 388 739 q 292 611 313 663 q 271 500 271 560 q 292 390 271 441 q 351 300 313 338 q 437 239 388 261 q 544 217 487 217 m 274 1063 q 318 1220 274 1158 q 444 1280 362 1282 q 511 1271 484 1282 q 555 1244 537 1259 q 589 1217 574 1229 q 624 1206 605 1206 q 662 1227 650 1206 q 674 1280 674 1248 l 815 1280 q 772 1128 817 1189 q 643 1063 728 1067 q 578 1077 604 1065 q 533 1104 552 1089 q 498 1131 515 1120 q 463 1142 482 1142 q 427 1122 438 1142 q 416 1063 416 1101 l 274 1063 m 266 1373 l 266 1529 l 821 1529 l 821 1373 l 266 1373 z "},"Œ":{"ha":1405,"x_min":22,"x_max":1350,"o":"m 526 -11 q 335 27 426 -11 q 173 134 243 65 q 62 296 103 203 q 22 502 22 390 q 62 706 22 613 q 173 867 102 799 q 337 973 244 935 q 536 1010 430 1010 q 686 985 621 1010 q 797 911 750 960 q 878 792 844 862 l 787 792 l 787 1000 l 1350 1000 l 1350 777 l 1008 777 l 1008 612 l 1291 612 l 1291 397 l 1008 397 l 1008 222 l 1350 222 l 1350 0 l 787 0 l 787 209 l 878 209 q 792 90 843 139 q 675 15 741 41 q 526 -11 608 -11 m 541 209 q 678 246 618 209 q 773 349 739 283 q 808 500 808 414 q 773 653 808 587 q 677 754 738 718 q 541 791 617 791 q 404 754 465 791 q 307 652 343 718 q 271 500 271 587 q 292 383 271 437 q 349 291 312 330 q 435 230 385 252 q 541 209 484 209 z "},"P":{"ha":841,"x_min":84,"x_max":819,"o":"m 286 305 l 286 525 l 433 525 q 508 542 476 525 q 557 588 540 559 q 575 652 575 616 q 534 743 575 709 q 425 777 494 777 l 286 777 l 286 1000 l 439 1000 q 644 958 559 1000 q 774 840 729 916 q 819 661 819 764 q 772 474 819 554 q 641 350 725 394 q 445 305 556 305 l 286 305 m 84 0 l 84 1000 l 334 1000 l 334 0 l 84 0 z "},"Þ":{"ha":846,"x_min":84,"x_max":814,"o":"m 281 156 l 281 373 l 442 373 q 539 410 503 373 q 575 503 575 448 q 536 596 575 562 q 433 631 498 631 l 281 631 l 281 848 l 448 848 q 642 807 559 848 q 769 690 724 766 q 814 510 814 614 q 769 325 814 405 q 643 201 724 245 q 453 156 562 156 l 281 156 m 84 0 l 84 1000 l 334 1000 l 334 0 l 84 0 z "},"Q":{"ha":1147,"x_min":22,"x_max":1114,"o":"m 864 0 l 753 136 l 636 217 l 430 427 l 700 427 l 808 305 l 944 203 l 1114 0 l 864 0 m 545 -11 q 342 28 437 -11 q 175 138 247 68 q 62 301 103 208 q 22 500 22 394 q 62 700 22 608 q 175 862 103 793 q 342 971 247 932 q 545 1010 437 1010 q 750 971 655 1010 q 916 862 844 932 q 1026 700 987 793 q 1066 500 1066 608 q 1026 301 1066 394 q 916 138 987 208 q 750 28 844 68 q 545 -11 655 -11 m 544 217 q 650 239 601 217 q 737 300 700 261 q 795 390 774 338 q 817 500 817 441 q 795 611 817 560 q 737 701 774 663 q 650 761 700 739 q 544 783 601 783 q 437 761 487 783 q 351 701 388 739 q 292 611 313 663 q 271 500 271 560 q 292 390 271 441 q 351 300 313 338 q 437 239 388 261 q 544 217 487 217 z "},"R":{"ha":935,"x_min":84,"x_max":910,"o":"m 263 328 l 263 530 l 431 530 q 506 546 473 530 q 556 589 538 562 q 574 652 574 616 q 532 743 574 709 q 423 777 490 777 l 263 777 l 263 1000 l 463 1000 q 643 964 563 1000 q 771 858 724 928 q 818 686 818 788 q 768 504 818 585 q 623 376 718 423 q 396 328 528 328 l 263 328 m 84 0 l 84 1000 l 334 1000 l 334 0 l 84 0 m 629 0 l 429 363 l 613 511 l 910 0 l 629 0 z "},"Ŕ":{"ha":935,"x_min":84,"x_max":910,"o":"m 263 328 l 263 530 l 431 530 q 506 546 473 530 q 556 589 538 562 q 574 652 574 616 q 532 743 574 709 q 423 777 490 777 l 263 777 l 263 1000 l 463 1000 q 643 964 563 1000 q 771 858 724 928 q 818 686 818 788 q 768 504 818 585 q 623 376 718 423 q 396 328 528 328 l 263 328 m 84 0 l 84 1000 l 334 1000 l 334 0 l 84 0 m 629 0 l 429 363 l 613 511 l 910 0 l 629 0 m 429 1047 l 331 1145 l 578 1355 l 689 1208 l 429 1047 z "},"Ř":{"ha":935,"x_min":84,"x_max":910,"o":"m 263 328 l 263 530 l 431 530 q 506 546 473 530 q 556 589 538 562 q 574 652 574 616 q 532 743 574 709 q 423 777 490 777 l 263 777 l 263 1000 l 463 1000 q 643 964 563 1000 q 771 858 724 928 q 818 686 818 788 q 768 504 818 585 q 623 376 718 423 q 396 328 528 328 l 263 328 m 84 0 l 84 1000 l 334 1000 l 334 0 l 84 0 m 629 0 l 429 363 l 613 511 l 910 0 l 629 0 m 259 1328 l 426 1203 l 429 1203 l 601 1328 l 703 1219 l 450 1047 l 406 1047 l 153 1219 l 259 1328 z "},"Ŗ":{"ha":935,"x_min":84,"x_max":910,"o":"m 263 328 l 263 530 l 431 530 q 506 546 473 530 q 556 589 538 562 q 574 652 574 616 q 532 743 574 709 q 423 777 490 777 l 263 777 l 263 1000 l 463 1000 q 643 964 563 1000 q 771 858 724 928 q 818 686 818 788 q 768 504 818 585 q 623 376 718 423 q 396 328 528 328 l 263 328 m 84 0 l 84 1000 l 334 1000 l 334 0 l 84 0 m 629 0 l 429 363 l 613 511 l 910 0 l 629 0 m 397 -437 l 353 -378 l 420 -328 q 446 -306 430 -321 q 474 -271 462 -290 q 487 -236 487 -252 l 514 -236 q 501 -269 514 -254 q 458 -283 488 -283 q 392 -256 424 -283 q 358 -183 359 -229 q 390 -112 359 -139 q 458 -87 420 -85 q 533 -113 503 -85 q 564 -198 564 -141 q 548 -279 564 -243 q 509 -339 531 -314 q 469 -378 486 -364 l 397 -437 z "},"Ȑ":{"ha":935,"x_min":53,"x_max":910,"o":"m 263 328 l 263 530 l 431 530 q 506 546 473 530 q 556 589 538 562 q 574 652 574 616 q 532 743 574 709 q 423 777 490 777 l 263 777 l 263 1000 l 463 1000 q 643 964 563 1000 q 771 858 724 928 q 818 686 818 788 q 768 504 818 585 q 623 376 718 423 q 396 328 528 328 l 263 328 m 84 0 l 84 1000 l 334 1000 l 334 0 l 84 0 m 629 0 l 429 363 l 613 511 l 910 0 l 629 0 m 237 1055 l 53 1275 l 209 1362 l 357 1114 l 237 1055 m 517 1055 l 336 1275 l 492 1362 l 636 1114 l 517 1055 z "},"Ṛ":{"ha":935,"x_min":84,"x_max":910,"o":"m 263 328 l 263 530 l 431 530 q 506 546 473 530 q 556 589 538 562 q 574 652 574 616 q 532 743 574 709 q 423 777 490 777 l 263 777 l 263 1000 l 463 1000 q 643 964 563 1000 q 771 858 724 928 q 818 686 818 788 q 768 504 818 585 q 623 376 718 423 q 396 328 528 328 l 263 328 m 84 0 l 84 1000 l 334 1000 l 334 0 l 84 0 m 629 0 l 429 363 l 613 511 l 910 0 l 629 0 m 471 -357 q 370 -315 411 -357 q 328 -214 328 -273 q 370 -113 328 -153 q 471 -72 411 -72 q 572 -113 531 -72 q 613 -214 613 -153 q 572 -315 613 -273 q 471 -357 531 -357 z "},"Ȓ":{"ha":935,"x_min":84,"x_max":910,"o":"m 263 328 l 263 530 l 431 530 q 506 546 473 530 q 556 589 538 562 q 574 652 574 616 q 532 743 574 709 q 423 777 490 777 l 263 777 l 263 1000 l 463 1000 q 643 964 563 1000 q 771 858 724 928 q 818 686 818 788 q 768 504 818 585 q 623 376 718 423 q 396 328 528 328 l 263 328 m 84 0 l 84 1000 l 334 1000 l 334 0 l 84 0 m 629 0 l 429 363 l 613 511 l 910 0 l 629 0 m 429 1293 q 563 1265 500 1291 q 663 1191 625 1240 q 700 1065 701 1141 l 556 1065 q 518 1144 558 1121 q 429 1166 479 1166 q 341 1143 381 1166 q 300 1065 301 1119 l 159 1065 q 196 1191 159 1141 q 295 1265 233 1240 q 429 1293 356 1291 z "},"Ṟ":{"ha":935,"x_min":84,"x_max":910,"o":"m 263 328 l 263 530 l 431 530 q 506 546 473 530 q 556 589 538 562 q 574 652 574 616 q 532 743 574 709 q 423 777 490 777 l 263 777 l 263 1000 l 463 1000 q 643 964 563 1000 q 771 858 724 928 q 818 686 818 788 q 768 504 818 585 q 623 376 718 423 q 396 328 528 328 l 263 328 m 84 0 l 84 1000 l 334 1000 l 334 0 l 84 0 m 629 0 l 429 363 l 613 511 l 910 0 l 629 0 m 179 -289 l 179 -145 l 762 -145 l 762 -289 l 179 -289 z "},"S":{"ha":817,"x_min":34,"x_max":772,"o":"m 419 -11 q 252 23 332 -11 q 114 114 172 56 q 34 241 56 171 l 273 342 q 304 283 283 311 q 355 236 325 254 q 422 217 385 217 q 472 229 450 217 q 509 259 495 240 q 522 301 522 278 q 503 350 522 330 q 453 383 483 370 q 390 406 423 397 q 331 425 357 416 q 204 483 264 446 q 107 577 144 519 q 69 720 69 635 q 110 870 69 805 q 227 973 151 936 q 406 1010 302 1010 q 563 983 494 1010 q 679 907 631 955 q 750 798 726 859 l 519 703 q 497 742 513 722 q 458 776 481 762 q 407 789 435 789 q 345 768 372 789 q 319 715 319 747 q 343 662 319 684 q 402 624 367 640 q 471 598 437 608 q 524 583 505 589 q 594 557 553 575 q 676 508 635 539 q 744 427 717 476 q 772 308 771 378 q 727 149 772 221 q 602 33 682 76 q 419 -11 522 -11 z "},"Ś":{"ha":817,"x_min":34,"x_max":772,"o":"m 419 -11 q 252 23 332 -11 q 114 114 172 56 q 34 241 56 171 l 273 342 q 304 283 283 311 q 355 236 325 254 q 422 217 385 217 q 472 229 450 217 q 509 259 495 240 q 522 301 522 278 q 503 350 522 330 q 453 383 483 370 q 390 406 423 397 q 331 425 357 416 q 204 483 264 446 q 107 577 144 519 q 69 720 69 635 q 110 870 69 805 q 227 973 151 936 q 406 1010 302 1010 q 563 983 494 1010 q 679 907 631 955 q 750 798 726 859 l 519 703 q 497 742 513 722 q 458 776 481 762 q 407 789 435 789 q 345 768 372 789 q 319 715 319 747 q 343 662 319 684 q 402 624 367 640 q 471 598 437 608 q 524 583 505 589 q 594 557 553 575 q 676 508 635 539 q 744 427 717 476 q 772 308 771 378 q 727 149 772 221 q 602 33 682 76 q 419 -11 522 -11 m 408 1047 l 311 1145 l 557 1355 l 669 1208 l 408 1047 z "},"Ṥ":{"ha":817,"x_min":34,"x_max":772,"o":"m 419 -11 q 252 23 332 -11 q 114 114 172 56 q 34 241 56 171 l 273 342 q 304 283 283 311 q 355 236 325 254 q 422 217 385 217 q 472 229 450 217 q 509 259 495 240 q 522 301 522 278 q 503 350 522 330 q 453 383 483 370 q 390 406 423 397 q 331 425 357 416 q 204 483 264 446 q 107 577 144 519 q 69 720 69 635 q 110 870 69 805 q 227 973 151 936 q 406 1010 302 1010 q 563 983 494 1010 q 679 907 631 955 q 750 798 726 859 l 519 703 q 497 742 513 722 q 458 776 481 762 q 407 789 435 789 q 345 768 372 789 q 319 715 319 747 q 343 662 319 684 q 402 624 367 640 q 471 598 437 608 q 524 583 505 589 q 594 557 553 575 q 676 508 635 539 q 744 427 717 476 q 772 308 771 378 q 727 149 772 221 q 602 33 682 76 q 419 -11 522 -11 m 534 1047 l 434 1131 l 643 1394 l 770 1267 l 534 1047 m 239 1074 q 138 1116 179 1074 q 96 1217 96 1158 q 138 1318 96 1278 q 239 1359 179 1359 q 340 1318 299 1359 q 381 1217 381 1278 q 340 1116 381 1158 q 239 1074 299 1074 z "},"Š":{"ha":817,"x_min":34,"x_max":772,"o":"m 419 -11 q 252 23 332 -11 q 114 114 172 56 q 34 241 56 171 l 273 342 q 304 283 283 311 q 355 236 325 254 q 422 217 385 217 q 472 229 450 217 q 509 259 495 240 q 522 301 522 278 q 503 350 522 330 q 453 383 483 370 q 390 406 423 397 q 331 425 357 416 q 204 483 264 446 q 107 577 144 519 q 69 720 69 635 q 110 870 69 805 q 227 973 151 936 q 406 1010 302 1010 q 563 983 494 1010 q 679 907 631 955 q 750 798 726 859 l 519 703 q 497 742 513 722 q 458 776 481 762 q 407 789 435 789 q 345 768 372 789 q 319 715 319 747 q 343 662 319 684 q 402 624 367 640 q 471 598 437 608 q 524 583 505 589 q 594 557 553 575 q 676 508 635 539 q 744 427 717 476 q 772 308 771 378 q 727 149 772 221 q 602 33 682 76 q 419 -11 522 -11 m 239 1328 l 406 1203 l 408 1203 l 581 1328 l 682 1219 l 430 1047 l 385 1047 l 133 1219 l 239 1328 z "},"Ṧ":{"ha":817,"x_min":34,"x_max":772,"o":"m 419 -11 q 252 23 332 -11 q 114 114 172 56 q 34 241 56 171 l 273 342 q 304 283 283 311 q 355 236 325 254 q 422 217 385 217 q 472 229 450 217 q 509 259 495 240 q 522 301 522 278 q 503 350 522 330 q 453 383 483 370 q 390 406 423 397 q 331 425 357 416 q 204 483 264 446 q 107 577 144 519 q 69 720 69 635 q 110 870 69 805 q 227 973 151 936 q 406 1010 302 1010 q 563 983 494 1010 q 679 907 631 955 q 750 798 726 859 l 519 703 q 497 742 513 722 q 458 776 481 762 q 407 789 435 789 q 345 768 372 789 q 319 715 319 747 q 343 662 319 684 q 402 624 367 640 q 471 598 437 608 q 524 583 505 589 q 594 557 553 575 q 676 508 635 539 q 744 427 717 476 q 772 308 771 378 q 727 149 772 221 q 602 33 682 76 q 419 -11 522 -11 m 239 1328 l 406 1203 l 408 1203 l 581 1328 l 682 1219 l 430 1047 l 385 1047 l 133 1219 l 239 1328 m 411 1308 q 310 1349 351 1308 q 269 1450 269 1391 q 310 1552 269 1511 q 411 1592 351 1592 q 512 1552 471 1592 q 553 1450 553 1511 q 512 1349 553 1391 q 411 1308 471 1308 z "},"Ş":{"ha":817,"x_min":34,"x_max":772,"o":"m 419 -11 q 252 23 332 -11 q 114 114 172 56 q 34 241 56 171 l 273 342 q 304 283 283 311 q 355 236 325 254 q 422 217 385 217 q 472 229 450 217 q 509 259 495 240 q 522 301 522 278 q 503 350 522 330 q 453 383 483 370 q 390 406 423 397 q 331 425 357 416 q 204 483 264 446 q 107 577 144 519 q 69 720 69 635 q 110 870 69 805 q 227 973 151 936 q 406 1010 302 1010 q 563 983 494 1010 q 679 907 631 955 q 750 798 726 859 l 519 703 q 497 742 513 722 q 458 776 481 762 q 407 789 435 789 q 345 768 372 789 q 319 715 319 747 q 343 662 319 684 q 402 624 367 640 q 471 598 437 608 q 524 583 505 589 q 594 557 553 575 q 676 508 635 539 q 744 427 717 476 q 772 308 771 378 q 727 149 772 221 q 602 33 682 76 q 419 -11 522 -11 m 315 -355 l 315 -241 q 421 -228 390 -243 q 453 -189 453 -212 q 427 -157 453 -170 q 351 -138 401 -143 l 397 0 l 498 0 l 456 -111 l 448 -61 q 553 -106 513 -72 q 593 -199 593 -141 q 527 -313 593 -269 q 315 -355 461 -357 z "},"Ŝ":{"ha":817,"x_min":34,"x_max":772,"o":"m 419 -11 q 252 23 332 -11 q 114 114 172 56 q 34 241 56 171 l 273 342 q 304 283 283 311 q 355 236 325 254 q 422 217 385 217 q 472 229 450 217 q 509 259 495 240 q 522 301 522 278 q 503 350 522 330 q 453 383 483 370 q 390 406 423 397 q 331 425 357 416 q 204 483 264 446 q 107 577 144 519 q 69 720 69 635 q 110 870 69 805 q 227 973 151 936 q 406 1010 302 1010 q 563 983 494 1010 q 679 907 631 955 q 750 798 726 859 l 519 703 q 497 742 513 722 q 458 776 481 762 q 407 789 435 789 q 345 768 372 789 q 319 715 319 747 q 343 662 319 684 q 402 624 367 640 q 471 598 437 608 q 524 583 505 589 q 594 557 553 575 q 676 508 635 539 q 744 427 717 476 q 772 308 771 378 q 727 149 772 221 q 602 33 682 76 q 419 -11 522 -11 m 239 1050 l 133 1158 l 385 1331 l 430 1331 l 682 1158 l 581 1050 l 408 1175 l 406 1175 l 239 1050 z "},"Ș":{"ha":817,"x_min":34,"x_max":772,"o":"m 419 -11 q 252 23 332 -11 q 114 114 172 56 q 34 241 56 171 l 273 342 q 304 283 283 311 q 355 236 325 254 q 422 217 385 217 q 472 229 450 217 q 509 259 495 240 q 522 301 522 278 q 503 350 522 330 q 453 383 483 370 q 390 406 423 397 q 331 425 357 416 q 204 483 264 446 q 107 577 144 519 q 69 720 69 635 q 110 870 69 805 q 227 973 151 936 q 406 1010 302 1010 q 563 983 494 1010 q 679 907 631 955 q 750 798 726 859 l 519 703 q 497 742 513 722 q 458 776 481 762 q 407 789 435 789 q 345 768 372 789 q 319 715 319 747 q 343 662 319 684 q 402 624 367 640 q 471 598 437 608 q 524 583 505 589 q 594 557 553 575 q 676 508 635 539 q 744 427 717 476 q 772 308 771 378 q 727 149 772 221 q 602 33 682 76 q 419 -11 522 -11 m 357 -437 l 312 -378 l 380 -328 q 405 -306 389 -321 q 434 -271 421 -290 q 446 -236 446 -252 l 473 -236 q 460 -269 473 -254 q 418 -283 448 -283 q 351 -256 383 -283 q 317 -183 319 -229 q 349 -112 319 -139 q 418 -87 379 -85 q 493 -113 462 -85 q 524 -198 524 -141 q 507 -279 524 -243 q 468 -339 490 -314 q 429 -378 446 -364 l 357 -437 z "},"Ṡ":{"ha":817,"x_min":34,"x_max":772,"o":"m 419 -11 q 252 23 332 -11 q 114 114 172 56 q 34 241 56 171 l 273 342 q 304 283 283 311 q 355 236 325 254 q 422 217 385 217 q 472 229 450 217 q 509 259 495 240 q 522 301 522 278 q 503 350 522 330 q 453 383 483 370 q 390 406 423 397 q 331 425 357 416 q 204 483 264 446 q 107 577 144 519 q 69 720 69 635 q 110 870 69 805 q 227 973 151 936 q 406 1010 302 1010 q 563 983 494 1010 q 679 907 631 955 q 750 798 726 859 l 519 703 q 497 742 513 722 q 458 776 481 762 q 407 789 435 789 q 345 768 372 789 q 319 715 319 747 q 343 662 319 684 q 402 624 367 640 q 471 598 437 608 q 524 583 505 589 q 594 557 553 575 q 676 508 635 539 q 744 427 717 476 q 772 308 771 378 q 727 149 772 221 q 602 33 682 76 q 419 -11 522 -11 m 411 1057 q 310 1098 351 1057 q 269 1199 269 1140 q 310 1301 269 1260 q 411 1341 351 1341 q 512 1301 471 1341 q 553 1199 553 1260 q 512 1098 553 1140 q 411 1057 471 1057 z "},"Ṣ":{"ha":817,"x_min":34,"x_max":772,"o":"m 419 -11 q 252 23 332 -11 q 114 114 172 56 q 34 241 56 171 l 273 342 q 304 283 283 311 q 355 236 325 254 q 422 217 385 217 q 472 229 450 217 q 509 259 495 240 q 522 301 522 278 q 503 350 522 330 q 453 383 483 370 q 390 406 423 397 q 331 425 357 416 q 204 483 264 446 q 107 577 144 519 q 69 720 69 635 q 110 870 69 805 q 227 973 151 936 q 406 1010 302 1010 q 563 983 494 1010 q 679 907 631 955 q 750 798 726 859 l 519 703 q 497 742 513 722 q 458 776 481 762 q 407 789 435 789 q 345 768 372 789 q 319 715 319 747 q 343 662 319 684 q 402 624 367 640 q 471 598 437 608 q 524 583 505 589 q 594 557 553 575 q 676 508 635 539 q 744 427 717 476 q 772 308 771 378 q 727 149 772 221 q 602 33 682 76 q 419 -11 522 -11 m 430 -357 q 329 -315 370 -357 q 288 -214 288 -273 q 329 -113 288 -153 q 430 -72 370 -72 q 531 -113 490 -72 q 572 -214 572 -153 q 531 -315 572 -273 q 430 -357 490 -357 z "},"Ṩ":{"ha":817,"x_min":34,"x_max":772,"o":"m 419 -11 q 252 23 332 -11 q 114 114 172 56 q 34 241 56 171 l 273 342 q 304 283 283 311 q 355 236 325 254 q 422 217 385 217 q 472 229 450 217 q 509 259 495 240 q 522 301 522 278 q 503 350 522 330 q 453 383 483 370 q 390 406 423 397 q 331 425 357 416 q 204 483 264 446 q 107 577 144 519 q 69 720 69 635 q 110 870 69 805 q 227 973 151 936 q 406 1010 302 1010 q 563 983 494 1010 q 679 907 631 955 q 750 798 726 859 l 519 703 q 497 742 513 722 q 458 776 481 762 q 407 789 435 789 q 345 768 372 789 q 319 715 319 747 q 343 662 319 684 q 402 624 367 640 q 471 598 437 608 q 524 583 505 589 q 594 557 553 575 q 676 508 635 539 q 744 427 717 476 q 772 308 771 378 q 727 149 772 221 q 602 33 682 76 q 419 -11 522 -11 m 433 -357 q 332 -315 373 -357 q 290 -214 290 -273 q 332 -113 290 -153 q 433 -72 373 -72 q 534 -113 493 -72 q 575 -214 575 -153 q 534 -315 575 -273 q 433 -357 493 -357 m 433 1057 q 332 1098 373 1057 q 290 1199 290 1140 q 332 1301 290 1260 q 433 1341 373 1341 q 534 1301 493 1341 q 575 1199 575 1260 q 534 1098 575 1140 q 433 1057 493 1057 z "},"ẞ":{"ha":986,"x_min":77,"x_max":956,"o":"m 564 -11 q 518 -9 538 -11 q 475 -8 498 -8 l 475 220 q 525 213 509 215 q 555 212 541 212 q 641 225 606 212 q 693 264 675 238 q 712 328 711 290 q 677 419 713 380 q 562 458 641 458 l 488 458 l 488 500 l 609 825 l 623 764 q 585 785 614 777 q 509 793 555 793 q 411 779 447 793 q 356 743 374 764 q 333 699 338 721 q 327 661 327 676 l 327 0 l 77 0 l 77 692 q 97 804 77 753 q 153 893 117 854 q 242 958 190 932 q 358 997 294 984 q 498 1010 423 1010 q 641 1000 568 1010 q 776 972 714 989 q 875 933 838 954 l 875 909 l 708 519 l 700 633 q 841 579 783 623 q 927 471 898 536 q 956 326 956 405 q 908 148 956 224 q 773 31 861 73 q 564 -11 685 -11 z "},"T":{"ha":765,"x_min":22,"x_max":743,"o":"m 258 0 l 258 811 l 507 811 l 507 0 l 258 0 m 22 777 l 22 1000 l 743 1000 l 743 777 l 22 777 z "},"Ŧ":{"ha":765,"x_min":22,"x_max":743,"o":"m 258 0 l 258 811 l 507 811 l 507 0 l 258 0 m 22 777 l 22 1000 l 743 1000 l 743 777 l 22 777 m 155 397 l 155 511 l 610 511 l 610 397 l 155 397 z "},"Ť":{"ha":765,"x_min":22,"x_max":743,"o":"m 258 0 l 258 811 l 507 811 l 507 0 l 258 0 m 22 777 l 22 1000 l 743 1000 l 743 777 l 22 777 m 213 1328 l 380 1203 l 382 1203 l 555 1328 l 656 1219 l 404 1047 l 359 1047 l 107 1219 l 213 1328 z "},"Ţ":{"ha":765,"x_min":22,"x_max":743,"o":"m 258 0 l 258 811 l 507 811 l 507 0 l 258 0 m 22 777 l 22 1000 l 743 1000 l 743 777 l 22 777 m 250 -355 l 250 -241 q 356 -228 325 -243 q 388 -189 388 -212 q 362 -157 388 -170 q 286 -138 336 -143 l 332 0 l 433 0 l 391 -111 l 382 -61 q 488 -106 448 -72 q 528 -199 528 -141 q 462 -313 528 -269 q 250 -355 396 -357 z "},"Ț":{"ha":765,"x_min":22,"x_max":743,"o":"m 258 0 l 258 811 l 507 811 l 507 0 l 258 0 m 22 777 l 22 1000 l 743 1000 l 743 777 l 22 777 m 309 -437 l 264 -378 l 332 -328 q 358 -306 342 -321 q 386 -271 374 -290 q 399 -236 399 -252 l 426 -236 q 413 -269 426 -254 q 370 -283 400 -283 q 303 -256 336 -283 q 270 -183 271 -229 q 301 -112 271 -139 q 370 -87 332 -85 q 445 -113 414 -85 q 476 -198 476 -141 q 459 -279 476 -243 q 420 -339 443 -314 q 381 -378 398 -364 l 309 -437 z "},"Ṭ":{"ha":765,"x_min":22,"x_max":743,"o":"m 258 0 l 258 811 l 507 811 l 507 0 l 258 0 m 22 777 l 22 1000 l 743 1000 l 743 777 l 22 777 m 382 -357 q 281 -315 323 -357 q 240 -214 240 -273 q 281 -113 240 -153 q 382 -72 323 -72 q 484 -113 443 -72 q 525 -214 525 -153 q 484 -315 525 -273 q 382 -357 443 -357 z "},"Ṯ":{"ha":765,"x_min":22,"x_max":743,"o":"m 258 0 l 258 811 l 507 811 l 507 0 l 258 0 m 22 777 l 22 1000 l 743 1000 l 743 777 l 22 777 m 91 -289 l 91 -145 l 674 -145 l 674 -289 l 91 -289 z "},"U":{"ha":979,"x_min":84,"x_max":895,"o":"m 490 -11 q 275 40 366 -11 q 134 182 184 90 q 84 397 84 274 l 84 1000 l 334 1000 l 334 374 q 354 287 334 323 q 409 231 374 251 q 490 212 444 212 q 603 256 561 212 q 646 374 646 300 l 646 1000 l 895 1000 l 895 397 q 846 182 895 274 q 705 40 796 90 q 490 -11 614 -11 z "},"Ú":{"ha":979,"x_min":84,"x_max":895,"o":"m 490 -11 q 275 40 366 -11 q 134 182 184 90 q 84 397 84 274 l 84 1000 l 334 1000 l 334 374 q 354 287 334 323 q 409 231 374 251 q 490 212 444 212 q 603 256 561 212 q 646 374 646 300 l 646 1000 l 895 1000 l 895 397 q 846 182 895 274 q 705 40 796 90 q 490 -11 614 -11 m 490 1047 l 392 1145 l 639 1355 l 750 1208 l 490 1047 z "},"Ŭ":{"ha":979,"x_min":84,"x_max":895,"o":"m 490 -11 q 275 40 366 -11 q 134 182 184 90 q 84 397 84 274 l 84 1000 l 334 1000 l 334 374 q 354 287 334 323 q 409 231 374 251 q 490 212 444 212 q 603 256 561 212 q 646 374 646 300 l 646 1000 l 895 1000 l 895 397 q 846 182 895 274 q 705 40 796 90 q 490 -11 614 -11 m 490 1063 q 356 1090 417 1065 q 257 1165 294 1116 q 220 1291 220 1215 l 361 1291 q 402 1214 362 1238 q 490 1190 442 1190 q 579 1213 540 1190 q 617 1291 619 1236 l 761 1291 q 724 1165 762 1215 q 624 1090 686 1116 q 490 1063 562 1065 z "},"Û":{"ha":979,"x_min":84,"x_max":895,"o":"m 490 -11 q 275 40 366 -11 q 134 182 184 90 q 84 397 84 274 l 84 1000 l 334 1000 l 334 374 q 354 287 334 323 q 409 231 374 251 q 490 212 444 212 q 603 256 561 212 q 646 374 646 300 l 646 1000 l 895 1000 l 895 397 q 846 182 895 274 q 705 40 796 90 q 490 -11 614 -11 m 320 1050 l 214 1158 l 467 1331 l 511 1331 l 764 1158 l 662 1050 l 490 1175 l 487 1175 l 320 1050 z "},"Ȕ":{"ha":979,"x_min":84,"x_max":895,"o":"m 490 -11 q 275 40 366 -11 q 134 182 184 90 q 84 397 84 274 l 84 1000 l 334 1000 l 334 374 q 354 287 334 323 q 409 231 374 251 q 490 212 444 212 q 603 256 561 212 q 646 374 646 300 l 646 1000 l 895 1000 l 895 397 q 846 182 895 274 q 705 40 796 90 q 490 -11 614 -11 m 298 1055 l 114 1275 l 270 1362 l 418 1114 l 298 1055 m 578 1055 l 397 1275 l 553 1362 l 697 1114 l 578 1055 z "},"Ü":{"ha":979,"x_min":84,"x_max":895,"o":"m 490 -11 q 275 40 366 -11 q 134 182 184 90 q 84 397 84 274 l 84 1000 l 334 1000 l 334 374 q 354 287 334 323 q 409 231 374 251 q 490 212 444 212 q 603 256 561 212 q 646 374 646 300 l 646 1000 l 895 1000 l 895 397 q 846 182 895 274 q 705 40 796 90 q 490 -11 614 -11 m 665 1044 q 572 1081 610 1044 q 534 1172 534 1118 q 572 1264 534 1226 q 665 1302 610 1302 q 753 1264 717 1302 q 789 1173 789 1226 q 753 1081 789 1118 q 665 1044 717 1044 m 320 1044 q 230 1081 267 1044 q 193 1172 193 1118 q 230 1264 193 1226 q 320 1302 267 1302 q 411 1264 374 1302 q 448 1173 448 1226 q 411 1081 448 1118 q 320 1044 374 1044 z "},"Ụ":{"ha":979,"x_min":84,"x_max":895,"o":"m 490 -11 q 275 40 366 -11 q 134 182 184 90 q 84 397 84 274 l 84 1000 l 334 1000 l 334 374 q 354 287 334 323 q 409 231 374 251 q 490 212 444 212 q 603 256 561 212 q 646 374 646 300 l 646 1000 l 895 1000 l 895 397 q 846 182 895 274 q 705 40 796 90 q 490 -11 614 -11 m 492 -357 q 391 -315 433 -357 q 350 -214 350 -273 q 391 -113 350 -153 q 492 -72 433 -72 q 594 -113 553 -72 q 635 -214 635 -153 q 594 -315 635 -273 q 492 -357 553 -357 z "},"Ù":{"ha":979,"x_min":84,"x_max":895,"o":"m 490 -11 q 275 40 366 -11 q 134 182 184 90 q 84 397 84 274 l 84 1000 l 334 1000 l 334 374 q 354 287 334 323 q 409 231 374 251 q 490 212 444 212 q 603 256 561 212 q 646 374 646 300 l 646 1000 l 895 1000 l 895 397 q 846 182 895 274 q 705 40 796 90 q 490 -11 614 -11 m 490 1047 l 229 1208 l 340 1355 l 587 1145 l 490 1047 z "},"Ủ":{"ha":979,"x_min":84,"x_max":895,"o":"m 490 -11 q 275 40 366 -11 q 134 182 184 90 q 84 397 84 274 l 84 1000 l 334 1000 l 334 374 q 354 287 334 323 q 409 231 374 251 q 490 212 444 212 q 603 256 561 212 q 646 374 646 300 l 646 1000 l 895 1000 l 895 397 q 846 182 895 274 q 705 40 796 90 q 490 -11 614 -11 m 515 1044 l 431 1126 q 465 1155 449 1137 q 481 1191 481 1173 q 461 1218 481 1209 q 410 1226 441 1226 q 378 1224 395 1226 q 343 1214 361 1221 l 343 1351 q 388 1363 357 1359 q 446 1367 419 1367 q 576 1331 528 1367 q 624 1223 624 1294 q 590 1111 624 1158 q 515 1044 555 1064 z "},"Ư":{"ha":1050,"x_min":84,"x_max":1137,"o":"m 490 -11 q 275 40 366 -11 q 134 182 184 90 q 84 397 84 274 l 84 1000 l 334 1000 l 334 374 q 354 287 334 323 q 409 231 374 251 q 490 212 444 212 q 603 256 561 212 q 646 374 646 300 l 646 1000 l 895 1000 l 895 397 q 846 182 895 274 q 705 40 796 90 q 490 -11 614 -11 m 831 846 l 829 1000 q 930 1029 902 1000 q 959 1122 959 1058 q 957 1156 959 1138 q 951 1194 955 1173 l 1120 1225 q 1134 1165 1131 1198 q 1137 1114 1137 1132 q 1092 968 1137 1030 q 977 873 1047 906 q 831 846 907 841 z "},"Ứ":{"ha":1050,"x_min":84,"x_max":1137,"o":"m 490 -11 q 275 40 366 -11 q 134 182 184 90 q 84 397 84 274 l 84 1000 l 334 1000 l 334 374 q 354 287 334 323 q 409 231 374 251 q 490 212 444 212 q 603 256 561 212 q 646 374 646 300 l 646 1000 l 895 1000 l 895 397 q 846 182 895 274 q 705 40 796 90 q 490 -11 614 -11 m 831 846 l 829 1000 q 930 1029 902 1000 q 959 1122 959 1058 q 957 1156 959 1138 q 951 1194 955 1173 l 1120 1225 q 1134 1165 1131 1198 q 1137 1114 1137 1132 q 1092 968 1137 1030 q 977 873 1047 906 q 831 846 907 841 m 490 1047 l 392 1145 l 639 1355 l 750 1208 l 490 1047 z "},"Ự":{"ha":1050,"x_min":84,"x_max":1137,"o":"m 490 -11 q 275 40 366 -11 q 134 182 184 90 q 84 397 84 274 l 84 1000 l 334 1000 l 334 374 q 354 287 334 323 q 409 231 374 251 q 490 212 444 212 q 603 256 561 212 q 646 374 646 300 l 646 1000 l 895 1000 l 895 397 q 846 182 895 274 q 705 40 796 90 q 490 -11 614 -11 m 831 846 l 829 1000 q 930 1029 902 1000 q 959 1122 959 1058 q 957 1156 959 1138 q 951 1194 955 1173 l 1120 1225 q 1134 1165 1131 1198 q 1137 1114 1137 1132 q 1092 968 1137 1030 q 977 873 1047 906 q 831 846 907 841 m 492 -357 q 391 -315 433 -357 q 350 -214 350 -273 q 391 -113 350 -153 q 492 -72 433 -72 q 594 -113 553 -72 q 635 -214 635 -153 q 594 -315 635 -273 q 492 -357 553 -357 z "},"Ừ":{"ha":1050,"x_min":84,"x_max":1137,"o":"m 490 -11 q 275 40 366 -11 q 134 182 184 90 q 84 397 84 274 l 84 1000 l 334 1000 l 334 374 q 354 287 334 323 q 409 231 374 251 q 490 212 444 212 q 603 256 561 212 q 646 374 646 300 l 646 1000 l 895 1000 l 895 397 q 846 182 895 274 q 705 40 796 90 q 490 -11 614 -11 m 831 846 l 829 1000 q 930 1029 902 1000 q 959 1122 959 1058 q 957 1156 959 1138 q 951 1194 955 1173 l 1120 1225 q 1134 1165 1131 1198 q 1137 1114 1137 1132 q 1092 968 1137 1030 q 977 873 1047 906 q 831 846 907 841 m 490 1047 l 229 1208 l 340 1355 l 587 1145 l 490 1047 z "},"Ử":{"ha":1050,"x_min":84,"x_max":1137,"o":"m 490 -11 q 275 40 366 -11 q 134 182 184 90 q 84 397 84 274 l 84 1000 l 334 1000 l 334 374 q 354 287 334 323 q 409 231 374 251 q 490 212 444 212 q 603 256 561 212 q 646 374 646 300 l 646 1000 l 895 1000 l 895 397 q 846 182 895 274 q 705 40 796 90 q 490 -11 614 -11 m 831 846 l 829 1000 q 930 1029 902 1000 q 959 1122 959 1058 q 957 1156 959 1138 q 951 1194 955 1173 l 1120 1225 q 1134 1165 1131 1198 q 1137 1114 1137 1132 q 1092 968 1137 1030 q 977 873 1047 906 q 831 846 907 841 m 515 1044 l 431 1126 q 465 1155 449 1137 q 481 1191 481 1173 q 461 1218 481 1209 q 410 1226 441 1226 q 378 1224 395 1226 q 343 1214 361 1221 l 343 1351 q 388 1363 357 1359 q 446 1367 419 1367 q 576 1331 528 1367 q 624 1223 624 1294 q 590 1111 624 1158 q 515 1044 555 1064 z "},"Ữ":{"ha":1050,"x_min":84,"x_max":1137,"o":"m 490 -11 q 275 40 366 -11 q 134 182 184 90 q 84 397 84 274 l 84 1000 l 334 1000 l 334 374 q 354 287 334 323 q 409 231 374 251 q 490 212 444 212 q 603 256 561 212 q 646 374 646 300 l 646 1000 l 895 1000 l 895 397 q 846 182 895 274 q 705 40 796 90 q 490 -11 614 -11 m 831 846 l 829 1000 q 930 1029 902 1000 q 959 1122 959 1058 q 957 1156 959 1138 q 951 1194 955 1173 l 1120 1225 q 1134 1165 1131 1198 q 1137 1114 1137 1132 q 1092 968 1137 1030 q 977 873 1047 906 q 831 846 907 841 m 220 1063 q 264 1220 220 1158 q 389 1280 308 1282 q 456 1271 430 1282 q 501 1244 483 1259 q 535 1217 519 1229 q 570 1206 551 1206 q 608 1227 595 1206 q 620 1280 620 1248 l 761 1280 q 718 1128 762 1189 q 589 1063 673 1067 q 524 1077 549 1065 q 479 1104 498 1089 q 444 1131 460 1120 q 408 1142 428 1142 q 373 1122 384 1142 q 362 1063 362 1101 l 220 1063 z "},"Ű":{"ha":979,"x_min":84,"x_max":895,"o":"m 490 -11 q 275 40 366 -11 q 134 182 184 90 q 84 397 84 274 l 84 1000 l 334 1000 l 334 374 q 354 287 334 323 q 409 231 374 251 q 490 212 444 212 q 603 256 561 212 q 646 374 646 300 l 646 1000 l 895 1000 l 895 397 q 846 182 895 274 q 705 40 796 90 q 490 -11 614 -11 m 397 1055 l 278 1114 l 429 1362 l 582 1275 l 397 1055 m 681 1055 l 562 1114 l 707 1362 l 861 1275 l 681 1055 z "},"Ȗ":{"ha":979,"x_min":84,"x_max":895,"o":"m 490 -11 q 275 40 366 -11 q 134 182 184 90 q 84 397 84 274 l 84 1000 l 334 1000 l 334 374 q 354 287 334 323 q 409 231 374 251 q 490 212 444 212 q 603 256 561 212 q 646 374 646 300 l 646 1000 l 895 1000 l 895 397 q 846 182 895 274 q 705 40 796 90 q 490 -11 614 -11 m 490 1293 q 624 1265 562 1291 q 724 1191 686 1240 q 761 1065 762 1141 l 617 1065 q 579 1144 619 1121 q 490 1166 540 1166 q 402 1143 442 1166 q 361 1065 362 1119 l 220 1065 q 257 1191 220 1141 q 356 1265 294 1240 q 490 1293 417 1291 z "},"Ū":{"ha":979,"x_min":84,"x_max":895,"o":"m 490 -11 q 275 40 366 -11 q 134 182 184 90 q 84 397 84 274 l 84 1000 l 334 1000 l 334 374 q 354 287 334 323 q 409 231 374 251 q 490 212 444 212 q 603 256 561 212 q 646 374 646 300 l 646 1000 l 895 1000 l 895 397 q 846 182 895 274 q 705 40 796 90 q 490 -11 614 -11 m 212 1095 l 212 1251 l 766 1251 l 766 1095 l 212 1095 z "},"Ṻ":{"ha":979,"x_min":84,"x_max":895,"o":"m 490 -11 q 275 40 366 -11 q 134 182 184 90 q 84 397 84 274 l 84 1000 l 334 1000 l 334 374 q 354 287 334 323 q 409 231 374 251 q 490 212 444 212 q 603 256 561 212 q 646 374 646 300 l 646 1000 l 895 1000 l 895 397 q 846 182 895 274 q 705 40 796 90 q 490 -11 614 -11 m 212 1095 l 212 1251 l 766 1251 l 766 1095 l 212 1095 m 665 1295 q 572 1332 610 1295 q 534 1423 534 1369 q 572 1515 534 1477 q 665 1553 610 1553 q 753 1515 717 1553 q 789 1423 789 1477 q 753 1332 789 1369 q 665 1295 717 1295 m 320 1295 q 230 1332 267 1295 q 193 1423 193 1369 q 230 1515 193 1477 q 320 1553 267 1553 q 411 1515 374 1553 q 448 1423 448 1477 q 411 1332 448 1369 q 320 1295 374 1295 z "},"Ų":{"ha":979,"x_min":84,"x_max":895,"o":"m 490 -11 q 275 40 366 -11 q 134 182 184 90 q 84 397 84 274 l 84 1000 l 334 1000 l 334 374 q 354 287 334 323 q 409 231 374 251 q 490 212 444 212 q 603 256 561 212 q 646 374 646 300 l 646 1000 l 895 1000 l 895 397 q 846 182 895 274 q 705 40 796 90 q 490 -11 614 -11 m 469 -297 q 351 -258 396 -297 q 305 -153 305 -219 q 347 -51 305 -95 q 461 37 388 -6 l 583 0 q 517 -41 547 -21 q 469 -82 487 -62 q 450 -125 450 -103 q 465 -154 450 -144 q 511 -164 480 -164 q 551 -160 530 -164 q 583 -151 573 -157 l 583 -281 q 528 -293 563 -289 q 469 -297 493 -297 z "},"Ů":{"ha":979,"x_min":84,"x_max":895,"o":"m 490 -11 q 275 40 366 -11 q 134 182 184 90 q 84 397 84 274 l 84 1000 l 334 1000 l 334 374 q 354 287 334 323 q 409 231 374 251 q 490 212 444 212 q 603 256 561 212 q 646 374 646 300 l 646 1000 l 895 1000 l 895 397 q 846 182 895 274 q 705 40 796 90 q 490 -11 614 -11 m 490 1044 q 388 1070 433 1044 q 317 1139 343 1095 q 290 1236 290 1182 q 317 1336 290 1292 q 388 1406 343 1380 q 490 1431 433 1431 q 593 1406 547 1431 q 664 1336 638 1380 q 690 1236 690 1292 q 664 1139 690 1182 q 593 1070 638 1095 q 490 1044 547 1044 m 490 1169 q 538 1188 519 1169 q 557 1236 557 1207 q 538 1284 557 1265 q 490 1303 519 1303 q 442 1284 461 1303 q 423 1236 423 1265 q 442 1188 423 1207 q 490 1169 461 1169 z "},"Ũ":{"ha":979,"x_min":84,"x_max":895,"o":"m 490 -11 q 275 40 366 -11 q 134 182 184 90 q 84 397 84 274 l 84 1000 l 334 1000 l 334 374 q 354 287 334 323 q 409 231 374 251 q 490 212 444 212 q 603 256 561 212 q 646 374 646 300 l 646 1000 l 895 1000 l 895 397 q 846 182 895 274 q 705 40 796 90 q 490 -11 614 -11 m 220 1063 q 264 1220 220 1158 q 389 1280 308 1282 q 456 1271 430 1282 q 501 1244 483 1259 q 535 1217 519 1229 q 570 1206 551 1206 q 608 1227 595 1206 q 620 1280 620 1248 l 761 1280 q 718 1128 762 1189 q 589 1063 673 1067 q 524 1077 549 1065 q 479 1104 498 1089 q 444 1131 460 1120 q 408 1142 428 1142 q 373 1122 384 1142 q 362 1063 362 1101 l 220 1063 z "},"Ṹ":{"ha":979,"x_min":84,"x_max":895,"o":"m 490 -11 q 275 40 366 -11 q 134 182 184 90 q 84 397 84 274 l 84 1000 l 334 1000 l 334 374 q 354 287 334 323 q 409 231 374 251 q 490 212 444 212 q 603 256 561 212 q 646 374 646 300 l 646 1000 l 895 1000 l 895 397 q 846 182 895 274 q 705 40 796 90 q 490 -11 614 -11 m 220 1063 q 264 1220 220 1158 q 389 1280 308 1282 q 456 1271 430 1282 q 501 1244 483 1259 q 535 1217 519 1229 q 570 1206 551 1206 q 608 1227 595 1206 q 620 1280 620 1248 l 761 1280 q 718 1128 762 1189 q 589 1063 673 1067 q 524 1077 549 1065 q 479 1104 498 1089 q 444 1131 460 1120 q 408 1142 428 1142 q 373 1122 384 1142 q 362 1063 362 1101 l 220 1063 m 490 1325 l 392 1423 l 639 1633 l 750 1487 l 490 1325 z "},"V":{"ha":1006,"x_min":-11,"x_max":1017,"o":"m 400 0 l -11 1000 l 262 1000 l 406 609 l 500 336 l 506 336 l 597 609 l 742 1000 l 1017 1000 l 612 0 l 400 0 z "},"W":{"ha":1383,"x_min":-5,"x_max":1389,"o":"m 289 0 l -5 1000 l 255 1000 l 363 597 l 422 347 l 427 347 l 642 886 l 742 886 l 956 347 l 962 347 l 1020 597 l 1131 1000 l 1389 1000 l 1097 0 l 894 0 l 694 433 l 689 433 l 488 0 l 289 0 z "},"Ẃ":{"ha":1383,"x_min":-5,"x_max":1389,"o":"m 289 0 l -5 1000 l 255 1000 l 363 597 l 422 347 l 427 347 l 642 886 l 742 886 l 956 347 l 962 347 l 1020 597 l 1131 1000 l 1389 1000 l 1097 0 l 894 0 l 694 433 l 689 433 l 488 0 l 289 0 m 692 1047 l 594 1145 l 841 1355 l 952 1208 l 692 1047 z "},"Ŵ":{"ha":1383,"x_min":-5,"x_max":1389,"o":"m 289 0 l -5 1000 l 255 1000 l 363 597 l 422 347 l 427 347 l 642 886 l 742 886 l 956 347 l 962 347 l 1020 597 l 1131 1000 l 1389 1000 l 1097 0 l 894 0 l 694 433 l 689 433 l 488 0 l 289 0 m 522 1050 l 416 1158 l 669 1331 l 713 1331 l 966 1158 l 864 1050 l 692 1175 l 689 1175 l 522 1050 z "},"Ẅ":{"ha":1383,"x_min":-5,"x_max":1389,"o":"m 289 0 l -5 1000 l 255 1000 l 363 597 l 422 347 l 427 347 l 642 886 l 742 886 l 956 347 l 962 347 l 1020 597 l 1131 1000 l 1389 1000 l 1097 0 l 894 0 l 694 433 l 689 433 l 488 0 l 289 0 m 867 1044 q 774 1081 812 1044 q 736 1172 736 1118 q 774 1264 736 1226 q 867 1302 812 1302 q 955 1264 919 1302 q 991 1173 991 1226 q 955 1081 991 1118 q 867 1044 919 1044 m 522 1044 q 432 1081 469 1044 q 395 1172 395 1118 q 432 1264 395 1226 q 522 1302 469 1302 q 613 1264 576 1302 q 650 1173 650 1226 q 613 1081 650 1118 q 522 1044 576 1044 z "},"Ẁ":{"ha":1383,"x_min":-5,"x_max":1389,"o":"m 289 0 l -5 1000 l 255 1000 l 363 597 l 422 347 l 427 347 l 642 886 l 742 886 l 956 347 l 962 347 l 1020 597 l 1131 1000 l 1389 1000 l 1097 0 l 894 0 l 694 433 l 689 433 l 488 0 l 289 0 m 692 1047 l 431 1208 l 543 1355 l 789 1145 l 692 1047 z "},"X":{"ha":1010,"x_min":11,"x_max":1000,"o":"m 703 0 l 506 313 l 500 313 l 334 500 l 334 503 l 16 1000 l 305 1000 l 503 661 l 509 661 l 678 500 l 678 498 l 1000 0 l 703 0 m 11 0 l 334 498 l 334 500 l 500 661 l 506 661 l 703 1000 l 994 1000 l 678 503 l 678 500 l 509 313 l 503 313 l 305 0 l 11 0 z "},"Y":{"ha":917,"x_min":-11,"x_max":928,"o":"m 334 0 l 334 374 l -11 1000 l 275 1000 l 363 819 l 456 614 l 461 614 l 553 819 l 642 1000 l 928 1000 l 583 374 l 583 0 l 334 0 z "},"Ý":{"ha":917,"x_min":-11,"x_max":928,"o":"m 334 0 l 334 374 l -11 1000 l 275 1000 l 363 819 l 456 614 l 461 614 l 553 819 l 642 1000 l 928 1000 l 583 374 l 583 0 l 334 0 m 458 1047 l 361 1145 l 608 1355 l 719 1208 l 458 1047 z "},"Ŷ":{"ha":917,"x_min":-11,"x_max":928,"o":"m 334 0 l 334 374 l -11 1000 l 275 1000 l 363 819 l 456 614 l 461 614 l 553 819 l 642 1000 l 928 1000 l 583 374 l 583 0 l 334 0 m 289 1050 l 183 1158 l 435 1331 l 480 1331 l 732 1158 l 631 1050 l 458 1175 l 456 1175 l 289 1050 z "},"Ÿ":{"ha":917,"x_min":-11,"x_max":928,"o":"m 334 0 l 334 374 l -11 1000 l 275 1000 l 363 819 l 456 614 l 461 614 l 553 819 l 642 1000 l 928 1000 l 583 374 l 583 0 l 334 0 m 633 1044 q 541 1081 579 1044 q 503 1172 503 1118 q 541 1264 503 1226 q 633 1302 579 1302 q 722 1264 686 1302 q 758 1173 758 1226 q 722 1081 758 1118 q 633 1044 686 1044 m 289 1044 q 198 1081 235 1044 q 161 1172 161 1118 q 198 1264 161 1226 q 289 1302 235 1302 q 379 1264 342 1302 q 416 1173 416 1226 q 379 1081 416 1118 q 289 1044 342 1044 z "},"Ẏ":{"ha":917,"x_min":-11,"x_max":928,"o":"m 334 0 l 334 374 l -11 1000 l 275 1000 l 363 819 l 456 614 l 461 614 l 553 819 l 642 1000 l 928 1000 l 583 374 l 583 0 l 334 0 m 461 1057 q 360 1098 401 1057 q 319 1199 319 1140 q 360 1301 319 1260 q 461 1341 401 1341 q 563 1301 522 1341 q 604 1199 604 1260 q 563 1098 604 1140 q 461 1057 522 1057 z "},"Ỵ":{"ha":917,"x_min":-11,"x_max":928,"o":"m 334 0 l 334 374 l -11 1000 l 275 1000 l 363 819 l 456 614 l 461 614 l 553 819 l 642 1000 l 928 1000 l 583 374 l 583 0 l 334 0 m 461 -357 q 360 -315 401 -357 q 319 -214 319 -273 q 360 -113 319 -153 q 461 -72 401 -72 q 563 -113 522 -72 q 604 -214 604 -153 q 563 -315 604 -273 q 461 -357 522 -357 z "},"Ỳ":{"ha":917,"x_min":-11,"x_max":928,"o":"m 334 0 l 334 374 l -11 1000 l 275 1000 l 363 819 l 456 614 l 461 614 l 553 819 l 642 1000 l 928 1000 l 583 374 l 583 0 l 334 0 m 458 1047 l 198 1208 l 309 1355 l 556 1145 l 458 1047 z "},"Ỷ":{"ha":917,"x_min":-11,"x_max":928,"o":"m 334 0 l 334 374 l -11 1000 l 275 1000 l 363 819 l 456 614 l 461 614 l 553 819 l 642 1000 l 928 1000 l 583 374 l 583 0 l 334 0 m 484 1044 l 400 1126 q 434 1155 418 1137 q 450 1191 450 1173 q 430 1218 450 1209 q 378 1226 410 1226 q 347 1224 363 1226 q 312 1214 330 1221 l 312 1351 q 357 1363 326 1359 q 415 1367 388 1367 q 545 1331 496 1367 q 593 1223 593 1294 q 558 1111 593 1158 q 484 1044 524 1064 z "},"Ȳ":{"ha":917,"x_min":-11,"x_max":928,"o":"m 334 0 l 334 374 l -11 1000 l 275 1000 l 363 819 l 456 614 l 461 614 l 553 819 l 642 1000 l 928 1000 l 583 374 l 583 0 l 334 0 m 180 1095 l 180 1251 l 735 1251 l 735 1095 l 180 1095 z "},"Ỹ":{"ha":917,"x_min":-11,"x_max":928,"o":"m 334 0 l 334 374 l -11 1000 l 275 1000 l 363 819 l 456 614 l 461 614 l 553 819 l 642 1000 l 928 1000 l 583 374 l 583 0 l 334 0 m 189 1063 q 233 1220 189 1158 q 358 1280 277 1282 q 425 1271 399 1282 q 470 1244 452 1259 q 504 1217 488 1229 q 538 1206 519 1206 q 576 1227 564 1206 q 589 1280 589 1248 l 730 1280 q 687 1128 731 1189 q 557 1063 642 1067 q 492 1077 518 1065 q 448 1104 467 1089 q 413 1131 429 1120 q 377 1142 397 1142 q 342 1122 353 1142 q 331 1063 331 1101 l 189 1063 z "},"Z":{"ha":838,"x_min":34,"x_max":806,"o":"m 34 0 l 34 34 l 430 777 l 430 780 l 53 780 l 53 1000 l 795 1000 l 795 964 l 400 222 l 400 220 l 806 220 l 806 0 l 34 0 z "},"Ź":{"ha":838,"x_min":34,"x_max":806,"o":"m 34 0 l 34 34 l 430 777 l 430 780 l 53 780 l 53 1000 l 795 1000 l 795 964 l 400 222 l 400 220 l 806 220 l 806 0 l 34 0 m 419 1047 l 321 1145 l 568 1355 l 680 1208 l 419 1047 z "},"Ž":{"ha":838,"x_min":34,"x_max":806,"o":"m 34 0 l 34 34 l 430 777 l 430 780 l 53 780 l 53 1000 l 795 1000 l 795 964 l 400 222 l 400 220 l 806 220 l 806 0 l 34 0 m 250 1328 l 416 1203 l 419 1203 l 591 1328 l 693 1219 l 441 1047 l 396 1047 l 144 1219 l 250 1328 z "},"Ż":{"ha":838,"x_min":34,"x_max":806,"o":"m 34 0 l 34 34 l 430 777 l 430 780 l 53 780 l 53 1000 l 795 1000 l 795 964 l 400 222 l 400 220 l 806 220 l 806 0 l 34 0 m 422 1057 q 321 1098 362 1057 q 279 1199 279 1140 q 321 1301 279 1260 q 422 1341 362 1341 q 523 1301 482 1341 q 564 1199 564 1260 q 523 1098 564 1140 q 422 1057 482 1057 z "},"Ẓ":{"ha":838,"x_min":34,"x_max":806,"o":"m 34 0 l 34 34 l 430 777 l 430 780 l 53 780 l 53 1000 l 795 1000 l 795 964 l 400 222 l 400 220 l 806 220 l 806 0 l 34 0 m 419 -357 q 318 -315 359 -357 q 277 -214 277 -273 q 318 -113 277 -153 q 419 -72 359 -72 q 520 -113 479 -72 q 562 -214 562 -153 q 520 -315 562 -273 q 419 -357 479 -357 z "},"a":{"ha":777,"x_min":27,"x_max":750,"o":"m 278 -11 q 146 19 203 -11 q 59 100 90 50 q 27 212 27 151 q 62 330 27 278 q 162 412 98 382 q 313 442 227 442 l 500 442 l 500 297 l 363 297 q 287 281 312 297 q 262 231 262 264 q 273 197 262 212 q 302 175 283 183 q 345 167 321 167 q 397 174 367 167 q 450 200 427 182 q 472 252 472 219 l 472 347 l 464 374 l 464 480 q 455 513 464 499 q 430 535 446 526 q 394 549 414 545 q 353 553 374 553 q 286 546 322 553 q 215 527 250 539 q 153 498 180 514 l 72 675 q 142 706 98 690 q 245 733 186 722 q 374 745 304 745 q 544 720 480 745 q 639 656 607 695 q 681 571 671 616 q 692 483 692 525 l 692 270 q 702 219 692 237 q 734 194 712 201 l 750 189 l 667 -11 l 639 -3 q 535 52 572 16 q 491 122 498 87 l 551 80 l 442 80 l 514 95 q 429 21 494 54 q 278 -11 363 -11 z "},"á":{"ha":777,"x_min":27,"x_max":750,"o":"m 278 -11 q 146 19 203 -11 q 59 100 90 50 q 27 212 27 151 q 62 330 27 278 q 162 412 98 382 q 313 442 227 442 l 500 442 l 500 297 l 363 297 q 287 281 312 297 q 262 231 262 264 q 273 197 262 212 q 302 175 283 183 q 345 167 321 167 q 397 174 367 167 q 450 200 427 182 q 472 252 472 219 l 472 347 l 464 374 l 464 480 q 455 513 464 499 q 430 535 446 526 q 394 549 414 545 q 353 553 374 553 q 286 546 322 553 q 215 527 250 539 q 153 498 180 514 l 72 675 q 142 706 98 690 q 245 733 186 722 q 374 745 304 745 q 544 720 480 745 q 639 656 607 695 q 681 571 671 616 q 692 483 692 525 l 692 270 q 702 219 692 237 q 734 194 712 201 l 750 189 l 667 -11 l 639 -3 q 535 52 572 16 q 491 122 498 87 l 551 80 l 442 80 l 514 95 q 429 21 494 54 q 278 -11 363 -11 m 387 780 l 286 864 l 495 1127 l 623 1000 l 387 780 z "},"ă":{"ha":777,"x_min":27,"x_max":750,"o":"m 278 -11 q 146 19 203 -11 q 59 100 90 50 q 27 212 27 151 q 62 330 27 278 q 162 412 98 382 q 313 442 227 442 l 500 442 l 500 297 l 363 297 q 287 281 312 297 q 262 231 262 264 q 273 197 262 212 q 302 175 283 183 q 345 167 321 167 q 397 174 367 167 q 450 200 427 182 q 472 252 472 219 l 472 347 l 464 374 l 464 480 q 455 513 464 499 q 430 535 446 526 q 394 549 414 545 q 353 553 374 553 q 286 546 322 553 q 215 527 250 539 q 153 498 180 514 l 72 675 q 142 706 98 690 q 245 733 186 722 q 374 745 304 745 q 544 720 480 745 q 639 656 607 695 q 681 571 671 616 q 692 483 692 525 l 692 270 q 702 219 692 237 q 734 194 712 201 l 750 189 l 667 -11 l 639 -3 q 535 52 572 16 q 491 122 498 87 l 551 80 l 442 80 l 514 95 q 429 21 494 54 q 278 -11 363 -11 m 387 806 q 248 838 309 806 q 150 923 186 869 q 114 1044 114 977 l 258 1044 q 296 965 259 998 q 387 933 333 933 q 477 965 441 933 q 514 1044 514 998 l 658 1044 q 623 923 659 977 q 525 838 587 869 q 387 806 463 806 z "},"ắ":{"ha":777,"x_min":27,"x_max":750,"o":"m 278 -11 q 146 19 203 -11 q 59 100 90 50 q 27 212 27 151 q 62 330 27 278 q 162 412 98 382 q 313 442 227 442 l 500 442 l 500 297 l 363 297 q 287 281 312 297 q 262 231 262 264 q 273 197 262 212 q 302 175 283 183 q 345 167 321 167 q 397 174 367 167 q 450 200 427 182 q 472 252 472 219 l 472 347 l 464 374 l 464 480 q 455 513 464 499 q 430 535 446 526 q 394 549 414 545 q 353 553 374 553 q 286 546 322 553 q 215 527 250 539 q 153 498 180 514 l 72 675 q 142 706 98 690 q 245 733 186 722 q 374 745 304 745 q 544 720 480 745 q 639 656 607 695 q 681 571 671 616 q 692 483 692 525 l 692 270 q 702 219 692 237 q 734 194 712 201 l 750 189 l 667 -11 l 639 -3 q 535 52 572 16 q 491 122 498 87 l 551 80 l 442 80 l 514 95 q 429 21 494 54 q 278 -11 363 -11 m 370 994 l 288 1103 l 529 1297 l 632 1153 l 370 994 m 387 806 q 246 835 308 806 q 149 915 184 864 q 114 1031 114 966 l 258 1031 q 294 957 258 986 q 387 928 331 928 q 477 957 441 928 q 513 1031 513 986 l 656 1031 q 622 915 656 966 q 526 835 587 864 q 387 806 465 806 z "},"ặ":{"ha":777,"x_min":27,"x_max":750,"o":"m 278 -11 q 146 19 203 -11 q 59 100 90 50 q 27 212 27 151 q 62 330 27 278 q 162 412 98 382 q 313 442 227 442 l 500 442 l 500 297 l 363 297 q 287 281 312 297 q 262 231 262 264 q 273 197 262 212 q 302 175 283 183 q 345 167 321 167 q 397 174 367 167 q 450 200 427 182 q 472 252 472 219 l 472 347 l 464 374 l 464 480 q 455 513 464 499 q 430 535 446 526 q 394 549 414 545 q 353 553 374 553 q 286 546 322 553 q 215 527 250 539 q 153 498 180 514 l 72 675 q 142 706 98 690 q 245 733 186 722 q 374 745 304 745 q 544 720 480 745 q 639 656 607 695 q 681 571 671 616 q 692 483 692 525 l 692 270 q 702 219 692 237 q 734 194 712 201 l 750 189 l 667 -11 l 639 -3 q 535 52 572 16 q 491 122 498 87 l 551 80 l 442 80 l 514 95 q 429 21 494 54 q 278 -11 363 -11 m 369 -357 q 268 -315 309 -357 q 227 -214 227 -273 q 268 -113 227 -153 q 369 -72 309 -72 q 470 -113 429 -72 q 511 -214 511 -153 q 470 -315 511 -273 q 369 -357 429 -357 m 387 806 q 248 838 309 806 q 150 923 186 869 q 114 1044 114 977 l 258 1044 q 296 965 259 998 q 387 933 333 933 q 477 965 441 933 q 514 1044 514 998 l 658 1044 q 623 923 659 977 q 525 838 587 869 q 387 806 463 806 z "},"ằ":{"ha":777,"x_min":27,"x_max":750,"o":"m 278 -11 q 146 19 203 -11 q 59 100 90 50 q 27 212 27 151 q 62 330 27 278 q 162 412 98 382 q 313 442 227 442 l 500 442 l 500 297 l 363 297 q 287 281 312 297 q 262 231 262 264 q 273 197 262 212 q 302 175 283 183 q 345 167 321 167 q 397 174 367 167 q 450 200 427 182 q 472 252 472 219 l 472 347 l 464 374 l 464 480 q 455 513 464 499 q 430 535 446 526 q 394 549 414 545 q 353 553 374 553 q 286 546 322 553 q 215 527 250 539 q 153 498 180 514 l 72 675 q 142 706 98 690 q 245 733 186 722 q 374 745 304 745 q 544 720 480 745 q 639 656 607 695 q 681 571 671 616 q 692 483 692 525 l 692 270 q 702 219 692 237 q 734 194 712 201 l 750 189 l 667 -11 l 639 -3 q 535 52 572 16 q 491 122 498 87 l 551 80 l 442 80 l 514 95 q 429 21 494 54 q 278 -11 363 -11 m 403 994 l 141 1153 l 244 1297 l 486 1103 l 403 994 m 387 806 q 248 835 309 806 q 152 915 186 864 q 117 1031 117 966 l 260 1031 q 296 957 260 986 q 387 928 332 928 q 479 957 443 928 q 515 1031 515 986 l 659 1031 q 624 915 659 966 q 527 835 589 864 q 387 806 466 806 z "},"ẳ":{"ha":777,"x_min":27,"x_max":750,"o":"m 278 -11 q 146 19 203 -11 q 59 100 90 50 q 27 212 27 151 q 62 330 27 278 q 162 412 98 382 q 313 442 227 442 l 500 442 l 500 297 l 363 297 q 287 281 312 297 q 262 231 262 264 q 273 197 262 212 q 302 175 283 183 q 345 167 321 167 q 397 174 367 167 q 450 200 427 182 q 472 252 472 219 l 472 347 l 464 374 l 464 480 q 455 513 464 499 q 430 535 446 526 q 394 549 414 545 q 353 553 374 553 q 286 546 322 553 q 215 527 250 539 q 153 498 180 514 l 72 675 q 142 706 98 690 q 245 733 186 722 q 374 745 304 745 q 544 720 480 745 q 639 656 607 695 q 681 571 671 616 q 692 483 692 525 l 692 270 q 702 219 692 237 q 734 194 712 201 l 750 189 l 667 -11 l 639 -3 q 535 52 572 16 q 491 122 498 87 l 551 80 l 442 80 l 514 95 q 429 21 494 54 q 278 -11 363 -11 m 387 806 q 248 835 309 806 q 152 915 186 864 q 117 1031 117 966 l 260 1031 q 296 957 260 986 q 387 928 332 928 q 479 957 443 928 q 515 1031 515 986 l 659 1031 q 624 915 659 966 q 527 835 589 864 q 387 806 466 806 m 387 971 l 302 1053 q 336 1082 320 1064 q 353 1118 353 1099 q 333 1144 353 1136 q 281 1153 313 1153 q 249 1151 266 1153 q 214 1141 232 1148 l 214 1278 q 259 1290 229 1286 q 317 1294 290 1294 q 447 1257 399 1294 q 495 1150 495 1221 q 461 1038 495 1085 q 387 971 427 991 z "},"ẵ":{"ha":777,"x_min":27,"x_max":750,"o":"m 278 -11 q 146 19 203 -11 q 59 100 90 50 q 27 212 27 151 q 62 330 27 278 q 162 412 98 382 q 313 442 227 442 l 500 442 l 500 297 l 363 297 q 287 281 312 297 q 262 231 262 264 q 273 197 262 212 q 302 175 283 183 q 345 167 321 167 q 397 174 367 167 q 450 200 427 182 q 472 252 472 219 l 472 347 l 464 374 l 464 480 q 455 513 464 499 q 430 535 446 526 q 394 549 414 545 q 353 553 374 553 q 286 546 322 553 q 215 527 250 539 q 153 498 180 514 l 72 675 q 142 706 98 690 q 245 733 186 722 q 374 745 304 745 q 544 720 480 745 q 639 656 607 695 q 681 571 671 616 q 692 483 692 525 l 692 270 q 702 219 692 237 q 734 194 712 201 l 750 189 l 667 -11 l 639 -3 q 535 52 572 16 q 491 122 498 87 l 551 80 l 442 80 l 514 95 q 429 21 494 54 q 278 -11 363 -11 m 117 1076 q 161 1233 117 1171 q 286 1294 205 1294 q 352 1282 326 1294 q 397 1255 378 1271 q 432 1228 416 1240 q 467 1217 448 1217 q 504 1238 492 1217 q 514 1294 516 1259 l 658 1294 q 638 1184 659 1234 q 579 1105 618 1135 q 486 1076 540 1076 q 420 1087 446 1076 q 376 1114 395 1099 q 341 1141 357 1130 q 305 1153 325 1153 q 270 1133 281 1153 q 258 1076 259 1114 l 117 1076 m 387 806 q 248 835 309 806 q 152 915 186 864 q 117 1031 117 966 l 260 1031 q 296 957 260 986 q 387 928 332 928 q 479 957 443 928 q 515 1031 515 986 l 659 1031 q 624 915 659 966 q 527 835 589 864 q 387 806 466 806 z "},"ǎ":{"ha":777,"x_min":27,"x_max":750,"o":"m 278 -11 q 146 19 203 -11 q 59 100 90 50 q 27 212 27 151 q 62 330 27 278 q 162 412 98 382 q 313 442 227 442 l 500 442 l 500 297 l 363 297 q 287 281 312 297 q 262 231 262 264 q 273 197 262 212 q 302 175 283 183 q 345 167 321 167 q 397 174 367 167 q 450 200 427 182 q 472 252 472 219 l 472 347 l 464 374 l 464 480 q 455 513 464 499 q 430 535 446 526 q 394 549 414 545 q 353 553 374 553 q 286 546 322 553 q 215 527 250 539 q 153 498 180 514 l 72 675 q 142 706 98 690 q 245 733 186 722 q 374 745 304 745 q 544 720 480 745 q 639 656 607 695 q 681 571 671 616 q 692 483 692 525 l 692 270 q 702 219 692 237 q 734 194 712 201 l 750 189 l 667 -11 l 639 -3 q 535 52 572 16 q 491 122 498 87 l 551 80 l 442 80 l 514 95 q 429 21 494 54 q 278 -11 363 -11 m 199 1105 l 384 949 l 389 949 l 574 1105 l 663 994 l 410 783 l 363 783 l 110 994 l 199 1105 z "},"â":{"ha":777,"x_min":27,"x_max":750,"o":"m 278 -11 q 146 19 203 -11 q 59 100 90 50 q 27 212 27 151 q 62 330 27 278 q 162 412 98 382 q 313 442 227 442 l 500 442 l 500 297 l 363 297 q 287 281 312 297 q 262 231 262 264 q 273 197 262 212 q 302 175 283 183 q 345 167 321 167 q 397 174 367 167 q 450 200 427 182 q 472 252 472 219 l 472 347 l 464 374 l 464 480 q 455 513 464 499 q 430 535 446 526 q 394 549 414 545 q 353 553 374 553 q 286 546 322 553 q 215 527 250 539 q 153 498 180 514 l 72 675 q 142 706 98 690 q 245 733 186 722 q 374 745 304 745 q 544 720 480 745 q 639 656 607 695 q 681 571 671 616 q 692 483 692 525 l 692 270 q 702 219 692 237 q 734 194 712 201 l 750 189 l 667 -11 l 639 -3 q 535 52 572 16 q 491 122 498 87 l 551 80 l 442 80 l 514 95 q 429 21 494 54 q 278 -11 363 -11 m 199 769 l 110 880 l 363 1092 l 410 1092 l 663 880 l 574 769 l 389 925 l 384 925 l 199 769 z "},"ấ":{"ha":777,"x_min":27,"x_max":856,"o":"m 278 -11 q 146 19 203 -11 q 59 100 90 50 q 27 212 27 151 q 62 330 27 278 q 162 412 98 382 q 313 442 227 442 l 500 442 l 500 297 l 363 297 q 287 281 312 297 q 262 231 262 264 q 273 197 262 212 q 302 175 283 183 q 345 167 321 167 q 397 174 367 167 q 450 200 427 182 q 472 252 472 219 l 472 347 l 464 374 l 464 480 q 455 513 464 499 q 430 535 446 526 q 394 549 414 545 q 353 553 374 553 q 286 546 322 553 q 215 527 250 539 q 153 498 180 514 l 72 675 q 142 706 98 690 q 245 733 186 722 q 374 745 304 745 q 544 720 480 745 q 639 656 607 695 q 681 571 671 616 q 692 483 692 525 l 692 270 q 702 219 692 237 q 734 194 712 201 l 750 189 l 667 -11 l 639 -3 q 535 52 572 16 q 491 122 498 87 l 551 80 l 442 80 l 514 95 q 429 21 494 54 q 278 -11 363 -11 m 617 989 l 514 1061 l 745 1294 l 856 1145 l 617 989 m 217 784 l 111 891 l 363 1061 l 408 1061 l 661 891 l 559 784 l 387 909 l 384 909 l 217 784 z "},"ậ":{"ha":777,"x_min":27,"x_max":750,"o":"m 278 -11 q 146 19 203 -11 q 59 100 90 50 q 27 212 27 151 q 62 330 27 278 q 162 412 98 382 q 313 442 227 442 l 500 442 l 500 297 l 363 297 q 287 281 312 297 q 262 231 262 264 q 273 197 262 212 q 302 175 283 183 q 345 167 321 167 q 397 174 367 167 q 450 200 427 182 q 472 252 472 219 l 472 347 l 464 374 l 464 480 q 455 513 464 499 q 430 535 446 526 q 394 549 414 545 q 353 553 374 553 q 286 546 322 553 q 215 527 250 539 q 153 498 180 514 l 72 675 q 142 706 98 690 q 245 733 186 722 q 374 745 304 745 q 544 720 480 745 q 639 656 607 695 q 681 571 671 616 q 692 483 692 525 l 692 270 q 702 219 692 237 q 734 194 712 201 l 750 189 l 667 -11 l 639 -3 q 535 52 572 16 q 491 122 498 87 l 551 80 l 442 80 l 514 95 q 429 21 494 54 q 278 -11 363 -11 m 369 -357 q 268 -315 309 -357 q 227 -214 227 -273 q 268 -113 227 -153 q 369 -72 309 -72 q 470 -113 429 -72 q 511 -214 511 -153 q 470 -315 511 -273 q 369 -357 429 -357 m 199 769 l 110 880 l 363 1092 l 410 1092 l 663 880 l 574 769 l 389 925 l 384 925 l 199 769 z "},"ầ":{"ha":777,"x_min":-83,"x_max":750,"o":"m 278 -11 q 146 19 203 -11 q 59 100 90 50 q 27 212 27 151 q 62 330 27 278 q 162 412 98 382 q 313 442 227 442 l 500 442 l 500 297 l 363 297 q 287 281 312 297 q 262 231 262 264 q 273 197 262 212 q 302 175 283 183 q 345 167 321 167 q 397 174 367 167 q 450 200 427 182 q 472 252 472 219 l 472 347 l 464 374 l 464 480 q 455 513 464 499 q 430 535 446 526 q 394 549 414 545 q 353 553 374 553 q 286 546 322 553 q 215 527 250 539 q 153 498 180 514 l 72 675 q 142 706 98 690 q 245 733 186 722 q 374 745 304 745 q 544 720 480 745 q 639 656 607 695 q 681 571 671 616 q 692 483 692 525 l 692 270 q 702 219 692 237 q 734 194 712 201 l 750 189 l 667 -11 l 639 -3 q 535 52 572 16 q 491 122 498 87 l 551 80 l 442 80 l 514 95 q 429 21 494 54 q 278 -11 363 -11 m 156 989 l -83 1145 l 28 1294 l 259 1061 l 156 989 m 556 784 l 389 909 l 387 909 l 214 784 l 113 891 l 365 1061 l 410 1061 l 662 891 l 556 784 z "},"ẩ":{"ha":777,"x_min":27,"x_max":750,"o":"m 278 -11 q 146 19 203 -11 q 59 100 90 50 q 27 212 27 151 q 62 330 27 278 q 162 412 98 382 q 313 442 227 442 l 500 442 l 500 297 l 363 297 q 287 281 312 297 q 262 231 262 264 q 273 197 262 212 q 302 175 283 183 q 345 167 321 167 q 397 174 367 167 q 450 200 427 182 q 472 252 472 219 l 472 347 l 464 374 l 464 480 q 455 513 464 499 q 430 535 446 526 q 394 549 414 545 q 353 553 374 553 q 286 546 322 553 q 215 527 250 539 q 153 498 180 514 l 72 675 q 142 706 98 690 q 245 733 186 722 q 374 745 304 745 q 544 720 480 745 q 639 656 607 695 q 681 571 671 616 q 692 483 692 525 l 692 270 q 702 219 692 237 q 734 194 712 201 l 750 189 l 667 -11 l 639 -3 q 535 52 572 16 q 491 122 498 87 l 551 80 l 442 80 l 514 95 q 429 21 494 54 q 278 -11 363 -11 m 605 991 l 522 1053 q 557 1083 544 1068 q 570 1114 570 1097 q 553 1143 570 1133 q 500 1153 536 1153 q 468 1151 484 1153 q 430 1142 452 1148 l 430 1280 q 477 1291 446 1288 q 536 1294 509 1294 q 663 1259 615 1294 q 711 1147 711 1225 q 693 1080 711 1110 q 652 1027 676 1049 q 605 991 627 1004 m 217 784 l 111 891 l 363 1061 l 408 1061 l 661 891 l 559 784 l 387 909 l 384 909 l 217 784 z "},"ẫ":{"ha":777,"x_min":27,"x_max":750,"o":"m 278 -11 q 146 19 203 -11 q 59 100 90 50 q 27 212 27 151 q 62 330 27 278 q 162 412 98 382 q 313 442 227 442 l 500 442 l 500 297 l 363 297 q 287 281 312 297 q 262 231 262 264 q 273 197 262 212 q 302 175 283 183 q 345 167 321 167 q 397 174 367 167 q 450 200 427 182 q 472 252 472 219 l 472 347 l 464 374 l 464 480 q 455 513 464 499 q 430 535 446 526 q 394 549 414 545 q 353 553 374 553 q 286 546 322 553 q 215 527 250 539 q 153 498 180 514 l 72 675 q 142 706 98 690 q 245 733 186 722 q 374 745 304 745 q 544 720 480 745 q 639 656 607 695 q 681 571 671 616 q 692 483 692 525 l 692 270 q 702 219 692 237 q 734 194 712 201 l 750 189 l 667 -11 l 639 -3 q 535 52 572 16 q 491 122 498 87 l 551 80 l 442 80 l 514 95 q 429 21 494 54 q 278 -11 363 -11 m 117 1076 q 160 1233 115 1171 q 286 1294 205 1294 q 352 1282 326 1294 q 396 1255 378 1271 q 431 1228 414 1240 q 467 1217 447 1217 q 502 1238 490 1217 q 514 1294 514 1259 l 658 1294 q 643 1184 659 1234 q 592 1105 627 1135 q 503 1076 557 1076 q 438 1087 464 1076 q 394 1114 412 1099 q 360 1141 376 1130 q 326 1153 345 1153 q 279 1133 298 1153 q 258 1076 259 1114 l 117 1076 m 217 784 l 111 891 l 363 1061 l 408 1061 l 661 891 l 559 784 l 387 909 l 384 909 l 217 784 z "},"ȁ":{"ha":777,"x_min":27,"x_max":750,"o":"m 278 -11 q 146 19 203 -11 q 59 100 90 50 q 27 212 27 151 q 62 330 27 278 q 162 412 98 382 q 313 442 227 442 l 500 442 l 500 297 l 363 297 q 287 281 312 297 q 262 231 262 264 q 273 197 262 212 q 302 175 283 183 q 345 167 321 167 q 397 174 367 167 q 450 200 427 182 q 472 252 472 219 l 472 347 l 464 374 l 464 480 q 455 513 464 499 q 430 535 446 526 q 394 549 414 545 q 353 553 374 553 q 286 546 322 553 q 215 527 250 539 q 153 498 180 514 l 72 675 q 142 706 98 690 q 245 733 186 722 q 374 745 304 745 q 544 720 480 745 q 639 656 607 695 q 681 571 671 616 q 692 483 692 525 l 692 270 q 702 219 692 237 q 734 194 712 201 l 750 189 l 667 -11 l 639 -3 q 535 52 572 16 q 491 122 498 87 l 551 80 l 442 80 l 514 95 q 429 21 494 54 q 278 -11 363 -11 m 492 792 l 336 1025 l 498 1100 l 617 819 l 492 792 m 229 792 l 73 1025 l 232 1100 l 354 819 l 229 792 z "},"ä":{"ha":777,"x_min":27,"x_max":750,"o":"m 278 -11 q 146 19 203 -11 q 59 100 90 50 q 27 212 27 151 q 62 330 27 278 q 162 412 98 382 q 313 442 227 442 l 500 442 l 500 297 l 363 297 q 287 281 312 297 q 262 231 262 264 q 273 197 262 212 q 302 175 283 183 q 345 167 321 167 q 397 174 367 167 q 450 200 427 182 q 472 252 472 219 l 472 347 l 464 374 l 464 480 q 455 513 464 499 q 430 535 446 526 q 394 549 414 545 q 353 553 374 553 q 286 546 322 553 q 215 527 250 539 q 153 498 180 514 l 72 675 q 142 706 98 690 q 245 733 186 722 q 374 745 304 745 q 544 720 480 745 q 639 656 607 695 q 681 571 671 616 q 692 483 692 525 l 692 270 q 702 219 692 237 q 734 194 712 201 l 750 189 l 667 -11 l 639 -3 q 535 52 572 16 q 491 122 498 87 l 551 80 l 442 80 l 514 95 q 429 21 494 54 q 278 -11 363 -11 m 559 819 q 468 856 505 819 q 431 947 431 893 q 468 1038 431 1001 q 559 1074 505 1074 q 650 1038 613 1074 q 686 947 686 1001 q 650 856 686 893 q 559 819 613 819 m 214 819 q 124 856 161 819 q 87 947 87 893 q 124 1038 87 1001 q 214 1074 161 1074 q 305 1038 269 1074 q 342 947 342 1001 q 305 856 342 893 q 214 819 269 819 z "},"ȧ":{"ha":777,"x_min":27,"x_max":750,"o":"m 278 -11 q 146 19 203 -11 q 59 100 90 50 q 27 212 27 151 q 62 330 27 278 q 162 412 98 382 q 313 442 227 442 l 500 442 l 500 297 l 363 297 q 287 281 312 297 q 262 231 262 264 q 273 197 262 212 q 302 175 283 183 q 345 167 321 167 q 397 174 367 167 q 450 200 427 182 q 472 252 472 219 l 472 347 l 464 374 l 464 480 q 455 513 464 499 q 430 535 446 526 q 394 549 414 545 q 353 553 374 553 q 286 546 322 553 q 215 527 250 539 q 153 498 180 514 l 72 675 q 142 706 98 690 q 245 733 186 722 q 374 745 304 745 q 544 720 480 745 q 639 656 607 695 q 681 571 671 616 q 692 483 692 525 l 692 270 q 702 219 692 237 q 734 194 712 201 l 750 189 l 667 -11 l 639 -3 q 535 52 572 16 q 491 122 498 87 l 551 80 l 442 80 l 514 95 q 429 21 494 54 q 278 -11 363 -11 m 387 807 q 286 849 327 807 q 244 949 244 890 q 286 1051 244 1010 q 387 1092 327 1092 q 488 1051 447 1092 q 529 949 529 1010 q 488 849 529 890 q 387 807 447 807 z "},"ạ":{"ha":777,"x_min":27,"x_max":750,"o":"m 278 -11 q 146 19 203 -11 q 59 100 90 50 q 27 212 27 151 q 62 330 27 278 q 162 412 98 382 q 313 442 227 442 l 500 442 l 500 297 l 363 297 q 287 281 312 297 q 262 231 262 264 q 273 197 262 212 q 302 175 283 183 q 345 167 321 167 q 397 174 367 167 q 450 200 427 182 q 472 252 472 219 l 472 347 l 464 374 l 464 480 q 455 513 464 499 q 430 535 446 526 q 394 549 414 545 q 353 553 374 553 q 286 546 322 553 q 215 527 250 539 q 153 498 180 514 l 72 675 q 142 706 98 690 q 245 733 186 722 q 374 745 304 745 q 544 720 480 745 q 639 656 607 695 q 681 571 671 616 q 692 483 692 525 l 692 270 q 702 219 692 237 q 734 194 712 201 l 750 189 l 667 -11 l 639 -3 q 535 52 572 16 q 491 122 498 87 l 551 80 l 442 80 l 514 95 q 429 21 494 54 q 278 -11 363 -11 m 369 -357 q 268 -315 309 -357 q 227 -214 227 -273 q 268 -113 227 -153 q 369 -72 309 -72 q 470 -113 429 -72 q 511 -214 511 -153 q 470 -315 511 -273 q 369 -357 429 -357 z "},"à":{"ha":777,"x_min":27,"x_max":750,"o":"m 278 -11 q 146 19 203 -11 q 59 100 90 50 q 27 212 27 151 q 62 330 27 278 q 162 412 98 382 q 313 442 227 442 l 500 442 l 500 297 l 363 297 q 287 281 312 297 q 262 231 262 264 q 273 197 262 212 q 302 175 283 183 q 345 167 321 167 q 397 174 367 167 q 450 200 427 182 q 472 252 472 219 l 472 347 l 464 374 l 464 480 q 455 513 464 499 q 430 535 446 526 q 394 549 414 545 q 353 553 374 553 q 286 546 322 553 q 215 527 250 539 q 153 498 180 514 l 72 675 q 142 706 98 690 q 245 733 186 722 q 374 745 304 745 q 544 720 480 745 q 639 656 607 695 q 681 571 671 616 q 692 483 692 525 l 692 270 q 702 219 692 237 q 734 194 712 201 l 750 189 l 667 -11 l 639 -3 q 535 52 572 16 q 491 122 498 87 l 551 80 l 442 80 l 514 95 q 429 21 494 54 q 278 -11 363 -11 m 387 780 l 151 1000 l 278 1127 l 487 864 l 387 780 z "},"ả":{"ha":777,"x_min":27,"x_max":750,"o":"m 278 -11 q 146 19 203 -11 q 59 100 90 50 q 27 212 27 151 q 62 330 27 278 q 162 412 98 382 q 313 442 227 442 l 500 442 l 500 297 l 363 297 q 287 281 312 297 q 262 231 262 264 q 273 197 262 212 q 302 175 283 183 q 345 167 321 167 q 397 174 367 167 q 450 200 427 182 q 472 252 472 219 l 472 347 l 464 374 l 464 480 q 455 513 464 499 q 430 535 446 526 q 394 549 414 545 q 353 553 374 553 q 286 546 322 553 q 215 527 250 539 q 153 498 180 514 l 72 675 q 142 706 98 690 q 245 733 186 722 q 374 745 304 745 q 544 720 480 745 q 639 656 607 695 q 681 571 671 616 q 692 483 692 525 l 692 270 q 702 219 692 237 q 734 194 712 201 l 750 189 l 667 -11 l 639 -3 q 535 52 572 16 q 491 122 498 87 l 551 80 l 442 80 l 514 95 q 429 21 494 54 q 278 -11 363 -11 m 412 777 l 328 859 q 362 888 346 870 q 378 924 378 905 q 358 950 378 942 q 307 959 338 959 q 275 957 292 959 q 240 947 258 954 l 240 1084 q 285 1096 254 1092 q 343 1100 316 1100 q 473 1063 425 1100 q 521 956 521 1027 q 487 844 521 891 q 412 777 452 797 z "},"ȃ":{"ha":777,"x_min":27,"x_max":750,"o":"m 278 -11 q 146 19 203 -11 q 59 100 90 50 q 27 212 27 151 q 62 330 27 278 q 162 412 98 382 q 313 442 227 442 l 500 442 l 500 297 l 363 297 q 287 281 312 297 q 262 231 262 264 q 273 197 262 212 q 302 175 283 183 q 345 167 321 167 q 397 174 367 167 q 450 200 427 182 q 472 252 472 219 l 472 347 l 464 374 l 464 480 q 455 513 464 499 q 430 535 446 526 q 394 549 414 545 q 353 553 374 553 q 286 546 322 553 q 215 527 250 539 q 153 498 180 514 l 72 675 q 142 706 98 690 q 245 733 186 722 q 374 745 304 745 q 544 720 480 745 q 639 656 607 695 q 681 571 671 616 q 692 483 692 525 l 692 270 q 702 219 692 237 q 734 194 712 201 l 750 189 l 667 -11 l 639 -3 q 535 52 572 16 q 491 122 498 87 l 551 80 l 442 80 l 514 95 q 429 21 494 54 q 278 -11 363 -11 m 387 1050 q 525 1018 463 1050 q 623 932 587 987 q 658 811 659 878 l 514 811 q 477 890 514 858 q 387 922 441 922 q 296 890 333 922 q 258 811 259 858 l 114 811 q 150 932 114 878 q 248 1018 186 987 q 387 1050 309 1050 z "},"ā":{"ha":777,"x_min":27,"x_max":750,"o":"m 278 -11 q 146 19 203 -11 q 59 100 90 50 q 27 212 27 151 q 62 330 27 278 q 162 412 98 382 q 313 442 227 442 l 500 442 l 500 297 l 363 297 q 287 281 312 297 q 262 231 262 264 q 273 197 262 212 q 302 175 283 183 q 345 167 321 167 q 397 174 367 167 q 450 200 427 182 q 472 252 472 219 l 472 347 l 464 374 l 464 480 q 455 513 464 499 q 430 535 446 526 q 394 549 414 545 q 353 553 374 553 q 286 546 322 553 q 215 527 250 539 q 153 498 180 514 l 72 675 q 142 706 98 690 q 245 733 186 722 q 374 745 304 745 q 544 720 480 745 q 639 656 607 695 q 681 571 671 616 q 692 483 692 525 l 692 270 q 702 219 692 237 q 734 194 712 201 l 750 189 l 667 -11 l 639 -3 q 535 52 572 16 q 491 122 498 87 l 551 80 l 442 80 l 514 95 q 429 21 494 54 q 278 -11 363 -11 m 95 842 l 95 986 l 678 986 l 678 842 l 95 842 z "},"ą":{"ha":777,"x_min":27,"x_max":750,"o":"m 639 -308 q 519 -268 567 -308 q 469 -161 471 -227 q 491 -75 470 -115 q 536 -6 512 -35 q 570 37 560 23 l 667 -11 q 631 -68 643 -40 q 620 -117 620 -96 q 639 -159 620 -148 q 678 -170 658 -170 q 716 -164 698 -170 q 747 -155 735 -159 l 747 -292 q 695 -304 727 -300 q 639 -308 663 -308 m 278 -11 q 146 19 203 -11 q 59 100 90 50 q 27 212 27 151 q 62 330 27 278 q 162 412 98 382 q 313 442 227 442 l 500 442 l 500 297 l 363 297 q 287 281 312 297 q 262 231 262 264 q 273 197 262 212 q 302 175 283 183 q 345 167 321 167 q 397 174 367 167 q 450 200 427 182 q 472 252 472 219 l 472 347 l 464 374 l 464 480 q 455 513 464 499 q 430 535 446 526 q 394 549 414 545 q 353 553 374 553 q 286 546 322 553 q 215 527 250 539 q 153 498 180 514 l 72 675 q 142 706 98 690 q 245 733 186 722 q 374 745 304 745 q 544 720 480 745 q 639 656 607 695 q 681 571 671 616 q 692 483 692 525 l 692 270 q 702 219 692 237 q 734 194 712 201 l 750 189 l 667 -11 l 639 -3 q 535 52 572 16 q 491 122 498 87 l 551 80 l 442 80 l 514 95 q 429 21 494 54 q 278 -11 363 -11 z "},"å":{"ha":777,"x_min":27,"x_max":750,"o":"m 278 -11 q 146 19 203 -11 q 59 100 90 50 q 27 212 27 151 q 62 330 27 278 q 162 412 98 382 q 313 442 227 442 l 500 442 l 500 297 l 363 297 q 287 281 312 297 q 262 231 262 264 q 273 197 262 212 q 302 175 283 183 q 345 167 321 167 q 397 174 367 167 q 450 200 427 182 q 472 252 472 219 l 472 347 l 464 374 l 464 480 q 455 513 464 499 q 430 535 446 526 q 394 549 414 545 q 353 553 374 553 q 286 546 322 553 q 215 527 250 539 q 153 498 180 514 l 72 675 q 142 706 98 690 q 245 733 186 722 q 374 745 304 745 q 544 720 480 745 q 639 656 607 695 q 681 571 671 616 q 692 483 692 525 l 692 270 q 702 219 692 237 q 734 194 712 201 l 750 189 l 667 -11 l 639 -3 q 535 52 572 16 q 491 122 498 87 l 551 80 l 442 80 l 514 95 q 429 21 494 54 q 278 -11 363 -11 m 387 819 q 260 867 311 819 q 209 985 209 915 q 260 1103 209 1056 q 387 1150 311 1150 q 514 1103 463 1150 q 564 985 564 1056 q 514 867 564 915 q 387 819 463 819 m 387 922 q 430 941 413 922 q 448 986 448 960 q 431 1029 448 1012 q 387 1047 414 1047 q 343 1030 361 1047 q 326 985 326 1013 q 343 941 326 960 q 387 922 361 922 z "},"ǻ":{"ha":777,"x_min":27,"x_max":750,"o":"m 387 819 q 260 867 311 819 q 209 985 209 915 q 260 1103 209 1056 q 387 1150 311 1150 q 514 1103 463 1150 q 564 985 564 1056 q 514 867 564 915 q 387 819 463 819 m 387 922 q 430 941 413 922 q 448 986 448 960 q 431 1029 448 1012 q 387 1047 414 1047 q 343 1030 361 1047 q 326 985 326 1013 q 343 941 326 960 q 387 922 361 922 m 412 1185 l 315 1283 l 562 1493 l 673 1347 l 412 1185 m 278 -11 q 146 19 203 -11 q 59 100 90 50 q 27 212 27 151 q 62 330 27 278 q 162 412 98 382 q 313 442 227 442 l 500 442 l 500 297 l 363 297 q 287 281 312 297 q 262 231 262 264 q 273 197 262 212 q 302 175 283 183 q 345 167 321 167 q 397 174 367 167 q 450 200 427 182 q 472 252 472 219 l 472 347 l 464 374 l 464 480 q 455 513 464 499 q 430 535 446 526 q 394 549 414 545 q 353 553 374 553 q 286 546 322 553 q 215 527 250 539 q 153 498 180 514 l 72 675 q 142 706 98 690 q 245 733 186 722 q 374 745 304 745 q 544 720 480 745 q 639 656 607 695 q 681 571 671 616 q 692 483 692 525 l 692 270 q 702 219 692 237 q 734 194 712 201 l 750 189 l 667 -11 l 639 -3 q 535 52 572 16 q 491 122 498 87 l 551 80 l 442 80 l 514 95 q 429 21 494 54 q 278 -11 363 -11 z "},"ã":{"ha":777,"x_min":27,"x_max":750,"o":"m 278 -11 q 146 19 203 -11 q 59 100 90 50 q 27 212 27 151 q 62 330 27 278 q 162 412 98 382 q 313 442 227 442 l 500 442 l 500 297 l 363 297 q 287 281 312 297 q 262 231 262 264 q 273 197 262 212 q 302 175 283 183 q 345 167 321 167 q 397 174 367 167 q 450 200 427 182 q 472 252 472 219 l 472 347 l 464 374 l 464 480 q 455 513 464 499 q 430 535 446 526 q 394 549 414 545 q 353 553 374 553 q 286 546 322 553 q 215 527 250 539 q 153 498 180 514 l 72 675 q 142 706 98 690 q 245 733 186 722 q 374 745 304 745 q 544 720 480 745 q 639 656 607 695 q 681 571 671 616 q 692 483 692 525 l 692 270 q 702 219 692 237 q 734 194 712 201 l 750 189 l 667 -11 l 639 -3 q 535 52 572 16 q 491 122 498 87 l 551 80 l 442 80 l 514 95 q 429 21 494 54 q 278 -11 363 -11 m 106 811 q 154 978 106 912 q 283 1044 202 1044 q 350 1030 323 1044 q 394 998 376 1017 q 429 966 413 980 q 464 952 445 952 q 500 980 490 952 q 511 1044 511 1007 l 661 1044 q 614 878 662 945 q 483 811 566 811 q 418 825 444 811 q 373 857 392 839 q 338 889 355 876 q 302 903 322 903 q 267 877 278 903 q 255 811 256 851 l 106 811 z "},"æ":{"ha":1161,"x_min":27,"x_max":1134,"o":"m 300 -11 q 152 22 212 -11 q 59 108 91 55 q 27 221 27 161 q 105 377 27 318 q 311 437 182 437 l 498 437 l 498 300 l 361 300 q 286 281 313 300 q 258 228 258 262 q 282 179 258 197 q 347 161 306 161 q 413 176 385 161 q 457 219 441 191 q 472 283 472 246 l 472 422 q 472 467 472 443 q 464 511 473 490 q 430 546 455 532 q 354 559 405 559 q 235 539 291 559 q 148 498 180 520 l 72 675 q 184 721 110 698 q 358 743 258 743 q 545 705 484 743 q 628 612 606 666 l 556 612 q 611 683 568 653 q 710 728 654 712 q 817 743 766 743 q 926 725 870 743 q 1028 666 981 707 q 1105 556 1076 625 q 1134 389 1134 488 q 1132 343 1134 364 q 1124 300 1130 321 l 633 300 l 623 437 l 930 437 q 914 502 930 473 q 869 549 898 532 q 803 567 840 567 q 735 550 771 567 q 673 492 699 534 q 647 374 647 450 q 668 266 647 307 q 721 205 690 225 q 785 179 753 185 q 838 172 817 172 q 919 185 881 172 q 991 222 957 198 l 1063 47 q 963 6 1029 22 q 831 -11 897 -11 q 649 35 724 -11 q 533 153 575 80 l 591 153 q 549 84 587 123 q 448 18 512 46 q 300 -11 384 -11 z "},"ǽ":{"ha":1161,"x_min":27,"x_max":1134,"o":"m 300 -11 q 152 22 212 -11 q 59 108 91 55 q 27 221 27 161 q 105 377 27 318 q 311 437 182 437 l 498 437 l 498 300 l 361 300 q 286 281 313 300 q 258 228 258 262 q 282 179 258 197 q 347 161 306 161 q 413 176 385 161 q 457 219 441 191 q 472 283 472 246 l 472 422 q 472 467 472 443 q 464 511 473 490 q 430 546 455 532 q 354 559 405 559 q 235 539 291 559 q 148 498 180 520 l 72 675 q 184 721 110 698 q 358 743 258 743 q 545 705 484 743 q 628 612 606 666 l 556 612 q 611 683 568 653 q 710 728 654 712 q 817 743 766 743 q 926 725 870 743 q 1028 666 981 707 q 1105 556 1076 625 q 1134 389 1134 488 q 1132 343 1134 364 q 1124 300 1130 321 l 633 300 l 623 437 l 930 437 q 914 502 930 473 q 869 549 898 532 q 803 567 840 567 q 735 550 771 567 q 673 492 699 534 q 647 374 647 450 q 668 266 647 307 q 721 205 690 225 q 785 179 753 185 q 838 172 817 172 q 919 185 881 172 q 991 222 957 198 l 1063 47 q 963 6 1029 22 q 831 -11 897 -11 q 649 35 724 -11 q 533 153 575 80 l 591 153 q 549 84 587 123 q 448 18 512 46 q 300 -11 384 -11 m 586 780 l 486 864 l 694 1127 l 822 1000 l 586 780 z "},"b":{"ha":846,"x_min":61,"x_max":821,"o":"m 61 0 l 61 1044 l 302 1044 l 302 678 l 320 678 l 289 553 l 289 153 l 320 77 l 289 77 l 289 0 l 61 0 m 503 -11 q 336 42 410 -11 q 219 183 262 95 q 175 374 176 271 q 216 559 176 475 q 329 694 257 643 q 495 745 401 745 q 651 703 576 745 q 774 576 726 661 q 819 363 821 492 q 793 195 821 266 q 719 79 766 124 q 616 11 673 33 q 503 -11 559 -11 m 445 189 q 519 211 487 189 q 569 273 551 233 q 586 369 587 313 q 568 464 587 425 q 516 524 549 503 q 439 544 483 545 q 366 524 398 545 q 316 464 334 503 q 297 369 298 425 q 317 273 298 313 q 369 211 336 233 q 445 189 402 189 z "},"c":{"ha":658,"x_min":27,"x_max":647,"o":"m 430 -8 q 274 21 347 -8 q 146 101 201 50 q 59 220 90 152 q 27 369 27 289 q 58 515 27 447 q 142 634 88 583 q 268 714 197 686 q 420 743 339 743 q 541 726 483 743 q 647 677 600 709 l 559 484 q 520 513 541 501 q 477 531 500 525 q 427 537 454 537 q 333 513 371 537 q 275 451 294 489 q 255 370 255 413 q 277 284 255 323 q 337 221 299 245 q 425 198 376 198 q 506 213 467 198 q 562 244 545 228 l 647 47 q 552 8 608 25 q 430 -8 495 -8 z "},"ć":{"ha":658,"x_min":27,"x_max":663,"o":"m 430 -8 q 274 21 347 -8 q 146 101 201 50 q 59 220 90 152 q 27 369 27 289 q 58 515 27 447 q 142 634 88 583 q 268 714 197 686 q 420 743 339 743 q 541 726 483 743 q 647 677 600 709 l 559 484 q 520 513 541 501 q 477 531 500 525 q 427 537 454 537 q 333 513 371 537 q 275 451 294 489 q 255 370 255 413 q 277 284 255 323 q 337 221 299 245 q 425 198 376 198 q 506 213 467 198 q 562 244 545 228 l 647 47 q 552 8 608 25 q 430 -8 495 -8 m 427 780 l 327 864 l 536 1127 l 663 1000 l 427 780 z "},"č":{"ha":658,"x_min":27,"x_max":704,"o":"m 430 -8 q 274 21 347 -8 q 146 101 201 50 q 59 220 90 152 q 27 369 27 289 q 58 515 27 447 q 142 634 88 583 q 268 714 197 686 q 420 743 339 743 q 541 726 483 743 q 647 677 600 709 l 559 484 q 520 513 541 501 q 477 531 500 525 q 427 537 454 537 q 333 513 371 537 q 275 451 294 489 q 255 370 255 413 q 277 284 255 323 q 337 221 299 245 q 425 198 376 198 q 506 213 467 198 q 562 244 545 228 l 647 47 q 552 8 608 25 q 430 -8 495 -8 m 240 1105 l 425 949 l 430 949 l 614 1105 l 704 994 l 450 783 l 404 783 l 151 994 l 240 1105 z "},"ç":{"ha":658,"x_min":27,"x_max":647,"o":"m 430 -8 q 274 21 347 -8 q 146 101 201 50 q 59 220 90 152 q 27 369 27 289 q 58 515 27 447 q 142 634 88 583 q 268 714 197 686 q 420 743 339 743 q 541 726 483 743 q 647 677 600 709 l 559 484 q 520 513 541 501 q 477 531 500 525 q 427 537 454 537 q 333 513 371 537 q 275 451 294 489 q 255 370 255 413 q 277 284 255 323 q 337 221 299 245 q 425 198 376 198 q 506 213 467 198 q 562 244 545 228 l 647 47 q 552 8 608 25 q 430 -8 495 -8 m 294 -355 l 294 -241 q 401 -228 370 -243 q 433 -189 433 -212 q 407 -157 433 -170 q 331 -138 381 -143 l 377 0 l 477 0 l 435 -111 l 427 -61 q 532 -106 492 -72 q 572 -199 572 -141 q 507 -313 572 -269 q 294 -355 441 -357 z "},"ḉ":{"ha":658,"x_min":27,"x_max":663,"o":"m 430 -8 q 274 21 347 -8 q 146 101 201 50 q 59 220 90 152 q 27 369 27 289 q 58 515 27 447 q 142 634 88 583 q 268 714 197 686 q 420 743 339 743 q 541 726 483 743 q 647 677 600 709 l 559 484 q 520 513 541 501 q 477 531 500 525 q 427 537 454 537 q 333 513 371 537 q 275 451 294 489 q 255 370 255 413 q 277 284 255 323 q 337 221 299 245 q 425 198 376 198 q 506 213 467 198 q 562 244 545 228 l 647 47 q 552 8 608 25 q 430 -8 495 -8 m 294 -355 l 294 -241 q 401 -228 370 -243 q 433 -189 433 -212 q 407 -157 433 -170 q 331 -138 381 -143 l 377 0 l 477 0 l 435 -111 l 427 -61 q 532 -106 492 -72 q 572 -199 572 -141 q 507 -313 572 -269 q 294 -355 441 -357 m 427 780 l 327 864 l 536 1127 l 663 1000 l 427 780 z "},"ĉ":{"ha":658,"x_min":27,"x_max":704,"o":"m 430 -8 q 274 21 347 -8 q 146 101 201 50 q 59 220 90 152 q 27 369 27 289 q 58 515 27 447 q 142 634 88 583 q 268 714 197 686 q 420 743 339 743 q 541 726 483 743 q 647 677 600 709 l 559 484 q 520 513 541 501 q 477 531 500 525 q 427 537 454 537 q 333 513 371 537 q 275 451 294 489 q 255 370 255 413 q 277 284 255 323 q 337 221 299 245 q 425 198 376 198 q 506 213 467 198 q 562 244 545 228 l 647 47 q 552 8 608 25 q 430 -8 495 -8 m 240 769 l 151 880 l 404 1092 l 450 1092 l 704 880 l 614 769 l 430 925 l 425 925 l 240 769 z "},"ċ":{"ha":658,"x_min":27,"x_max":647,"o":"m 430 -8 q 274 21 347 -8 q 146 101 201 50 q 59 220 90 152 q 27 369 27 289 q 58 515 27 447 q 142 634 88 583 q 268 714 197 686 q 420 743 339 743 q 541 726 483 743 q 647 677 600 709 l 559 484 q 520 513 541 501 q 477 531 500 525 q 427 537 454 537 q 333 513 371 537 q 275 451 294 489 q 255 370 255 413 q 277 284 255 323 q 337 221 299 245 q 425 198 376 198 q 506 213 467 198 q 562 244 545 228 l 647 47 q 552 8 608 25 q 430 -8 495 -8 m 427 807 q 326 849 368 807 q 285 949 285 890 q 326 1051 285 1010 q 427 1092 368 1092 q 529 1051 488 1092 q 570 949 570 1010 q 529 849 570 890 q 427 807 488 807 z "},"d":{"ha":871,"x_min":25,"x_max":841,"o":"m 757 -11 q 667 22 705 3 q 606 62 629 40 q 574 109 583 83 l 587 98 l 526 98 l 555 186 l 555 605 l 521 681 l 541 681 l 541 1044 l 783 1044 l 783 267 q 797 214 783 229 q 841 189 810 199 l 757 -11 m 343 -11 q 230 11 287 -11 q 127 79 174 33 q 53 195 81 124 q 27 363 26 266 q 73 576 25 492 q 195 703 120 661 q 351 745 271 745 q 517 694 446 745 q 630 559 589 643 q 671 374 671 475 q 627 183 671 271 q 510 42 584 95 q 343 -11 436 -11 m 401 189 q 477 211 444 189 q 530 273 511 233 q 549 369 549 313 q 530 464 549 425 q 480 524 512 503 q 407 544 448 545 q 330 524 363 545 q 278 464 297 503 q 260 369 260 425 q 277 273 260 313 q 327 211 295 233 q 401 189 359 189 z "},"ď":{"ha":981,"x_min":25,"x_max":1063,"o":"m 757 -11 q 667 22 705 3 q 606 62 629 40 q 574 109 583 83 l 587 98 l 526 98 l 555 186 l 555 605 l 521 681 l 541 681 l 541 1044 l 783 1044 l 783 267 q 797 214 783 229 q 841 189 810 199 l 757 -11 m 343 -11 q 230 11 287 -11 q 127 79 174 33 q 53 195 81 124 q 27 363 26 266 q 73 576 25 492 q 195 703 120 661 q 351 745 271 745 q 517 694 446 745 q 630 559 589 643 q 671 374 671 475 q 627 183 671 271 q 510 42 584 95 q 343 -11 436 -11 m 401 189 q 477 211 444 189 q 530 273 511 233 q 549 369 549 313 q 530 464 549 425 q 480 524 512 503 q 407 544 448 545 q 330 524 363 545 q 278 464 297 503 q 260 369 260 425 q 277 273 260 313 q 327 211 295 233 q 401 189 359 189 m 871 686 l 873 1044 l 1063 1044 l 1038 686 l 871 686 z "},"đ":{"ha":871,"x_min":25,"x_max":887,"o":"m 757 -11 q 667 22 705 3 q 606 62 629 40 q 574 109 583 83 l 587 98 l 526 98 l 555 186 l 555 605 l 521 681 l 541 681 l 541 1044 l 783 1044 l 783 267 q 797 214 783 229 q 841 189 810 199 l 757 -11 m 343 -11 q 230 11 287 -11 q 127 79 174 33 q 53 195 81 124 q 27 363 26 266 q 73 576 25 492 q 195 703 120 661 q 351 745 271 745 q 517 694 446 745 q 630 559 589 643 q 671 374 671 475 q 627 183 671 271 q 510 42 584 95 q 343 -11 436 -11 m 401 189 q 477 211 444 189 q 530 273 511 233 q 549 369 549 313 q 530 464 549 425 q 480 524 512 503 q 407 544 448 545 q 330 524 363 545 q 278 464 297 503 q 260 369 260 425 q 277 273 260 313 q 327 211 295 233 q 401 189 359 189 m 431 822 l 431 936 l 887 936 l 887 822 l 431 822 z "},"ḍ":{"ha":871,"x_min":25,"x_max":841,"o":"m 757 -11 q 667 22 705 3 q 606 62 629 40 q 574 109 583 83 l 587 98 l 526 98 l 555 186 l 555 605 l 521 681 l 541 681 l 541 1044 l 783 1044 l 783 267 q 797 214 783 229 q 841 189 810 199 l 757 -11 m 343 -11 q 230 11 287 -11 q 127 79 174 33 q 53 195 81 124 q 27 363 26 266 q 73 576 25 492 q 195 703 120 661 q 351 745 271 745 q 517 694 446 745 q 630 559 589 643 q 671 374 671 475 q 627 183 671 271 q 510 42 584 95 q 343 -11 436 -11 m 401 189 q 477 211 444 189 q 530 273 511 233 q 549 369 549 313 q 530 464 549 425 q 480 524 512 503 q 407 544 448 545 q 330 524 363 545 q 278 464 297 503 q 260 369 260 425 q 277 273 260 313 q 327 211 295 233 q 401 189 359 189 m 418 -357 q 317 -315 358 -357 q 275 -214 275 -273 q 317 -113 275 -153 q 418 -72 358 -72 q 519 -113 478 -72 q 560 -214 560 -153 q 519 -315 560 -273 q 418 -357 478 -357 z "},"ḏ":{"ha":871,"x_min":25,"x_max":841,"o":"m 757 -11 q 667 22 705 3 q 606 62 629 40 q 574 109 583 83 l 587 98 l 526 98 l 555 186 l 555 605 l 521 681 l 541 681 l 541 1044 l 783 1044 l 783 267 q 797 214 783 229 q 841 189 810 199 l 757 -11 m 343 -11 q 230 11 287 -11 q 127 79 174 33 q 53 195 81 124 q 27 363 26 266 q 73 576 25 492 q 195 703 120 661 q 351 745 271 745 q 517 694 446 745 q 630 559 589 643 q 671 374 671 475 q 627 183 671 271 q 510 42 584 95 q 343 -11 436 -11 m 401 189 q 477 211 444 189 q 530 273 511 233 q 549 369 549 313 q 530 464 549 425 q 480 524 512 503 q 407 544 448 545 q 330 524 363 545 q 278 464 297 503 q 260 369 260 425 q 277 273 260 313 q 327 211 295 233 q 401 189 359 189 m 126 -289 l 126 -145 l 709 -145 l 709 -289 l 126 -289 z "},"ǆ":{"ha":1549,"x_min":25,"x_max":1526,"o":"m 757 -11 q 667 22 705 3 q 606 62 629 40 q 574 109 583 83 l 587 98 l 526 98 l 555 186 l 555 605 l 521 681 l 541 681 l 541 1044 l 783 1044 l 783 267 q 797 214 783 229 q 841 189 810 199 l 757 -11 m 343 -11 q 230 11 287 -11 q 127 79 174 33 q 53 195 81 124 q 27 363 26 266 q 73 576 25 492 q 195 703 120 661 q 351 745 271 745 q 517 694 446 745 q 630 559 589 643 q 671 374 671 475 q 627 183 671 271 q 510 42 584 95 q 343 -11 436 -11 m 401 189 q 477 211 444 189 q 530 273 511 233 q 549 369 549 313 q 530 464 549 425 q 480 524 512 503 q 407 544 448 545 q 330 524 363 545 q 278 464 297 503 q 260 369 260 425 q 277 273 260 313 q 327 211 295 233 q 401 189 359 189 m 887 0 l 887 47 l 1181 521 l 1181 526 l 913 526 l 913 732 l 1526 732 l 1526 682 l 1232 212 l 1232 206 l 1526 206 l 1526 0 l 887 0 m 1034 1105 l 1218 949 l 1223 949 l 1408 1105 l 1497 994 l 1244 783 l 1198 783 l 944 994 l 1034 1105 z "},"ð":{"ha":817,"x_min":22,"x_max":795,"o":"m 403 -11 q 211 36 298 -11 q 73 164 125 83 q 22 349 22 245 q 68 524 22 444 q 193 650 114 603 q 370 697 272 697 q 452 688 409 697 q 530 656 496 678 q 575 594 564 633 l 533 642 l 594 642 l 564 609 q 500 720 541 667 q 406 818 460 772 q 284 902 351 864 q 138 967 217 939 l 231 1153 q 474 1014 368 1090 q 651 846 579 937 q 759 655 722 756 q 795 442 795 553 q 745 205 795 307 q 607 46 695 103 q 403 -11 518 -11 m 408 199 q 490 221 454 199 q 545 279 525 242 q 564 361 564 315 q 545 439 564 406 q 490 492 525 473 q 408 511 454 511 q 328 492 363 511 q 272 439 292 473 q 252 361 252 406 q 272 279 252 315 q 328 221 292 242 q 408 199 363 199 m 203 734 l 141 822 l 623 1147 l 705 1025 l 203 734 z "},"e":{"ha":768,"x_min":27,"x_max":741,"o":"m 423 -11 q 212 37 301 -11 q 75 169 123 85 q 27 363 27 254 q 78 565 27 479 q 214 697 130 650 q 399 743 298 743 q 575 699 498 743 q 696 576 652 654 q 741 397 741 498 q 737 335 741 366 q 730 289 734 304 l 216 289 l 216 433 l 518 433 q 502 503 518 475 q 457 546 486 532 q 393 560 429 560 q 305 534 341 560 q 251 464 269 507 q 232 372 232 421 q 257 269 232 313 q 326 201 283 225 q 423 178 370 178 q 488 184 454 178 q 550 200 522 191 q 590 220 578 210 l 662 47 q 560 6 623 22 q 423 -11 496 -11 z "},"é":{"ha":768,"x_min":27,"x_max":741,"o":"m 423 -11 q 212 37 301 -11 q 75 169 123 85 q 27 363 27 254 q 78 565 27 479 q 214 697 130 650 q 399 743 298 743 q 575 699 498 743 q 696 576 652 654 q 741 397 741 498 q 737 335 741 366 q 730 289 734 304 l 216 289 l 216 433 l 518 433 q 502 503 518 475 q 457 546 486 532 q 393 560 429 560 q 305 534 341 560 q 251 464 269 507 q 232 372 232 421 q 257 269 232 313 q 326 201 283 225 q 423 178 370 178 q 488 184 454 178 q 550 200 522 191 q 590 220 578 210 l 662 47 q 560 6 623 22 q 423 -11 496 -11 m 396 780 l 296 864 l 505 1127 l 632 1000 l 396 780 z "},"ĕ":{"ha":768,"x_min":27,"x_max":741,"o":"m 423 -11 q 212 37 301 -11 q 75 169 123 85 q 27 363 27 254 q 78 565 27 479 q 214 697 130 650 q 399 743 298 743 q 575 699 498 743 q 696 576 652 654 q 741 397 741 498 q 737 335 741 366 q 730 289 734 304 l 216 289 l 216 433 l 518 433 q 502 503 518 475 q 457 546 486 532 q 393 560 429 560 q 305 534 341 560 q 251 464 269 507 q 232 372 232 421 q 257 269 232 313 q 326 201 283 225 q 423 178 370 178 q 488 184 454 178 q 550 200 522 191 q 590 220 578 210 l 662 47 q 560 6 623 22 q 423 -11 496 -11 m 396 806 q 257 838 319 806 q 159 923 195 869 q 123 1044 123 977 l 267 1044 q 306 965 269 998 q 396 933 342 933 q 487 965 450 933 q 524 1044 524 998 l 667 1044 q 632 923 668 977 q 534 838 596 869 q 396 806 473 806 z "},"ě":{"ha":768,"x_min":27,"x_max":741,"o":"m 423 -11 q 212 37 301 -11 q 75 169 123 85 q 27 363 27 254 q 78 565 27 479 q 214 697 130 650 q 399 743 298 743 q 575 699 498 743 q 696 576 652 654 q 741 397 741 498 q 737 335 741 366 q 730 289 734 304 l 216 289 l 216 433 l 518 433 q 502 503 518 475 q 457 546 486 532 q 393 560 429 560 q 305 534 341 560 q 251 464 269 507 q 232 372 232 421 q 257 269 232 313 q 326 201 283 225 q 423 178 370 178 q 488 184 454 178 q 550 200 522 191 q 590 220 578 210 l 662 47 q 560 6 623 22 q 423 -11 496 -11 m 209 1105 l 393 949 l 399 949 l 583 1105 l 673 994 l 419 783 l 373 783 l 119 994 l 209 1105 z "},"ḝ":{"ha":768,"x_min":27,"x_max":741,"o":"m 423 -11 q 212 37 301 -11 q 75 169 123 85 q 27 363 27 254 q 78 565 27 479 q 214 697 130 650 q 399 743 298 743 q 575 699 498 743 q 696 576 652 654 q 741 397 741 498 q 737 335 741 366 q 730 289 734 304 l 216 289 l 216 433 l 518 433 q 502 503 518 475 q 457 546 486 532 q 393 560 429 560 q 305 534 341 560 q 251 464 269 507 q 232 372 232 421 q 257 269 232 313 q 326 201 283 225 q 423 178 370 178 q 488 184 454 178 q 550 200 522 191 q 590 220 578 210 l 662 47 q 560 6 623 22 q 423 -11 496 -11 m 288 -355 l 288 -241 q 394 -228 363 -243 q 426 -189 426 -212 q 400 -157 426 -170 q 324 -138 374 -143 l 370 0 l 471 0 l 429 -111 l 420 -61 q 526 -106 486 -72 q 566 -199 566 -141 q 500 -313 566 -269 q 288 -355 434 -357 m 396 806 q 257 838 319 806 q 159 923 195 869 q 123 1044 123 977 l 267 1044 q 306 965 269 998 q 396 933 342 933 q 487 965 450 933 q 524 1044 524 998 l 667 1044 q 632 923 668 977 q 534 838 596 869 q 396 806 473 806 z "},"ê":{"ha":768,"x_min":27,"x_max":741,"o":"m 423 -11 q 212 37 301 -11 q 75 169 123 85 q 27 363 27 254 q 78 565 27 479 q 214 697 130 650 q 399 743 298 743 q 575 699 498 743 q 696 576 652 654 q 741 397 741 498 q 737 335 741 366 q 730 289 734 304 l 216 289 l 216 433 l 518 433 q 502 503 518 475 q 457 546 486 532 q 393 560 429 560 q 305 534 341 560 q 251 464 269 507 q 232 372 232 421 q 257 269 232 313 q 326 201 283 225 q 423 178 370 178 q 488 184 454 178 q 550 200 522 191 q 590 220 578 210 l 662 47 q 560 6 623 22 q 423 -11 496 -11 m 209 769 l 119 880 l 373 1092 l 419 1092 l 673 880 l 583 769 l 399 925 l 393 925 l 209 769 z "},"ế":{"ha":768,"x_min":27,"x_max":865,"o":"m 423 -11 q 212 37 301 -11 q 75 169 123 85 q 27 363 27 254 q 78 565 27 479 q 214 697 130 650 q 399 743 298 743 q 575 699 498 743 q 696 576 652 654 q 741 397 741 498 q 737 335 741 366 q 730 289 734 304 l 216 289 l 216 433 l 518 433 q 502 503 518 475 q 457 546 486 532 q 393 560 429 560 q 305 534 341 560 q 251 464 269 507 q 232 372 232 421 q 257 269 232 313 q 326 201 283 225 q 423 178 370 178 q 488 184 454 178 q 550 200 522 191 q 590 220 578 210 l 662 47 q 560 6 623 22 q 423 -11 496 -11 m 627 989 l 524 1061 l 754 1294 l 865 1145 l 627 989 m 227 784 l 121 891 l 373 1061 l 418 1061 l 670 891 l 568 784 l 396 909 l 393 909 l 227 784 z "},"ệ":{"ha":768,"x_min":27,"x_max":741,"o":"m 423 -11 q 212 37 301 -11 q 75 169 123 85 q 27 363 27 254 q 78 565 27 479 q 214 697 130 650 q 399 743 298 743 q 575 699 498 743 q 696 576 652 654 q 741 397 741 498 q 737 335 741 366 q 730 289 734 304 l 216 289 l 216 433 l 518 433 q 502 503 518 475 q 457 546 486 532 q 393 560 429 560 q 305 534 341 560 q 251 464 269 507 q 232 372 232 421 q 257 269 232 313 q 326 201 283 225 q 423 178 370 178 q 488 184 454 178 q 550 200 522 191 q 590 220 578 210 l 662 47 q 560 6 623 22 q 423 -11 496 -11 m 401 -357 q 300 -315 342 -357 q 259 -214 259 -273 q 300 -113 259 -153 q 401 -72 342 -72 q 503 -113 462 -72 q 544 -214 544 -153 q 503 -315 544 -273 q 401 -357 462 -357 m 209 769 l 119 880 l 373 1092 l 419 1092 l 673 880 l 583 769 l 399 925 l 393 925 l 209 769 z "},"ề":{"ha":768,"x_min":-73,"x_max":741,"o":"m 423 -11 q 212 37 301 -11 q 75 169 123 85 q 27 363 27 254 q 78 565 27 479 q 214 697 130 650 q 399 743 298 743 q 575 699 498 743 q 696 576 652 654 q 741 397 741 498 q 737 335 741 366 q 730 289 734 304 l 216 289 l 216 433 l 518 433 q 502 503 518 475 q 457 546 486 532 q 393 560 429 560 q 305 534 341 560 q 251 464 269 507 q 232 372 232 421 q 257 269 232 313 q 326 201 283 225 q 423 178 370 178 q 488 184 454 178 q 550 200 522 191 q 590 220 578 210 l 662 47 q 560 6 623 22 q 423 -11 496 -11 m 165 989 l -73 1145 l 38 1294 l 269 1061 l 165 989 m 566 784 l 399 909 l 396 909 l 224 784 l 122 891 l 374 1061 l 419 1061 l 671 891 l 566 784 z "},"ể":{"ha":768,"x_min":27,"x_max":741,"o":"m 423 -11 q 212 37 301 -11 q 75 169 123 85 q 27 363 27 254 q 78 565 27 479 q 214 697 130 650 q 399 743 298 743 q 575 699 498 743 q 696 576 652 654 q 741 397 741 498 q 737 335 741 366 q 730 289 734 304 l 216 289 l 216 433 l 518 433 q 502 503 518 475 q 457 546 486 532 q 393 560 429 560 q 305 534 341 560 q 251 464 269 507 q 232 372 232 421 q 257 269 232 313 q 326 201 283 225 q 423 178 370 178 q 488 184 454 178 q 550 200 522 191 q 590 220 578 210 l 662 47 q 560 6 623 22 q 423 -11 496 -11 m 614 991 l 532 1053 q 566 1083 553 1068 q 579 1114 579 1097 q 563 1143 579 1133 q 510 1153 546 1153 q 477 1151 493 1153 q 439 1142 461 1148 l 439 1280 q 487 1291 455 1288 q 545 1294 519 1294 q 672 1259 625 1294 q 720 1147 720 1225 q 703 1080 720 1110 q 661 1027 686 1049 q 614 991 637 1004 m 227 784 l 121 891 l 373 1061 l 418 1061 l 670 891 l 568 784 l 396 909 l 393 909 l 227 784 z "},"ễ":{"ha":768,"x_min":27,"x_max":741,"o":"m 423 -11 q 212 37 301 -11 q 75 169 123 85 q 27 363 27 254 q 78 565 27 479 q 214 697 130 650 q 399 743 298 743 q 575 699 498 743 q 696 576 652 654 q 741 397 741 498 q 737 335 741 366 q 730 289 734 304 l 216 289 l 216 433 l 518 433 q 502 503 518 475 q 457 546 486 532 q 393 560 429 560 q 305 534 341 560 q 251 464 269 507 q 232 372 232 421 q 257 269 232 313 q 326 201 283 225 q 423 178 370 178 q 488 184 454 178 q 550 200 522 191 q 590 220 578 210 l 662 47 q 560 6 623 22 q 423 -11 496 -11 m 126 1076 q 169 1233 124 1171 q 296 1294 214 1294 q 361 1282 336 1294 q 406 1255 387 1271 q 440 1228 424 1240 q 476 1217 456 1217 q 512 1238 500 1217 q 524 1294 524 1259 l 667 1294 q 652 1184 668 1234 q 602 1105 636 1135 q 513 1076 567 1076 q 447 1087 473 1076 q 403 1114 421 1099 q 370 1141 385 1130 q 335 1153 354 1153 q 288 1133 308 1153 q 267 1076 269 1114 l 126 1076 m 227 784 l 121 891 l 373 1061 l 418 1061 l 670 891 l 568 784 l 396 909 l 393 909 l 227 784 z "},"ȅ":{"ha":768,"x_min":27,"x_max":741,"o":"m 423 -11 q 212 37 301 -11 q 75 169 123 85 q 27 363 27 254 q 78 565 27 479 q 214 697 130 650 q 399 743 298 743 q 575 699 498 743 q 696 576 652 654 q 741 397 741 498 q 737 335 741 366 q 730 289 734 304 l 216 289 l 216 433 l 518 433 q 502 503 518 475 q 457 546 486 532 q 393 560 429 560 q 305 534 341 560 q 251 464 269 507 q 232 372 232 421 q 257 269 232 313 q 326 201 283 225 q 423 178 370 178 q 488 184 454 178 q 550 200 522 191 q 590 220 578 210 l 662 47 q 560 6 623 22 q 423 -11 496 -11 m 502 792 l 346 1025 l 507 1100 l 627 819 l 502 792 m 239 792 l 83 1025 l 241 1100 l 363 819 l 239 792 z "},"ë":{"ha":768,"x_min":27,"x_max":741,"o":"m 423 -11 q 212 37 301 -11 q 75 169 123 85 q 27 363 27 254 q 78 565 27 479 q 214 697 130 650 q 399 743 298 743 q 575 699 498 743 q 696 576 652 654 q 741 397 741 498 q 737 335 741 366 q 730 289 734 304 l 216 289 l 216 433 l 518 433 q 502 503 518 475 q 457 546 486 532 q 393 560 429 560 q 305 534 341 560 q 251 464 269 507 q 232 372 232 421 q 257 269 232 313 q 326 201 283 225 q 423 178 370 178 q 488 184 454 178 q 550 200 522 191 q 590 220 578 210 l 662 47 q 560 6 623 22 q 423 -11 496 -11 m 568 819 q 478 856 515 819 q 441 947 441 893 q 478 1038 441 1001 q 568 1074 515 1074 q 659 1038 623 1074 q 696 947 696 1001 q 659 856 696 893 q 568 819 623 819 m 224 819 q 133 856 170 819 q 96 947 96 893 q 133 1038 96 1001 q 224 1074 170 1074 q 315 1038 278 1074 q 351 947 351 1001 q 315 856 351 893 q 224 819 278 819 z "},"ė":{"ha":768,"x_min":27,"x_max":741,"o":"m 423 -11 q 212 37 301 -11 q 75 169 123 85 q 27 363 27 254 q 78 565 27 479 q 214 697 130 650 q 399 743 298 743 q 575 699 498 743 q 696 576 652 654 q 741 397 741 498 q 737 335 741 366 q 730 289 734 304 l 216 289 l 216 433 l 518 433 q 502 503 518 475 q 457 546 486 532 q 393 560 429 560 q 305 534 341 560 q 251 464 269 507 q 232 372 232 421 q 257 269 232 313 q 326 201 283 225 q 423 178 370 178 q 488 184 454 178 q 550 200 522 191 q 590 220 578 210 l 662 47 q 560 6 623 22 q 423 -11 496 -11 m 396 807 q 295 849 336 807 q 254 949 254 890 q 295 1051 254 1010 q 396 1092 336 1092 q 497 1051 456 1092 q 538 949 538 1010 q 497 849 538 890 q 396 807 456 807 z "},"ẹ":{"ha":768,"x_min":27,"x_max":741,"o":"m 423 -11 q 212 37 301 -11 q 75 169 123 85 q 27 363 27 254 q 78 565 27 479 q 214 697 130 650 q 399 743 298 743 q 575 699 498 743 q 696 576 652 654 q 741 397 741 498 q 737 335 741 366 q 730 289 734 304 l 216 289 l 216 433 l 518 433 q 502 503 518 475 q 457 546 486 532 q 393 560 429 560 q 305 534 341 560 q 251 464 269 507 q 232 372 232 421 q 257 269 232 313 q 326 201 283 225 q 423 178 370 178 q 488 184 454 178 q 550 200 522 191 q 590 220 578 210 l 662 47 q 560 6 623 22 q 423 -11 496 -11 m 401 -357 q 300 -315 342 -357 q 259 -214 259 -273 q 300 -113 259 -153 q 401 -72 342 -72 q 503 -113 462 -72 q 544 -214 544 -153 q 503 -315 544 -273 q 401 -357 462 -357 z "},"è":{"ha":768,"x_min":27,"x_max":741,"o":"m 423 -11 q 212 37 301 -11 q 75 169 123 85 q 27 363 27 254 q 78 565 27 479 q 214 697 130 650 q 399 743 298 743 q 575 699 498 743 q 696 576 652 654 q 741 397 741 498 q 737 335 741 366 q 730 289 734 304 l 216 289 l 216 433 l 518 433 q 502 503 518 475 q 457 546 486 532 q 393 560 429 560 q 305 534 341 560 q 251 464 269 507 q 232 372 232 421 q 257 269 232 313 q 326 201 283 225 q 423 178 370 178 q 488 184 454 178 q 550 200 522 191 q 590 220 578 210 l 662 47 q 560 6 623 22 q 423 -11 496 -11 m 396 780 l 160 1000 l 288 1127 l 496 864 l 396 780 z "},"ẻ":{"ha":768,"x_min":27,"x_max":741,"o":"m 423 -11 q 212 37 301 -11 q 75 169 123 85 q 27 363 27 254 q 78 565 27 479 q 214 697 130 650 q 399 743 298 743 q 575 699 498 743 q 696 576 652 654 q 741 397 741 498 q 737 335 741 366 q 730 289 734 304 l 216 289 l 216 433 l 518 433 q 502 503 518 475 q 457 546 486 532 q 393 560 429 560 q 305 534 341 560 q 251 464 269 507 q 232 372 232 421 q 257 269 232 313 q 326 201 283 225 q 423 178 370 178 q 488 184 454 178 q 550 200 522 191 q 590 220 578 210 l 662 47 q 560 6 623 22 q 423 -11 496 -11 m 422 777 l 338 859 q 372 888 355 870 q 388 924 388 905 q 368 950 388 942 q 316 959 348 959 q 284 957 301 959 q 250 947 267 954 l 250 1084 q 295 1096 264 1092 q 353 1100 326 1100 q 482 1063 434 1100 q 530 956 530 1027 q 496 844 530 891 q 422 777 462 797 z "},"ȇ":{"ha":768,"x_min":27,"x_max":741,"o":"m 423 -11 q 212 37 301 -11 q 75 169 123 85 q 27 363 27 254 q 78 565 27 479 q 214 697 130 650 q 399 743 298 743 q 575 699 498 743 q 696 576 652 654 q 741 397 741 498 q 737 335 741 366 q 730 289 734 304 l 216 289 l 216 433 l 518 433 q 502 503 518 475 q 457 546 486 532 q 393 560 429 560 q 305 534 341 560 q 251 464 269 507 q 232 372 232 421 q 257 269 232 313 q 326 201 283 225 q 423 178 370 178 q 488 184 454 178 q 550 200 522 191 q 590 220 578 210 l 662 47 q 560 6 623 22 q 423 -11 496 -11 m 396 1050 q 534 1018 473 1050 q 632 932 596 987 q 667 811 668 878 l 524 811 q 487 890 524 858 q 396 922 450 922 q 306 890 342 922 q 267 811 269 858 l 123 811 q 159 932 123 878 q 257 1018 195 987 q 396 1050 319 1050 z "},"ē":{"ha":768,"x_min":27,"x_max":741,"o":"m 423 -11 q 212 37 301 -11 q 75 169 123 85 q 27 363 27 254 q 78 565 27 479 q 214 697 130 650 q 399 743 298 743 q 575 699 498 743 q 696 576 652 654 q 741 397 741 498 q 737 335 741 366 q 730 289 734 304 l 216 289 l 216 433 l 518 433 q 502 503 518 475 q 457 546 486 532 q 393 560 429 560 q 305 534 341 560 q 251 464 269 507 q 232 372 232 421 q 257 269 232 313 q 326 201 283 225 q 423 178 370 178 q 488 184 454 178 q 550 200 522 191 q 590 220 578 210 l 662 47 q 560 6 623 22 q 423 -11 496 -11 m 104 842 l 104 986 l 688 986 l 688 842 l 104 842 z "},"ḗ":{"ha":768,"x_min":27,"x_max":741,"o":"m 423 -11 q 212 37 301 -11 q 75 169 123 85 q 27 363 27 254 q 78 565 27 479 q 214 697 130 650 q 399 743 298 743 q 575 699 498 743 q 696 576 652 654 q 741 397 741 498 q 737 335 741 366 q 730 289 734 304 l 216 289 l 216 433 l 518 433 q 502 503 518 475 q 457 546 486 532 q 393 560 429 560 q 305 534 341 560 q 251 464 269 507 q 232 372 232 421 q 257 269 232 313 q 326 201 283 225 q 423 178 370 178 q 488 184 454 178 q 550 200 522 191 q 590 220 578 210 l 662 47 q 560 6 623 22 q 423 -11 496 -11 m 104 842 l 104 986 l 688 986 l 688 842 l 104 842 m 396 1047 l 296 1131 l 505 1394 l 632 1267 l 396 1047 z "},"ḕ":{"ha":768,"x_min":27,"x_max":741,"o":"m 423 -11 q 212 37 301 -11 q 75 169 123 85 q 27 363 27 254 q 78 565 27 479 q 214 697 130 650 q 399 743 298 743 q 575 699 498 743 q 696 576 652 654 q 741 397 741 498 q 737 335 741 366 q 730 289 734 304 l 216 289 l 216 433 l 518 433 q 502 503 518 475 q 457 546 486 532 q 393 560 429 560 q 305 534 341 560 q 251 464 269 507 q 232 372 232 421 q 257 269 232 313 q 326 201 283 225 q 423 178 370 178 q 488 184 454 178 q 550 200 522 191 q 590 220 578 210 l 662 47 q 560 6 623 22 q 423 -11 496 -11 m 104 842 l 104 986 l 688 986 l 688 842 l 104 842 m 396 1047 l 160 1267 l 288 1394 l 496 1131 l 396 1047 z "},"ę":{"ha":768,"x_min":27,"x_max":741,"o":"m 423 -11 q 212 37 301 -11 q 75 169 123 85 q 27 363 27 254 q 78 565 27 479 q 214 697 130 650 q 399 743 298 743 q 575 699 498 743 q 696 576 652 654 q 741 397 741 498 q 737 335 741 366 q 730 289 734 304 l 216 289 l 216 433 l 518 433 q 502 503 518 475 q 457 546 486 532 q 393 560 429 560 q 305 534 341 560 q 251 464 269 507 q 232 372 232 421 q 257 269 232 313 q 326 201 283 225 q 423 178 370 178 q 488 184 454 178 q 550 200 522 191 q 590 220 578 210 l 662 47 q 560 6 623 22 q 423 -11 496 -11 m 547 -250 q 428 -211 473 -250 q 382 -106 382 -172 q 424 -3 382 -47 q 538 84 465 41 l 661 47 q 594 6 625 26 q 546 -35 564 -14 q 528 -77 528 -56 q 543 -106 528 -96 q 589 -117 557 -117 q 629 -113 607 -117 q 661 -103 650 -109 l 661 -233 q 605 -245 640 -241 q 547 -250 570 -250 z "},"ẽ":{"ha":768,"x_min":27,"x_max":741,"o":"m 423 -11 q 212 37 301 -11 q 75 169 123 85 q 27 363 27 254 q 78 565 27 479 q 214 697 130 650 q 399 743 298 743 q 575 699 498 743 q 696 576 652 654 q 741 397 741 498 q 737 335 741 366 q 730 289 734 304 l 216 289 l 216 433 l 518 433 q 502 503 518 475 q 457 546 486 532 q 393 560 429 560 q 305 534 341 560 q 251 464 269 507 q 232 372 232 421 q 257 269 232 313 q 326 201 283 225 q 423 178 370 178 q 488 184 454 178 q 550 200 522 191 q 590 220 578 210 l 662 47 q 560 6 623 22 q 423 -11 496 -11 m 115 811 q 163 978 115 912 q 293 1044 212 1044 q 359 1030 333 1044 q 404 998 385 1017 q 438 966 422 980 q 473 952 454 952 q 510 980 499 952 q 521 1044 521 1007 l 670 1044 q 623 878 671 945 q 492 811 575 811 q 427 825 453 811 q 383 857 401 839 q 348 889 364 876 q 312 903 332 903 q 277 877 288 903 q 264 811 266 851 l 115 811 z "},"ə":{"ha":768,"x_min":27,"x_max":741,"o":"m 345 743 q 555 695 467 743 q 692 563 644 648 q 741 369 741 479 q 689 168 741 253 q 554 36 638 83 q 369 -11 469 -11 q 193 34 270 -11 q 71 157 115 79 q 27 335 27 235 q 31 398 27 367 q 38 444 34 429 l 552 444 l 552 300 l 250 300 q 266 229 250 258 q 310 186 282 201 q 374 172 338 172 q 463 199 427 172 q 517 268 498 225 q 536 361 536 311 q 510 464 536 420 q 441 531 485 507 q 345 555 398 555 q 279 548 313 555 q 218 532 245 542 q 178 513 190 522 l 106 685 q 208 727 144 711 q 345 743 271 743 z "},"f":{"ha":591,"x_min":5,"x_max":598,"o":"m 5 529 l 5 732 l 559 732 l 559 529 l 5 529 m 142 0 l 142 780 q 212 988 142 908 q 437 1069 281 1069 q 528 1062 481 1069 q 598 1044 575 1056 l 519 850 q 491 857 505 854 q 464 859 477 859 q 407 839 429 859 q 384 774 384 819 l 384 0 l 142 0 z "},"g":{"ha":838,"x_min":27,"x_max":777,"o":"m 378 -296 q 208 -274 285 -296 q 85 -229 130 -252 l 164 -43 q 253 -81 206 -66 q 350 -96 300 -96 q 440 -83 393 -96 q 519 -40 487 -69 q 552 34 552 -12 l 552 100 l 530 100 l 564 170 l 564 583 l 506 666 l 562 666 l 562 734 l 777 734 l 777 47 q 749 -99 777 -35 q 668 -207 721 -163 q 543 -273 616 -251 q 378 -296 469 -296 m 345 19 q 233 40 289 19 q 130 104 176 60 q 55 215 83 147 q 27 378 27 283 q 75 584 27 503 q 198 705 123 665 q 353 745 273 745 q 519 696 448 745 q 630 568 591 648 q 670 392 670 488 q 627 208 670 292 q 511 71 585 123 q 345 19 437 19 m 408 212 q 488 233 453 212 q 542 294 522 255 q 562 387 562 334 q 543 477 562 439 q 490 534 524 514 q 414 553 457 553 q 335 534 370 553 q 281 477 301 514 q 262 387 262 439 q 281 294 262 334 q 333 233 300 255 q 408 212 366 212 z "},"ǵ":{"ha":838,"x_min":27,"x_max":777,"o":"m 378 -296 q 208 -274 285 -296 q 85 -229 130 -252 l 164 -43 q 253 -81 206 -66 q 350 -96 300 -96 q 440 -83 393 -96 q 519 -40 487 -69 q 552 34 552 -12 l 552 100 l 530 100 l 564 170 l 564 583 l 506 666 l 562 666 l 562 734 l 777 734 l 777 47 q 749 -99 777 -35 q 668 -207 721 -163 q 543 -273 616 -251 q 378 -296 469 -296 m 345 19 q 233 40 289 19 q 130 104 176 60 q 55 215 83 147 q 27 378 27 283 q 75 584 27 503 q 198 705 123 665 q 353 745 273 745 q 519 696 448 745 q 630 568 591 648 q 670 392 670 488 q 627 208 670 292 q 511 71 585 123 q 345 19 437 19 m 408 212 q 488 233 453 212 q 542 294 522 255 q 562 387 562 334 q 543 477 562 439 q 490 534 524 514 q 414 553 457 553 q 335 534 370 553 q 281 477 301 514 q 262 387 262 439 q 281 294 262 334 q 333 233 300 255 q 408 212 366 212 m 400 780 l 300 864 l 509 1127 l 636 1000 l 400 780 z "},"ğ":{"ha":838,"x_min":27,"x_max":777,"o":"m 378 -296 q 208 -274 285 -296 q 85 -229 130 -252 l 164 -43 q 253 -81 206 -66 q 350 -96 300 -96 q 440 -83 393 -96 q 519 -40 487 -69 q 552 34 552 -12 l 552 100 l 530 100 l 564 170 l 564 583 l 506 666 l 562 666 l 562 734 l 777 734 l 777 47 q 749 -99 777 -35 q 668 -207 721 -163 q 543 -273 616 -251 q 378 -296 469 -296 m 345 19 q 233 40 289 19 q 130 104 176 60 q 55 215 83 147 q 27 378 27 283 q 75 584 27 503 q 198 705 123 665 q 353 745 273 745 q 519 696 448 745 q 630 568 591 648 q 670 392 670 488 q 627 208 670 292 q 511 71 585 123 q 345 19 437 19 m 408 212 q 488 233 453 212 q 542 294 522 255 q 562 387 562 334 q 543 477 562 439 q 490 534 524 514 q 414 553 457 553 q 335 534 370 553 q 281 477 301 514 q 262 387 262 439 q 281 294 262 334 q 333 233 300 255 q 408 212 366 212 m 400 806 q 261 838 323 806 q 163 923 199 869 q 127 1044 127 977 l 271 1044 q 310 965 273 998 q 400 933 347 933 q 491 965 454 933 q 528 1044 528 998 l 671 1044 q 636 923 672 977 q 538 838 600 869 q 400 806 477 806 z "},"ǧ":{"ha":838,"x_min":27,"x_max":777,"o":"m 378 -296 q 208 -274 285 -296 q 85 -229 130 -252 l 164 -43 q 253 -81 206 -66 q 350 -96 300 -96 q 440 -83 393 -96 q 519 -40 487 -69 q 552 34 552 -12 l 552 100 l 530 100 l 564 170 l 564 583 l 506 666 l 562 666 l 562 734 l 777 734 l 777 47 q 749 -99 777 -35 q 668 -207 721 -163 q 543 -273 616 -251 q 378 -296 469 -296 m 345 19 q 233 40 289 19 q 130 104 176 60 q 55 215 83 147 q 27 378 27 283 q 75 584 27 503 q 198 705 123 665 q 353 745 273 745 q 519 696 448 745 q 630 568 591 648 q 670 392 670 488 q 627 208 670 292 q 511 71 585 123 q 345 19 437 19 m 408 212 q 488 233 453 212 q 542 294 522 255 q 562 387 562 334 q 543 477 562 439 q 490 534 524 514 q 414 553 457 553 q 335 534 370 553 q 281 477 301 514 q 262 387 262 439 q 281 294 262 334 q 333 233 300 255 q 408 212 366 212 m 213 1105 l 397 949 l 403 949 l 587 1105 l 677 994 l 423 783 l 377 783 l 123 994 l 213 1105 z "},"ĝ":{"ha":838,"x_min":27,"x_max":777,"o":"m 378 -296 q 208 -274 285 -296 q 85 -229 130 -252 l 164 -43 q 253 -81 206 -66 q 350 -96 300 -96 q 440 -83 393 -96 q 519 -40 487 -69 q 552 34 552 -12 l 552 100 l 530 100 l 564 170 l 564 583 l 506 666 l 562 666 l 562 734 l 777 734 l 777 47 q 749 -99 777 -35 q 668 -207 721 -163 q 543 -273 616 -251 q 378 -296 469 -296 m 345 19 q 233 40 289 19 q 130 104 176 60 q 55 215 83 147 q 27 378 27 283 q 75 584 27 503 q 198 705 123 665 q 353 745 273 745 q 519 696 448 745 q 630 568 591 648 q 670 392 670 488 q 627 208 670 292 q 511 71 585 123 q 345 19 437 19 m 408 212 q 488 233 453 212 q 542 294 522 255 q 562 387 562 334 q 543 477 562 439 q 490 534 524 514 q 414 553 457 553 q 335 534 370 553 q 281 477 301 514 q 262 387 262 439 q 281 294 262 334 q 333 233 300 255 q 408 212 366 212 m 213 769 l 123 880 l 377 1092 l 423 1092 l 677 880 l 587 769 l 403 925 l 397 925 l 213 769 z "},"ģ":{"ha":838,"x_min":27,"x_max":777,"o":"m 378 -296 q 208 -274 285 -296 q 85 -229 130 -252 l 164 -43 q 253 -81 206 -66 q 350 -96 300 -96 q 440 -83 393 -96 q 519 -40 487 -69 q 552 34 552 -12 l 552 100 l 530 100 l 564 170 l 564 583 l 506 666 l 562 666 l 562 734 l 777 734 l 777 47 q 749 -99 777 -35 q 668 -207 721 -163 q 543 -273 616 -251 q 378 -296 469 -296 m 345 19 q 233 40 289 19 q 130 104 176 60 q 55 215 83 147 q 27 378 27 283 q 75 584 27 503 q 198 705 123 665 q 353 745 273 745 q 519 696 448 745 q 630 568 591 648 q 670 392 670 488 q 627 208 670 292 q 511 71 585 123 q 345 19 437 19 m 408 212 q 488 233 453 212 q 542 294 522 255 q 562 387 562 334 q 543 477 562 439 q 490 534 524 514 q 414 553 457 553 q 335 534 370 553 q 281 477 301 514 q 262 387 262 439 q 281 294 262 334 q 333 233 300 255 q 408 212 366 212 m 464 1184 l 509 1126 l 441 1076 q 415 1053 431 1069 q 387 1018 399 1037 q 374 983 374 999 l 347 983 q 360 1016 347 1002 q 403 1031 374 1031 q 470 1004 437 1031 q 503 930 503 977 q 472 860 503 887 q 403 834 441 833 q 328 861 359 833 q 297 945 297 888 q 314 1026 297 991 q 353 1086 330 1061 q 392 1126 375 1112 l 464 1184 z "},"ġ":{"ha":838,"x_min":27,"x_max":777,"o":"m 378 -296 q 208 -274 285 -296 q 85 -229 130 -252 l 164 -43 q 253 -81 206 -66 q 350 -96 300 -96 q 440 -83 393 -96 q 519 -40 487 -69 q 552 34 552 -12 l 552 100 l 530 100 l 564 170 l 564 583 l 506 666 l 562 666 l 562 734 l 777 734 l 777 47 q 749 -99 777 -35 q 668 -207 721 -163 q 543 -273 616 -251 q 378 -296 469 -296 m 345 19 q 233 40 289 19 q 130 104 176 60 q 55 215 83 147 q 27 378 27 283 q 75 584 27 503 q 198 705 123 665 q 353 745 273 745 q 519 696 448 745 q 630 568 591 648 q 670 392 670 488 q 627 208 670 292 q 511 71 585 123 q 345 19 437 19 m 408 212 q 488 233 453 212 q 542 294 522 255 q 562 387 562 334 q 543 477 562 439 q 490 534 524 514 q 414 553 457 553 q 335 534 370 553 q 281 477 301 514 q 262 387 262 439 q 281 294 262 334 q 333 233 300 255 q 408 212 366 212 m 400 807 q 299 849 340 807 q 258 949 258 890 q 299 1051 258 1010 q 400 1092 340 1092 q 502 1051 460 1092 q 543 949 543 1010 q 502 849 543 890 q 400 807 460 807 z "},"ḡ":{"ha":838,"x_min":27,"x_max":777,"o":"m 378 -296 q 208 -274 285 -296 q 85 -229 130 -252 l 164 -43 q 253 -81 206 -66 q 350 -96 300 -96 q 440 -83 393 -96 q 519 -40 487 -69 q 552 34 552 -12 l 552 100 l 530 100 l 564 170 l 564 583 l 506 666 l 562 666 l 562 734 l 777 734 l 777 47 q 749 -99 777 -35 q 668 -207 721 -163 q 543 -273 616 -251 q 378 -296 469 -296 m 345 19 q 233 40 289 19 q 130 104 176 60 q 55 215 83 147 q 27 378 27 283 q 75 584 27 503 q 198 705 123 665 q 353 745 273 745 q 519 696 448 745 q 630 568 591 648 q 670 392 670 488 q 627 208 670 292 q 511 71 585 123 q 345 19 437 19 m 408 212 q 488 233 453 212 q 542 294 522 255 q 562 387 562 334 q 543 477 562 439 q 490 534 524 514 q 414 553 457 553 q 335 534 370 553 q 281 477 301 514 q 262 387 262 439 q 281 294 262 334 q 333 233 300 255 q 408 212 366 212 m 109 842 l 109 986 l 692 986 l 692 842 l 109 842 z "},"h":{"ha":808,"x_min":61,"x_max":753,"o":"m 61 0 l 61 1044 l 302 1044 l 302 670 l 345 670 l 267 589 q 315 676 278 642 q 403 727 352 710 q 509 743 454 743 q 640 712 585 743 q 724 622 694 680 q 753 483 753 564 l 753 0 l 511 0 l 511 430 q 484 518 511 489 q 411 547 457 547 q 356 533 380 547 q 317 493 332 519 q 302 427 302 467 l 302 0 l 61 0 z "},"ħ":{"ha":808,"x_min":-47,"x_max":753,"o":"m 61 0 l 61 1044 l 302 1044 l 302 670 l 345 670 l 267 589 q 315 676 278 642 q 403 727 352 710 q 509 743 454 743 q 640 712 585 743 q 724 622 694 680 q 753 483 753 564 l 753 0 l 511 0 l 511 430 q 484 518 511 489 q 411 547 457 547 q 356 533 380 547 q 317 493 332 519 q 302 427 302 467 l 302 0 l 61 0 m -47 822 l -47 936 l 408 936 l 408 822 l -47 822 z "},"ḫ":{"ha":808,"x_min":61,"x_max":753,"o":"m 61 0 l 61 1044 l 302 1044 l 302 670 l 345 670 l 267 589 q 315 676 278 642 q 403 727 352 710 q 509 743 454 743 q 640 712 585 743 q 724 622 694 680 q 753 483 753 564 l 753 0 l 511 0 l 511 430 q 484 518 511 489 q 411 547 457 547 q 356 533 380 547 q 317 493 332 519 q 302 427 302 467 l 302 0 l 61 0 m 407 -319 q 268 -287 330 -319 q 170 -201 206 -255 q 134 -80 134 -147 l 278 -80 q 316 -159 279 -127 q 407 -191 353 -191 q 498 -159 461 -191 q 534 -80 534 -127 l 678 -80 q 643 -201 679 -147 q 545 -287 607 -255 q 407 -319 484 -319 z "},"ĥ":{"ha":808,"x_min":-95,"x_max":753,"o":"m 61 0 l 61 1044 l 302 1044 l 302 670 l 345 670 l 267 589 q 315 676 278 642 q 403 727 352 710 q 509 743 454 743 q 640 712 585 743 q 724 622 694 680 q 753 483 753 564 l 753 0 l 511 0 l 511 430 q 484 518 511 489 q 411 547 457 547 q 356 533 380 547 q 317 493 332 519 q 302 427 302 467 l 302 0 l 61 0 m 11 1095 l -95 1203 l 157 1375 l 202 1375 l 454 1203 l 353 1095 l 180 1219 l 178 1219 l 11 1095 z "},"ḥ":{"ha":808,"x_min":61,"x_max":753,"o":"m 61 0 l 61 1044 l 302 1044 l 302 670 l 345 670 l 267 589 q 315 676 278 642 q 403 727 352 710 q 509 743 454 743 q 640 712 585 743 q 724 622 694 680 q 753 483 753 564 l 753 0 l 511 0 l 511 430 q 484 518 511 489 q 411 547 457 547 q 356 533 380 547 q 317 493 332 519 q 302 427 302 467 l 302 0 l 61 0 m 407 -357 q 306 -315 347 -357 q 264 -214 264 -273 q 306 -113 264 -153 q 407 -72 347 -72 q 508 -113 467 -72 q 549 -214 549 -153 q 508 -315 549 -273 q 407 -357 467 -357 z "},"i":{"ha":369,"x_min":42,"x_max":327,"o":"m 64 0 l 64 732 l 305 732 l 305 0 l 64 0 m 184 807 q 83 849 125 807 q 42 949 42 890 q 83 1051 42 1010 q 184 1092 125 1092 q 286 1051 245 1092 q 327 949 327 1010 q 286 849 327 890 q 184 807 245 807 z "},"ı":{"ha":369,"x_min":64,"x_max":305,"o":"m 64 0 l 64 732 l 305 732 l 305 0 l 64 0 z "},"í":{"ha":404,"x_min":64,"x_max":420,"o":"m 64 0 l 64 732 l 305 732 l 305 0 l 64 0 m 184 780 l 84 864 l 293 1127 l 420 1000 l 184 780 z "},"ĭ":{"ha":458,"x_min":-43,"x_max":501,"o":"m 109 0 l 109 732 l 350 732 l 350 0 l 109 0 m 229 806 q 90 838 152 806 q -7 923 28 869 q -43 1044 -43 977 l 100 1044 q 139 965 102 998 q 229 933 176 933 q 320 965 283 933 q 357 1044 357 998 l 500 1044 q 465 923 501 977 q 368 838 429 869 q 229 806 306 806 z "},"ǐ":{"ha":458,"x_min":-47,"x_max":506,"o":"m 109 0 l 109 732 l 350 732 l 350 0 l 109 0 m 42 1105 l 227 949 l 232 949 l 416 1105 l 506 994 l 252 783 l 206 783 l -47 994 l 42 1105 z "},"î":{"ha":458,"x_min":-47,"x_max":506,"o":"m 109 0 l 109 732 l 350 732 l 350 0 l 109 0 m 42 769 l -47 880 l 206 1092 l 252 1092 l 506 880 l 416 769 l 232 925 l 227 925 l 42 769 z "},"ȉ":{"ha":403,"x_min":-111,"x_max":433,"o":"m 81 0 l 81 732 l 323 732 l 323 0 l 81 0 m 308 792 l 152 1025 l 313 1100 l 433 819 l 308 792 m 45 792 l -111 1025 l 47 1100 l 170 819 l 45 792 z "},"ï":{"ha":502,"x_min":-49,"x_max":551,"o":"m 130 0 l 130 732 l 372 732 l 372 0 l 130 0 m 423 819 q 333 856 370 819 q 296 947 296 893 q 333 1038 296 1001 q 423 1074 370 1074 q 514 1038 477 1074 q 551 947 551 1001 q 514 856 551 893 q 423 819 477 819 m 79 819 q -12 856 25 819 q -49 947 -49 893 q -12 1038 -49 1001 q 79 1074 25 1074 q 170 1038 133 1074 q 206 947 206 1001 q 170 856 206 893 q 79 819 133 819 z "},"ḯ":{"ha":502,"x_min":-49,"x_max":551,"o":"m 130 0 l 130 732 l 372 732 l 372 0 l 130 0 m 423 819 q 333 856 370 819 q 296 947 296 893 q 333 1038 296 1001 q 423 1074 370 1074 q 514 1038 477 1074 q 551 947 551 1001 q 514 856 551 893 q 423 819 477 819 m 79 819 q -12 856 25 819 q -49 947 -49 893 q -12 1038 -49 1001 q 79 1074 25 1074 q 170 1038 133 1074 q 206 947 206 1001 q 170 856 206 893 q 79 819 133 819 m 251 1078 l 151 1162 l 359 1426 l 487 1298 l 251 1078 z "},"ị":{"ha":369,"x_min":42,"x_max":328,"o":"m 64 0 l 64 732 l 305 732 l 305 0 l 64 0 m 184 807 q 83 849 125 807 q 42 949 42 890 q 83 1051 42 1010 q 184 1092 125 1092 q 286 1051 245 1092 q 327 949 327 1010 q 286 849 327 890 q 184 807 245 807 m 186 -357 q 85 -315 126 -357 q 43 -214 43 -273 q 85 -113 43 -153 q 186 -72 126 -72 q 287 -113 246 -72 q 328 -214 328 -153 q 287 -315 328 -273 q 186 -357 246 -357 z "},"ì":{"ha":387,"x_min":-34,"x_max":323,"o":"m 81 0 l 81 732 l 323 732 l 323 0 l 81 0 m 202 780 l -34 1000 l 94 1127 l 302 864 l 202 780 z "},"ỉ":{"ha":369,"x_min":38,"x_max":319,"o":"m 64 0 l 64 732 l 305 732 l 305 0 l 64 0 m 210 777 l 126 859 q 160 888 144 870 q 176 924 176 905 q 156 950 176 942 q 104 959 136 959 q 73 957 90 959 q 38 947 56 954 l 38 1084 q 83 1096 52 1092 q 141 1100 114 1100 q 271 1063 222 1100 q 319 956 319 1027 q 284 844 319 891 q 210 777 250 797 z "},"ȋ":{"ha":458,"x_min":-43,"x_max":501,"o":"m 109 0 l 109 732 l 350 732 l 350 0 l 109 0 m 229 1050 q 368 1018 306 1050 q 465 932 429 987 q 500 811 501 878 l 357 811 q 320 890 357 858 q 229 922 283 922 q 139 890 176 922 q 100 811 102 858 l -43 811 q -7 932 -43 878 q 90 1018 28 987 q 229 1050 152 1050 z "},"ī":{"ha":458,"x_min":-18,"x_max":477,"o":"m 109 0 l 109 732 l 350 732 l 350 0 l 109 0 m -18 842 l -18 986 l 477 986 l 477 842 l -18 842 z "},"į":{"ha":369,"x_min":26,"x_max":327,"o":"m 64 0 l 64 732 l 305 732 l 305 0 l 64 0 m 184 807 q 83 849 125 807 q 42 949 42 890 q 83 1051 42 1010 q 184 1092 125 1092 q 286 1051 245 1092 q 327 949 327 1010 q 286 849 327 890 q 184 807 245 807 m 190 -297 q 71 -258 117 -297 q 26 -153 26 -219 q 67 -51 26 -95 q 182 37 109 -6 l 304 0 q 238 -41 268 -21 q 189 -82 208 -62 q 171 -125 171 -103 q 186 -154 171 -144 q 232 -164 201 -164 q 272 -160 250 -164 q 304 -151 294 -157 l 304 -281 q 249 -293 283 -289 q 190 -297 214 -297 z "},"ĩ":{"ha":458,"x_min":-52,"x_max":505,"o":"m 109 0 l 109 732 l 350 732 l 350 0 l 109 0 m -52 811 q -3 978 -52 912 q 126 1044 45 1044 q 192 1030 166 1044 q 237 998 218 1017 q 272 966 256 980 q 307 952 288 952 q 343 980 332 952 q 354 1044 354 1007 l 503 1044 q 456 878 505 945 q 326 811 408 811 q 260 825 286 811 q 216 857 235 839 q 181 889 197 876 q 145 903 165 903 q 110 877 121 903 q 98 811 99 851 l -52 811 z "},"j":{"ha":395,"x_min":-53,"x_max":351,"o":"m 53 -301 q 0 -298 28 -301 q -53 -290 -28 -295 l -53 -76 q -19 -85 -37 -83 q 14 -88 -1 -88 q 73 -69 56 -88 q 90 -23 90 -50 l 90 732 l 331 732 l 331 -7 q 301 -158 331 -92 q 209 -263 271 -224 q 53 -301 147 -301 m 209 807 q 108 849 149 807 q 66 949 66 890 q 108 1051 66 1010 q 209 1092 149 1092 q 310 1051 269 1092 q 351 949 351 1010 q 310 849 351 890 q 209 807 269 807 z "},"ȷ":{"ha":395,"x_min":-53,"x_max":331,"o":"m 53 -301 q 0 -298 28 -301 q -53 -290 -28 -295 l -53 -76 q -19 -85 -37 -83 q 14 -88 -1 -88 q 73 -69 56 -88 q 90 -23 90 -50 l 90 732 l 331 732 l 331 -7 q 301 -158 331 -92 q 209 -263 271 -224 q 53 -301 147 -301 z "},"ĵ":{"ha":446,"x_min":-68,"x_max":486,"o":"m 53 -301 q 0 -298 28 -301 q -53 -290 -28 -295 l -53 -76 q -19 -85 -37 -83 q 14 -88 -1 -88 q 73 -69 56 -88 q 90 -23 90 -50 l 90 732 l 331 732 l 331 -7 q 301 -158 331 -92 q 209 -263 271 -224 q 53 -301 147 -301 m 22 769 l -68 880 l 186 1092 l 232 1092 l 486 880 l 396 769 l 212 925 l 206 925 l 22 769 z "},"k":{"ha":817,"x_min":61,"x_max":827,"o":"m 61 0 l 61 1044 l 302 1044 l 302 448 l 361 448 l 289 411 l 533 734 l 814 734 l 464 313 l 464 453 l 827 0 l 547 0 l 286 345 l 361 308 l 302 308 l 302 0 l 61 0 z "}}}
